<?xml version="1.0" encoding="UTF-8"?>
<svg id="Layer_1" data-name="Layer 1" xmlns="http://www.w3.org/2000/svg" viewBox="0 0 770.86 746.41">
  <defs>
    <style>
      .cls-1, .cls-2, .cls-3 {
        fill: #fff;
      }

      .cls-4 {
        letter-spacing: 0em;
      }

      .cls-2 {
        fill-rule: evenodd;
      }

      .cls-5 {
        stroke-dasharray: 0 0 11.51 11.51;
      }

      .cls-5, .cls-6, .cls-7 {
        fill: none;
        stroke: #040000;
        stroke-linecap: round;
        stroke-width: 3px;
      }

      .cls-5, .cls-6, .cls-7, .cls-3 {
        stroke-miterlimit: 10;
      }

      .cls-6 {
        stroke-dasharray: 0 0 10.21 10.21;
      }

      .cls-8 {
        fill: #040000;
      }

      .cls-9 {
        letter-spacing: 0em;
      }

      .cls-10 {
        letter-spacing: -.02em;
      }

      .cls-11 {
        fill: #66bb46;
      }

      .cls-3 {
        stroke: #000;
        stroke-width: 2px;
      }

      .cls-12 {
        font-family: MyriadPro-Regular, 'Myriad Pro';
        font-size: 29.6px;
      }

      .cls-12, .cls-13 {
        fill: #231f20;
      }

      .cls-14 {
        letter-spacing: 0em;
      }
    </style>
  </defs>
  <circle class="cls-8" cx="719.24" cy="242.22" r="4.27"/>
  <circle class="cls-8" cx="707.75" cy="242.22" r="4.27"/>
  <circle class="cls-8" cx="696.26" cy="242.22" r="4.27"/>
  <circle class="cls-8" cx="753.72" cy="242.22" r="4.27"/>
  <circle class="cls-8" cx="742.23" cy="242.22" r="4.27"/>
  <circle class="cls-8" cx="730.74" cy="242.22" r="4.27"/>
  <g>
    <g>
      <path class="cls-1" d="m627.53,427.83c-5.46-8.4-13.16-13.14-22.68-15.92-.12-.03-1.36-.41-2.62-.78-.18-.4-.36-.79-.55-1.19-.79-1.68-1.54-3.34-2.44-4.97-3.87-7.07-9.13-13.35-14.13-19.63-1-1.25-2-2.5-2.99-3.75-.23-.29-.34-.43-.39-.47-.13-.19-.31-.44-.56-.79-2.21-3.13-4.3-6.28-6.13-9.66-5.02-9.23-18.53-12.94-27.44-7.2-9.36,6.04-12.56,17.57-7.2,27.44,3.87,7.12,8.92,13.45,13.94,19.79,1.19,1.5,2.4,3,3.59,4.5.26.33.46.57.6.75.03.05.13.19.35.5,2.04,2.84,4.02,5.7,5.71,8.76,4.42,8.01,7.59,15.38,16,20.28,3.61,2.1,7.76,3.46,11.77,4.6.35.1,1.69.61,2.9,1,6.31,6.69,16.8,9.48,25.05,4.16,8.78-5.66,13.31-18.03,7.2-27.44Z"/>
      <path class="cls-1" d="m539.47,373.2h22.6c2.29,0,5.43,3.57,5.99,5.71l14.33,55.59c.1.14.86.65.94.65h45.87c.12.93-.51,3.99.93,4l.62-.45c-.08-7.43.61-14.86.32-22.3-.33-8.41-1.8-17-3.81-25.17-2.69-10.93-6.95-21.21-11.57-31.42,7.23-6.21,11.21-13.29,13.33-22.55,2.1-9.16,1.29-18.51,2.59-27.72.43-3.08-.18-8.72-.58-11.94-1.62-13.14-7.08-29.63-20.7-34.47l4.76-2.28c9.78-8.93-.19-24.7-4.54-34.23-6.19-13.55-3.89-28.73-17.53-37.78-11.16-7.41-23.49-5.47-35.07-.29-10.16,4.55-18.46,18.03-13.27,28.94,1.44,3.02,4.29,4.91,4.24,8.54-.1,7.93-2.72,11.36-4.61,18.28-2.08,7.59-1.12,13.82,7.13,16.14,2.01.57,3.99.37,5.97.94-.95.44-1.45,2.27-1.92,2.73-.27.25-3.11,1.33-3.9,1.82-12.14,7.45-20.87,27.37-26.66,39.81-.87,1.87-1.83,3.75-2.35,5.76-5.96-7.13-10.36-15.04-14.58-23.3-3.59-7.02-6.59-17.35-15.99-17.91l7.07-16.2c1.27-4.29-3.96-6.98-6.64-3.45l-7.63,17.24c-5.8-1.26-11.99-3.78-17.93-4.23-1.99-.15-5.75-.49-6.19,2.06-.73,4.25,8.43,7.08,11.38,8.44-2.34,1.49-1.79,4.32-.26,6.24-3.35.96-2.81,4.35-.82,6.48-2.12,1.96-3.08,3.79-.65,6.02,1.03.95,1.97,1.02,3.03,1.76l.16,8.88.8.26,5.9-5.82,7.14,2.89c3.61,12.07,7.21,23.74,13.85,34.54,7.24,11.75,18.05,26,33.43,16.99,2.94-1.72,5.2-4.29,7.89-6.33-.26,3.59-.4,7.16-.83,10.73-.57,4.68-2.41,10.55-2.62,14.94-.03.54-.1,1.11.4,1.45Zm91.3,79.27l-1.41-.32c-20.82-.18-41.7.16-62.48.29-11.74.07-23.53-.19-35.25.12-.47.23-.68,1.12-.77,1.62-.61,3.21-.37,7.09-.54,10.36-.67,12.39-1.24,24.8-.27,37.21.05.58.19,1.81.32,2.34.57,2.26,7.23,2.61,7.4,3.29l4.2,107.32c-6.07,6.84-10.75,14.95-18.59,19.97-3.45,2.21-11.54,5.39-13.33,8.74-.99,1.85-1.2,3.93-.49,5.92l34.15.31,13.86-10.83c.91,2.96.33,6.65.94,9.69.06.29.12.51.36.7.23.21.52.21.81.25,1,.13,8.36.09,8.91-.15.25-.11.49-.44.66-.66.33-9.07,1.47-18.45.95-27.52-.17-3.03-1.15-6.06-1.35-9.02-.46-6.77.79-13.51,1.34-20.22,2.23-27.01,4.67-54.05,9.09-80.77.56-1.05,4.33-.68,5.49-.67.52,1.33,1.24,2.57,1.87,3.85,11.01,22.52,22.04,46.57,31.99,69.57,2.87,6.63,8.98,20.28,8.46,27.16-.43,5.57-4.41,16.95-7.98,21.27-3.04,3.68-10.4,8.44-11.09,13.1-.11.72-.25,2.34.17,2.88.25.32.58.34.94.39,2.69.35,13.58.36,16.17-.08,1.75-.3,6.64-2.8,8.53-3.7,2.77-1.31,9.89-4.58,11.39-6.96,1.22-1.94,4.52-13.06,5.4-13.48,1.48,2.03,2.51,5.02,3.9,7,.33.48.7.89,1.26,1.11,1.06.24,7.12-3.88,7.6-4.93.42-.92-.04-2.01-.26-2.92-1.71-6.95-4.87-16.24-8.43-22.41-2.76-4.79-6.03-8.01-7.79-13.48-2-6.24-2.67-13.24-3.98-19.68-4.23-20.75-9.08-41.43-14.72-61.82.12-.64,5.23-.67,6-1.52l.24-.89c-1.4-12.98-2.7-26-3.37-39.04l-.29-13.4Z"/>
      <path d="m539.47,373.2c-.51-.34-.43-.91-.4-1.45.22-4.38,2.05-10.26,2.62-14.94.44-3.57.57-7.14.83-10.73-2.7,2.04-4.95,4.61-7.89,6.33-15.38,9.01-26.19-5.24-33.43-16.99-6.65-10.79-10.24-22.46-13.85-34.54l-7.14-2.89-5.9,5.82-.8-.26-.16-8.88c-1.06-.74-2-.81-3.03-1.76-2.43-2.24-1.47-4.07.65-6.02-1.99-2.13-2.54-5.52.82-6.48-1.53-1.92-2.08-4.76.26-6.24-2.95-1.36-12.11-4.19-11.38-8.44.44-2.55,4.21-2.21,6.19-2.06,5.93.45,12.13,2.97,17.93,4.23l7.63-17.24c2.68-3.53,7.91-.83,6.64,3.45l-7.07,16.2c9.4.56,12.4,10.89,15.99,17.91,4.22,8.26,8.62,16.17,14.58,23.3.52-2.01,1.48-3.9,2.35-5.76,5.79-12.44,14.52-32.36,26.66-39.81.8-.49,3.64-1.56,3.9-1.82.48-.45.98-2.29,1.92-2.73-1.97-.58-3.96-.38-5.97-.94-8.25-2.32-9.21-8.55-7.13-16.14,1.9-6.92,4.51-10.35,4.61-18.28.05-3.63-2.81-5.52-4.24-8.54-5.2-10.91,3.1-24.39,13.27-28.94,11.58-5.18,23.9-7.12,35.07.29,13.63,9.05,11.34,24.23,17.53,37.78,4.35,9.53,14.32,25.29,4.54,34.23l-4.76,2.28c13.63,4.84,19.08,21.33,20.7,34.47.4,3.22,1.01,8.86.58,11.94-1.29,9.21-.49,18.56-2.59,27.72-2.12,9.26-6.1,16.34-13.33,22.55,4.62,10.21,8.88,20.49,11.57,31.42,2.01,8.17,3.48,16.76,3.81,25.17.29,7.44-.27,15.55-.19,22.99l-.62.45c-1.44,0-.94-1.69-1.06-2.62h-45.87c-.08,0-.84-.51-.94-.65l-14.33-57.66c-.56-2.14-3.71-5.71-5.99-5.71h-22.6Zm49.06-110.6c-1.37-.05-6.73-.12-7.31-1.33-.51-1.07,1.34-8.53,1.64-10.32.64-3.73,1.08-10.57,2.2-13.76.72-2.04,3.19-1.34,5.08-2.36,3.78-2.04,4.95-7.85,1.18-10.51-3.31-2.34-5.06,1.11-7.12.48-.39-.12-.91-.86-1.5-1.16-1.43-.73-3.21-1.03-4.72-1.67-8.17-3.48-15.85-9.97-19.1-18.39-4.64,4.2-6.55,8.72-7.5,14.83-1.04,6.65-.94,13.19.92,19.67.91,3.18,2.14,6.66,4.74,8.83.46.1,1.34-2.19,3.37-1.8,2.3.44,4.66,4.91,5.97,5.21,2.46.56,5.76-.79,8.05-1.67.68-.26,1.17-.96,2.11-.64.9.54-1.96,4.15-2.5,4.77-1,1.13-2.21,2.01-3.28,3.05,3.69,4.31,6.67,8.85,7.38,14.65.81.59,4-1.6,4.78-2.17.55-.4,6.05-5.36,5.61-5.69Zm11.73,45.49l-.14,2.88,11.17,17.56c.37.93-.66,1.65-1.49,1.21-3.63-5.22-6.58-10.93-10.09-16.23-6.59-9.94-17.89-22.31-21.2-33.57-1.26-4.28-1.38-8.86-2.6-13.08-1.55-5.34-8.2-12.98-12.09-17.16-.58-.62-2.7-2.88-3.27-3.12-1.31-.56-2.37.73-1.85,2.12.63,1.66,3.49,6,4.63,7.6,1.02,1.42,3.9,4.09,4.44,5.13.26.5.37.96.32,1.52-.32,1.35-6.54-1.42-7.59-1.43-1.26,0-2.9,1.2-3.32,2.4,1.93.06,6.61,1.03,7.89,2.47.54.61.25,1.47-.53,1.46-.91,0-3.33-1.16-4.83-1.29-2.36-.19-4.67-.07-5.99,2.13,1.17-.46,7.48,1.13,7.18,2.52-.22,1.03-2.47-.48-3.05-.67-4.17-1.36-7.02-.49-7.51,4.2-.23,2.2.56,5.42,2.09,7.07,2.75,2.95.85-3.33.79-3.98-.11-1.09.24-3.05,1.27-1.54.86,1.25,1.41,7.23,2.42,9.55,1.88,4.3,6.07,6.98,7.94,10.94,2.61,5.49,4.28,13.4,6.41,19.38,5.18,14.47,12.16,32.42,24.91,41.83,12.05,8.88,19.27,1.49,25.62-8.86,7-11.4,6.57-25.74,7.71-38.69l-29.22-2.36Zm-105.38-57.4c-.65.16-1.9,1.3-1.41,2.07.39.62,3.22,1.41,3.89.95,1.13-.79-.44-3.51-2.47-3.02Zm-9.24,19.35h4.39l6.25-13.97c0-.76-2.88-1.13-3.57-1.7l-7.07,15.67Zm-1.6-.53c-5.16-1.32-10.33-3.16-15.63-3.91-1.08-.15-5.97-.96-6.1.58.57,1.7,2.19,2.62,3.65,3.47,3.4,1.98,7.27,3.1,11.05,4.1.36-2.06,2.58-2.81,4.36-3.33.89-.26,2.17.14,2.67-.91Zm46.78,56.08c-.26.19-1.1-.02-1.32-.37-6.61-11.05-15.25-20.81-21.14-32.31-2.89-5.64-7.18-18.45-13.62-20.41-3.35-1.02-11.22-1.31-14.41.06-1.61.69-2.12,1.44-.67,2.79,1.12,1.03,3.37,1.55,4.86,1.79,1.07.18,5.01.23,5.4.71s-.1,2.44,0,3.45c.18,1.7,1.28,3.8,2.25,5.19.59.84,3.84,3.84,3.84,4.14.02,2.32-3.93-1.71-4.4-2.26-1.5-1.73-2.71-3.86-3.19-6.12-.84.9-1.73,1.82-3.06,1.86,2.66,2.47,1.17,5.4-1.86,6.51,1.9,2.68-.96,3.13-1.79,4.2-.09.11-.61,1.54-.59,1.62.18.8,6.02,2.62,7.05,2.79,1.07.18,4.26-.46,3.3,1.49-.61.52-1.32.31-2,.4-.35.04-.49-.16-.37.36,2.73,7.5,4.71,15.29,7.99,22.59,3.89,8.68,14.1,25.98,23.57,28.81,8.82,2.64,15.85-3.26,21.54-9.15.17-3.46-.18-7.1-.82-10.5-1.23-6.58-4.93-12.4-5.24-19.22-.42-9.36,5.28-18.78,8.5-27.25-3.13,4.32-5.93,10.06-7.58,15.15-.14.44-.16.88-.13,1.33l-8.21-1.57c-1.69,3.9-4,7.6-5.04,11.75,2.04,3.19,4.75,6.38,6.55,9.68.28.52,1.2,1.99.56,2.45Zm-44.21-43.68c.32-.34.63-.87.64-1.36-.14-1.73-5.27-2.05-6.84-2.75-1.82-.82-2.61-2.42-4.76-2.69-2.6-.32-4.47.95-3.09,3.62.94,1.81,2.78,1.63,4.44,2.2,2.64.92,5.66,2.69,8.37,1.73.3-.1,1.02-.54,1.24-.76Zm-14.61.15c-2.1.6-.63,3.18,1,3.94s6.26,2.39,8.01,2.63c1.38.19,3.48.33,3.99-1.3.4-1.28-.76-1.76-1.75-2.27-1.61-.82-6.74-2.73-8.43-3-.7-.11-2.17-.19-2.8,0Zm.26,6.11c-.81.24-1.67,1.56-1.52,2.46.43,2.46,10.12,4.3,11.69,1.58-.68-1.51-2.29-2.1-3.72-2.62-1.27-.46-5.34-1.75-6.45-1.42Zm2.74,6.59v6.12c.72-1.19,4.79-4.33,4.79-5.45l-4.79-.67Z"/>
      <path d="m630.77,452.47l.29,13.4c.67,13.04,1.96,26.05,3.37,39.04l-.24.89c-.77.85-5.89.88-6,1.52,5.65,20.39,10.49,41.07,14.72,61.82,1.31,6.44,1.98,13.44,3.98,19.68,1.76,5.47,5.03,8.69,7.79,13.48,3.56,6.18,6.72,15.46,8.43,22.41.22.9.68,2,.26,2.92-.48,1.05-6.54,5.16-7.6,4.93-.56-.22-.92-.63-1.26-1.11-1.39-1.98-2.42-4.97-3.9-7-.88.42-4.18,11.54-5.4,13.48-1.49,2.38-8.62,5.65-11.39,6.96-1.89.9-6.79,3.4-8.53,3.7-2.59.44-13.47.43-16.17.08-.37-.05-.7-.06-.94-.39-.42-.54-.28-2.16-.17-2.88.69-4.66,8.05-9.42,11.09-13.1,3.57-4.31,7.55-15.69,7.98-21.27.53-6.88-5.59-20.53-8.46-27.16-9.95-23.01-20.98-47.06-31.99-69.57-.63-1.28-1.34-2.52-1.87-3.85-1.17,0-4.93-.38-5.49.67-4.42,26.73-6.86,53.76-9.09,80.77-.55,6.7-1.8,13.45-1.34,20.22.2,2.95,1.18,5.99,1.35,9.02.52,9.07-.62,18.46-.95,27.52-.18.22-.41.55-.66.66-.56.25-7.92.28-8.91.15-.29-.04-.58-.04-.81-.25-.24-.19-.31-.41-.36-.7-.61-3.04-.03-6.73-.94-9.69l-13.86,10.83-34.15-.31c-.71-1.99-.49-4.07.49-5.92,1.79-3.35,9.87-6.53,13.33-8.74,7.85-5.02,12.52-13.13,18.59-19.97l-4.2-107.32c-.16-.69-6.83-1.03-7.4-3.29-.13-.52-.28-1.75-.32-2.34-.96-12.41-.4-24.82.27-37.21.18-3.26-.06-7.15.54-10.36.09-.5.3-1.39.77-1.62,11.71-.3,23.5-.04,35.25-.12,20.78-.13,41.66-.47,62.48-.29l1.41.32Zm-102.6,181.29c9.19,1.13,18.37-3.82,25.38-9.32,5.36-4.2,10.48-9.22,13.7-15.28.56-11.95,1.54-23.96,2.67-35.89,1.67-17.67,3.83-35.31,6.13-52.91-.08-.69-1.67-1.05-2.32-1.42-4.02-2.32-8.5-5.37-12.58-7.36-4.15-2.02-6.95-1.66-11.27-2.29-3.52-.51-7.08-.95-10.53-1.83l4.26,107.81c-3.93,4.26-7.08,9.22-10.91,13.55-1.22,1.37-3.06,2.74-4.12,4.13-.2.27-.52.34-.4.8Zm98.34-126.25c-13.24,1.25-26.5,2.81-39.85,2.62l34.61,75.59c4.46,11.59,9.45,19.64,5.99,32.41-1.29,4.77-3.11,9.6-5.77,13.77,9.3-.08,14.66-8.93,18.49-16.21,2.27-4.32,4.97-9.83,6.22-14.52.4-1.47,1.35-5.3,1.22-6.64-.06-.65-1.16-2.3-1.48-3.17-2.61-7.29-3.35-15.43-4.91-23.01-4.18-20.42-9.04-40.76-14.53-60.84Z"/>
      <path class="cls-1" d="m600.26,308.09l29.22,2.36c-1.13,12.95-.7,27.29-7.71,38.69-6.35,10.35-13.57,17.74-25.62,8.86-12.75-9.4-19.73-27.35-24.91-41.83-2.14-5.97-3.81-13.88-6.41-19.38-1.88-3.95-6.06-6.63-7.94-10.94-1.01-2.31-1.56-8.3-2.42-9.55-1.03-1.51-1.38.45-1.27,1.54.06.65,1.96,6.93-.79,3.98-1.53-1.64-2.32-4.87-2.09-7.07.49-4.69,3.34-5.57,7.51-4.2.58.19,2.83,1.7,3.05.67.3-1.4-6.01-2.98-7.18-2.52,1.32-2.21,3.64-2.33,5.99-2.13,1.5.12,3.92,1.28,4.83,1.29.78,0,1.07-.86.53-1.46-1.28-1.45-5.96-2.41-7.89-2.47.42-1.19,2.07-2.4,3.32-2.4,1.05,0,7.28,2.78,7.59,1.43.05-.56-.06-1.02-.32-1.52-.54-1.04-3.42-3.71-4.44-5.13-1.14-1.6-4-5.94-4.63-7.6-.53-1.39.54-2.68,1.85-2.12.58.24,2.69,2.5,3.27,3.12,3.89,4.17,10.54,11.82,12.09,17.16,1.22,4.22,1.34,8.8,2.6,13.08,3.32,11.26,14.62,23.63,21.2,33.57,3.51,5.3,6.47,11.02,10.09,16.23.83.44,1.86-.28,1.49-1.21l-11.17-17.56.14-2.88Z"/>
      <path class="cls-1" d="m530.81,325.59c.64-.46-.28-1.94-.56-2.45-1.8-3.3-4.51-6.49-6.55-9.68,1.05-4.15,3.35-7.85,5.04-11.75l8.21,1.57c-.03-.45.25-1,.39-1.44,1.65-5.1,4.19-10.73,7.32-15.05-3.23,8.47-8.92,17.89-8.5,27.25.3,6.83,4,12.64,5.24,19.22.64,3.4.99,7.05.82,10.5-5.69,5.89-12.72,11.79-21.54,9.15-9.47-2.83-19.68-20.13-23.57-28.81-3.28-7.3-5.25-15.09-7.99-22.59-.12-.52.02-.32.37-.36.67-.09,1.39.12,2-.4.97-1.96-2.23-1.32-3.3-1.49-1.03-.17-6.88-1.99-7.05-2.79-.02-.08.5-1.51.59-1.62.83-1.08,3.69-1.52,1.79-4.2,3.02-1.11,4.51-4.04,1.86-6.51,1.33-.04,2.22-.96,3.06-1.86.48,2.26,1.69,4.39,3.19,6.12.48.55,4.42,4.58,4.4,2.26,0-.3-3.25-3.3-3.84-4.14-.98-1.39-2.07-3.49-2.25-5.19-.11-1.01.4-2.96,0-3.45s-4.33-.54-5.4-.71c-1.48-.24-3.74-.76-4.86-1.79-1.46-1.34-.94-2.09.67-2.79,3.19-1.38,11.07-1.08,14.41-.06,6.45,1.96,10.73,14.77,13.62,20.41,5.89,11.5,14.53,21.25,21.14,32.31.22.35,1.07.55,1.32.37Z"/>
      <path class="cls-1" d="m588.53,262.6c.44.33-5.06,5.29-5.61,5.69-.78.57-3.97,2.76-4.78,2.17-.71-5.79-3.69-10.33-7.38-14.65,1.07-1.05,2.28-1.92,3.28-3.05.54-.61,3.41-4.22,2.5-4.77-.94-.32-1.42.38-2.11.64-2.29.89-5.59,2.23-8.05,1.67-1.32-.3-3.67-4.77-5.97-5.21-2.03-.39-2.91,1.91-3.37,1.8-2.6-2.16-3.83-5.65-4.74-8.83-1.86-6.48-1.95-13.02-.92-19.67.95-6.11,2.87-10.63,7.5-14.83,3.25,8.42,10.93,14.9,19.1,18.39,1.5.64,3.28.94,4.72,1.67.59.3,1.12,1.04,1.5,1.16,2.06.63,3.81-2.82,7.12-.48,3.77,2.66,2.6,8.47-1.18,10.51-1.89,1.02-4.37.32-5.08,2.36-1.12,3.18-1.56,10.03-2.2,13.76-.31,1.79-2.15,9.25-1.64,10.32.58,1.21,5.94,1.28,7.31,1.33Zm-32.79-41.4c-2.33-2.55-4.92,2.47-2.56,4.02,2.25,1.48,4.27-2.15,2.56-4.02Zm10.64,0c-2.33-2.55-4.92,2.47-2.56,4.02s4.27-2.15,2.56-4.02Zm-6.3-.35l-1.09.16c-.32,2.79-3.68,7.44-3.82,9.91-.13,2.25,4.75,3.6,3.72,1.62-.38-.72-2.37-.67-2.45-1.45.37-1.38,4.26-9.65,3.64-10.24Zm25.79,10.63c1.51-.06,1.59-1.88,2.94-2.77.85-.56,2.95-.63,2.64-1.61-1.76-2.01-6.87,3.49-5.58,4.38Zm-20.21,2.39c-1.18-.19-1.66.97-2.41,1.44-1.45.92-3,1.22-4.69,1.45-.41.06-2.17-.44-1.68.69.45,1.03,4.57.13,5.58-.27,1.3-.51,3.32-1.74,3.19-3.32Z"/>
      <path class="cls-1" d="m484.03,269.51c-.5,1.05-1.78.66-2.67.91-1.78.51-4.01,1.27-4.36,3.33-3.78-1.01-7.65-2.13-11.05-4.1-1.46-.85-3.08-1.76-3.65-3.47.13-1.55,5.02-.74,6.1-.58,5.3.75,10.47,2.6,15.63,3.91Z"/>
      <path class="cls-11" d="m485.63,270.04l7.07-15.67c.69.56,3.56.94,3.57,1.7l-6.25,13.97h-4.39Z"/>
      <path class="cls-1" d="m486.6,281.91c-.21.22-.94.65-1.24.76-2.71.95-5.73-.82-8.37-1.73-1.66-.58-3.51-.4-4.44-2.2-1.38-2.67.49-3.94,3.09-3.62,2.14.26,2.93,1.87,4.76,2.69,1.57.7,6.71,1.02,6.84,2.75,0,.48-.31,1.02-.64,1.36Z"/>
      <path class="cls-1" d="m471.99,282.06c.64-.18,2.11-.1,2.8,0,1.69.27,6.82,2.18,8.43,3,1,.51,2.15.99,1.75,2.27-.51,1.62-2.61,1.48-3.99,1.3-1.75-.24-6.32-1.85-8.01-2.63s-3.1-3.34-1-3.94Z"/>
      <path class="cls-1" d="m472.26,288.18c1.11-.33,5.18.95,6.45,1.42,1.43.52,3.04,1.11,3.72,2.62-1.56,2.72-11.26.88-11.69-1.58-.16-.9.71-2.21,1.52-2.46Z"/>
      <path class="cls-11" d="m475,294.77l4.79.67c0,1.12-4.07,4.26-4.79,5.45v-6.12Z"/>
      <path class="cls-1" d="m494.87,250.69c2.03-.49,3.6,2.23,2.47,3.02-.67.47-3.5-.33-3.89-.95-.48-.77.76-1.91,1.41-2.07Z"/>
      <path class="cls-1" d="m528.17,633.75c-.12-.46.19-.53.4-.8,1.06-1.38,2.9-2.75,4.12-4.13,3.83-4.33,6.98-9.29,10.91-13.55l-4.26-107.81c3.45.88,7.01,1.32,10.53,1.83,4.33.63,7.13.27,11.27,2.29,4.08,1.99,8.56,5.04,12.58,7.36.65.38,2.24.74,2.32,1.42-2.3,17.6-4.46,35.23-6.13,52.91-1.13,11.93-2.11,23.94-2.67,35.89-3.22,6.06-8.34,11.08-13.7,15.28-7.01,5.49-16.19,10.45-25.38,9.32Z"/>
      <path class="cls-1" d="m626.52,507.5c5.49,20.09,10.35,40.42,14.53,60.84,1.55,7.58,2.29,15.72,4.91,23.01.31.87,1.41,2.52,1.48,3.17.13,1.34-.83,5.16-1.22,6.64-1.26,4.68-3.96,10.2-6.22,14.52-3.82,7.28-9.19,16.13-18.49,16.21,2.66-4.16,4.48-8.99,5.77-13.77,3.45-12.77-1.54-20.82-5.99-32.41l-34.61-75.59c13.34.19,26.6-1.37,39.85-2.62Z"/>
      <path d="m560.08,220.85c.63.6-3.27,8.86-3.64,10.24.08.78,2.07.72,2.45,1.45,1.02,1.97-3.85.63-3.72-1.62.14-2.47,3.5-7.11,3.82-9.91l1.09-.16Z"/>
      <path d="m555.74,221.2c1.71,1.87-.3,5.5-2.56,4.02-2.36-1.55.22-6.57,2.56-4.02Z"/>
      <path d="m566.38,221.2c1.71,1.87-.3,5.5-2.56,4.02-2.36-1.55.22-6.57,2.56-4.02Z"/>
      <path d="m565.66,233.88c.13,1.58-1.9,2.81-3.19,3.32-1.01.4-5.13,1.3-5.58.27-.49-1.13,1.27-.63,1.68-.69,1.69-.23,3.23-.53,4.69-1.45.75-.48,1.23-1.63,2.41-1.44Z"/>
      <path d="m585.87,231.49c-1.29-.9,3.82-6.39,5.58-4.38.31.98-1.79,1.05-2.64,1.61-1.35.89-1.43,2.72-2.94,2.77Z"/>
    </g>
    <path class="cls-8" d="m580.72,441.15h-96.49l-16.02-61.45c-.45-1.74.86-3.44,2.66-3.44h89.84c1.44,0,2.7.96,3.08,2.35l16.93,62.54Z"/>
    <g>
      <g>
        <rect class="cls-1" x="344.57" y="441.15" width="359.72" height="10.75"/>
        <path class="cls-8" d="m704.92,452.54h-360.99v-12.02h360.99v12.02Zm-359.72-1.27h358.46v-9.48h-358.46v9.48Z"/>
      </g>
      <g>
        <rect class="cls-1" x="359.6" y="451.9" width="9.09" height="198.91"/>
        <path class="cls-8" d="m369.32,651.45h-10.36v-200.18h10.36v200.18Zm-9.09-1.27h7.82v-197.65h-7.82v197.65Z"/>
      </g>
      <g>
        <rect class="cls-1" x="680.52" y="451.9" width="9.09" height="198.91"/>
        <path class="cls-8" d="m690.24,651.45h-10.36v-200.18h10.36v200.18Zm-9.09-1.27h7.82v-197.65h-7.82v197.65Z"/>
      </g>
    </g>
    <rect x="578.81" y="439.15" width="52.09" height="2"/>
    <g>
      <path class="cls-1" d="m494.86,197.22l-.03.03c3.48-5.74,5.49-12.48,5.49-19.69,0-21-17.02-38.02-38.02-38.02s-38.02,17.02-38.02,38.02,17.02,38.02,38.02,38.02c7.16,0,13.85-1.98,19.56-5.42,2.97,1.26,18.1,6.97,18.1,6.97l-5.11-19.92Z"/>
      <path d="m499.97,217.77c-.08,0-.15-.01-.22-.04-.6-.23-14.32-5.41-17.83-6.86-5.92,3.5-12.7,5.34-19.61,5.34-21.31,0-38.65-17.34-38.65-38.65s17.34-38.65,38.65-38.65,38.65,17.34,38.65,38.65c0,6.97-1.87,13.78-5.41,19.74l5.05,19.68c.06.23-.01.47-.19.63-.12.11-.27.16-.42.16Zm-18.11-8.24c.08,0,.17.02.25.05,2.45,1.04,13.36,5.18,16.94,6.53l-4.74-18.5c-.14-.2-.16-.47-.02-.69,3.53-5.82,5.4-12.51,5.4-19.36,0-20.61-16.77-37.38-37.38-37.38s-37.38,16.77-37.38,37.38,16.77,37.38,37.38,37.38c6.79,0,13.44-1.84,19.24-5.33.1-.06.21-.09.33-.09Z"/>
    </g>
    <text class="cls-12" transform="translate(433.38 187.04)"><tspan class="cls-10" x="0" y="0">P</tspan><tspan class="cls-9" x="15.28" y="0">r</tspan><tspan class="cls-4" x="25.07" y="0">i</tspan><tspan class="cls-14" x="32" y="0">n</tspan><tspan class="cls-4" x="48.31" y="0">t</tspan></text>
    <g>
      <rect class="cls-1" x="374.34" y="435.38" width="85.21" height="4.85" rx="1.41" ry="1.41"/>
      <path class="cls-13" d="m457.76,440.87h-81.64c-1.33,0-2.42-1.09-2.42-2.42v-1.28c0-1.33,1.09-2.42,2.42-2.42h81.64c1.33,0,2.42,1.09,2.42,2.42v1.28c0,1.33-1.09,2.42-2.42,2.42Zm-81.64-4.85c-.64,0-1.15.52-1.15,1.15v1.28c0,.64.52,1.15,1.15,1.15h81.64c.64,0,1.15-.52,1.15-1.15v-1.28c0-.64-.52-1.15-1.15-1.15h-81.64Z"/>
    </g>
    <g>
      <rect class="cls-1" x="376.3" y="430.53" width="85.21" height="4.85" rx="1.41" ry="1.41"/>
      <path class="cls-13" d="m459.73,436.02h-81.64c-1.33,0-2.42-1.09-2.42-2.42v-1.28c0-1.33,1.09-2.42,2.42-2.42h81.64c1.33,0,2.42,1.09,2.42,2.42v1.28c0,1.33-1.09,2.42-2.42,2.42Zm-81.64-4.85c-.64,0-1.15.52-1.15,1.15v1.28c0,.64.52,1.15,1.15,1.15h81.64c.64,0,1.15-.52,1.15-1.15v-1.28c0-.64-.52-1.15-1.15-1.15h-81.64Z"/>
    </g>
    <g>
      <rect class="cls-1" x="374.34" y="425.68" width="85.21" height="4.85" rx="1.41" ry="1.41"/>
      <path class="cls-13" d="m457.76,431.17h-81.64c-1.33,0-2.42-1.09-2.42-2.42v-1.28c0-1.33,1.09-2.42,2.42-2.42h81.64c1.33,0,2.42,1.09,2.42,2.42v1.28c0,1.34-1.09,2.42-2.42,2.42Zm-81.64-4.85c-.64,0-1.15.52-1.15,1.15v1.28c0,.64.52,1.16,1.15,1.16h81.64c.64,0,1.15-.52,1.15-1.16v-1.28c0-.64-.52-1.15-1.15-1.15h-81.64Z"/>
    </g>
    <g>
      <rect class="cls-1" x="376.3" y="420.83" width="85.21" height="4.85" rx="1.41" ry="1.41"/>
      <path class="cls-13" d="m459.73,426.32h-81.64c-1.33,0-2.42-1.09-2.42-2.42v-1.28c0-1.33,1.09-2.42,2.42-2.42h81.64c1.33,0,2.42,1.09,2.42,2.42v1.28c0,1.33-1.09,2.42-2.42,2.42Zm-81.64-4.85c-.64,0-1.15.52-1.15,1.15v1.28c0,.64.52,1.15,1.15,1.15h81.64c.64,0,1.15-.52,1.15-1.15v-1.28c0-.64-.52-1.15-1.15-1.15h-81.64Z"/>
    </g>
    <g>
      <rect class="cls-1" x="374.34" y="415.98" width="85.21" height="4.85" rx="1.41" ry="1.41"/>
      <path class="cls-13" d="m457.76,421.47h-81.64c-1.33,0-2.42-1.09-2.42-2.42v-1.28c0-1.33,1.09-2.42,2.42-2.42h81.64c1.33,0,2.42,1.09,2.42,2.42v1.28c0,1.33-1.09,2.42-2.42,2.42Zm-81.64-4.85c-.64,0-1.15.52-1.15,1.15v1.28c0,.64.52,1.15,1.15,1.15h81.64c.64,0,1.15-.52,1.15-1.15v-1.28c0-.64-.52-1.15-1.15-1.15h-81.64Z"/>
    </g>
    <g>
      <rect class="cls-1" x="375.65" y="411.13" width="85.21" height="4.85" rx="1.41" ry="1.41"/>
      <path class="cls-13" d="m459.07,416.62h-81.64c-1.33,0-2.42-1.09-2.42-2.42v-1.28c0-1.33,1.09-2.42,2.42-2.42h81.64c1.33,0,2.42,1.09,2.42,2.42v1.28c0,1.33-1.09,2.42-2.42,2.42Zm-81.64-4.85c-.64,0-1.15.52-1.15,1.15v1.28c0,.64.52,1.15,1.15,1.15h81.64c.64,0,1.15-.52,1.15-1.15v-1.28c0-.64-.52-1.15-1.15-1.15h-81.64Z"/>
    </g>
    <g>
      <rect class="cls-1" x="377.09" y="406.28" width="85.21" height="4.85" rx="1.41" ry="1.41"/>
      <path class="cls-13" d="m460.51,411.76h-81.64c-1.33,0-2.42-1.09-2.42-2.42v-1.28c0-1.33,1.09-2.42,2.42-2.42h81.64c1.33,0,2.42,1.09,2.42,2.42v1.28c0,1.33-1.09,2.42-2.42,2.42Zm-81.64-4.85c-.64,0-1.15.52-1.15,1.15v1.28c0,.64.52,1.15,1.15,1.15h81.64c.64,0,1.15-.52,1.15-1.15v-1.28c0-.64-.52-1.15-1.15-1.15h-81.64Z"/>
    </g>
    <g>
      <rect class="cls-1" x="375.12" y="401.43" width="85.21" height="4.85" rx="1.41" ry="1.41"/>
      <path class="cls-13" d="m458.55,406.91h-81.64c-1.33,0-2.42-1.09-2.42-2.42v-1.28c0-1.33,1.09-2.42,2.42-2.42h81.64c1.33,0,2.42,1.09,2.42,2.42v1.28c0,1.33-1.09,2.42-2.42,2.42Zm-81.64-4.85c-.64,0-1.15.52-1.15,1.15v1.28c0,.64.52,1.15,1.15,1.15h81.64c.64,0,1.15-.52,1.15-1.15v-1.28c0-.64-.52-1.15-1.15-1.15h-81.64Z"/>
    </g>
    <g>
      <polygon class="cls-11" points="377.01 406.48 371.21 411.19 392.19 406.34 377.01 406.48"/>
      <path class="cls-13" d="m371.21,411.82c-.24,0-.46-.13-.57-.36-.13-.26-.06-.58.17-.77l5.8-4.71c.11-.09.25-.14.39-.14l15.18-.14h0c.32,0,.59.24.63.56.04.32-.17.62-.49.69l-20.98,4.85s-.1.02-.14.02Zm6.03-4.71l-3.51,2.85,12.68-2.93-9.17.08Z"/>
    </g>
    <g>
      <polygon class="cls-11" points="458.31 425.82 464.12 430.53 443.14 425.68 458.31 425.82"/>
      <path class="cls-13" d="m464.12,431.17s-.1,0-.14-.02l-20.98-4.85c-.32-.07-.52-.37-.49-.69.04-.32.33-.61.63-.56l15.18.14c.14,0,.28.05.39.14l5.8,4.71c.23.19.3.5.17.77-.11.22-.33.36-.57.36Zm-15.2-4.8l12.68,2.93-3.51-2.85-9.17-.08Z"/>
    </g>
  </g>
  <rect class="cls-3" x="13.82" y="138.92" width="83.16" height="83.16"/>
  <circle class="cls-11" cx="96.98" cy="222.07" r="29.11"/>
  <circle class="cls-11" cx="718.4" cy="132.95" r="39.91"/>
  <g>
    <line class="cls-7" x1="115.83" y1="150.41" x2="121.83" y2="150.41"/>
    <line class="cls-5" x1="133.33" y1="150.41" x2="265.64" y2="150.41"/>
    <line class="cls-7" x1="271.39" y1="150.41" x2="277.39" y2="150.41"/>
  </g>
  <g>
    <g>
      <path class="cls-1" d="m260.39,391.28c-2.05,1.32-3.54,3.03-4.48,5.21-.33.09-.66.19-.99.28-1.74.47-3.5.87-5.27,1.2-1.88.36-2.9.49-3.86.58-1.8.16-3.59.27-5.4.33-2.83.09-5.59,1.44-7.43,3.55-2.34-3.56-5.98-7.78-10.17-10.2.55-.54,1.22-1.47,1.47-1.79,26.62-32.92,39.08-83.9,35.78-125.73-.18-2.33-.5-4.71-.87-7.01l-5.11-2.91c3.63,23.18.81,47.15-5.25,69.67-6.21,23.07-16.4,45.89-30.65,65.06l1.8,1.41c-.69-.24-1.39-.42-2.09-.54-1.19-1.5-2.62-2.83-4.27-3.95-2.82-1.92-6.07-3.05-9.18-4.39-3.08-1.33-5.87-3.38-9.05-4.46-2.47-.84-4.8-.73-5.97,1.4-1.31.32-2.55.89-3.63,1.72-1.42,1.1-2.58,2.76-3.25,4.6-2.67-1.42-5.89,1.98-3.43,4.4,2.44,2.4,4.82,4.86,7.13,7.37,4.26,5.73,8.46,11.52,12.57,17.36-.14-.05-.28-.1-.43-.14-7.5-2.35-15.65-1.84-23.01-4.64-3.75-1.43-7.12-3.7-10.93-5.01-3.54-1.21-7.31-1.42-11.02-1.62-3.37-.18-6.89-.26-10.07-1.54,0-.13.01-.27,0-.4-.23-5.22-4.23-9.64-9.64-9.64-5.04,0-9.87,4.43-9.64,9.64.23,5.22,4.23,9.64,9.64,9.64,2.68,0,5.3-1.26,7.13-3.23,4.37,2,8.95,3.52,13.66,4.49,4.24.87,8.61.96,12.82,1.94,4.24,1,7.59,3.86,11.67,5.29,3.94,1.38,8.16,1.48,12.26,2.13,4.06.64,8.08,1.8,11.83,3.51,1.58.73,3.13,1.54,4.63,2.44.02.03.04.06.07.09,1.59,2.34,3.78,3.96,6.37,4.5.61.46,1.27,1,1.45,1.44.26.65-.13,1.63-.25,2.3-.41,2.16-.89,4.3-1.45,6.42-1.13,4.29-2.54,8.51-4.27,12.59-.79,1.87-1.62,3.75-2.59,5.54-1.24,2.31-3.27,1.67-5.54,1.38-4.71-.6-9.39-1.57-13.97-2.82-3.14-.86-7.28-3.12-10.42-1.38-2.25-1.48-5.04-2.56-7.02-3.63-3.21-1.73-6.07,3.16-2.86,4.89,1.86,1,3.7,2.02,5.54,3.05.32.18.97.46,1.54.76,0,1.33.34,2.7.88,3.92.11.24.21.49.32.73,0,3.45-.31,6.91-1,10.29-.82,4.02-2.35,7.69-3.63,11.56-1.18,3.58-.5,7.36-1.61,10.93-1.16,3.74-3.37,7.32-5.26,10.73-.32.57-.65,1.12-.98,1.67-2.71,2.19-5.58,4.19-8.12,6.57-2.79,2.61-5.13,5.71-6.37,9.35-1.21,3.56-1.26,7.35-.96,11.08-2.13,3.68-8.22,5.02-8.65,10-.26,3.09-.23,6.1-.88,9.16-.3,1.4-.58,3.01-1.17,4.33-.64,1.42-1.84,2.08-2.88,3.18-1.49,1.57-3.52,3.93-4.78,6.44-.12-.02-.24-.04-.36-.06-1.17-.22-1.76-.94-2.79-1.38-4.87-2.05-7.71,6.54-9.01,9.76-.57,1.42.63,3.12,1.98,3.49.54.15,1.4,1.63,1.82,2.02.8.75,1.72,1.4,2.62,2.02,1.23.84,2.17,1.3,3.29,1.51,0,.04,0,.07.01.12-.01.34-.03.69-.04,1.03l-4.45-2.72-3.64,5.85,22.41,16.4,4.75-7.88-7.37-4.5c.18.05.35.1.53.15,4.01,1.18,7.69,3.02,10.93,5.68,1.85,1.52,4.79.61,4.84-2,.04-2.07,1.21-3.64,3.2-4.24,1.73-.52,2.66-2.56,1.69-4.16-1.1-1.83-3.17-1.85-4.32-3.51-1.43-2.06-2.89-4.04-4.73-5.77-1.83-1.71-3.91-3.22-6.12-4.39-2.22-1.18-4.66-1.9-6.69-3.42-.95-.71-1.83-1.47-2.79-2.12.18-.3.36-.59.54-.88.84-1.32,1.72-2.65,2.85-3.75.95-.93,1.98-1.63,2.74-2.76.82-1.21,1.36-2.63,1.77-4.08,1.55.82,3.9.42,4.21-1.62.38-2.5.9-5.03,2.09-7.29,1.09-2.06,2.74-3.55,4.3-5.23,3.12-3.36,4.11-7.62,6.75-11.25,1.72-2.36-1.08-4.64-3.36-3.97.12-.37.23-.73.35-1.1,1.45-4.39,4.1-7.56,6.83-11.21,1.36-1.82,2.58-3.73,3.73-5.68,3.6-3.11,6.95-6.41,9.71-10.56,4.47-6.71,7.1-14.65,7.21-22.74.05-4.23-.57-8.58-1.97-12.58-.38-1.1-.85-2.16-1.33-3.21,0-1.31-.08-2.6-.36-3.77.76.27,1.67.65,1.9.72,4.61,1.42,9.33,2.52,14.09,3.29,3.64.59,8.55,2.02,11.91-.06,3.2-1.98,4.64-6.77,6.01-10.05,1.7-4.05,3.14-8.2,4.28-12.44.57-2.12,1.06-4.26,1.48-6.41.23-1.19.57-2.5.64-3.79.33-.06.65-.17.95-.34.59-.38,1.17-.98,1.3-1.69.15-.8.14-.92.01-1.71-.05-.31-.22-.63-.35-.9-.05-.09-.11-.19-.17-.28.93-1.08,1.68-2.37,2.29-3.83.04-.09.07-.17.11-.26,1.61-.31,3.11-.76,4.47-1.41-.09.21-.18.43-.27.64-.87,2.17-.15,5.5.97,7.42,1.17,2,3.46,3.9,5.76,4.43,2.47.56,5.24.44,7.42-.97,1.12-.72,1.98-1.55,2.69-2.51.3-.14.6-.28.9-.43,1.44-.69,2.83-1.66,3.95-2.78,2.63-2.63,3.69-6.09,4.53-9.6.26-1.09.32-2.23.21-3.35,1.49-.32,2.96-.67,4.42-1.07,3.39-.94,6.66-2.08,9.37-4.4,1.11-.95,2.04-2.14,2.77-3.4.11-.18.2-.36.29-.53,2.43-2.37,3.7-5.85,2.6-9.34-1.91-6.04-9.37-10.01-15.2-6.25Zm-84.83,105.5c.11-1.81.05-3.63.52-5.4.55-2.08,1.52-4.04,2.2-6.08.27-.81.52-1.63.75-2.45-.19,4.83-1.41,9.55-3.46,13.93Zm71.48-65.06c.48-.77.88-1.61,1.26-2.54-.22,1.01-.64,1.86-1.26,2.54Z"/>
      <path class="cls-1" d="m289.2,337.18c-.03-4.41-1.2-9.13-1.96-13.4-1.42-7.94-2.7-15.93-5.11-23.65-1.5-4.8-6.78-8.37-11.85-6.73-4.83,1.56-8.34,6.7-6.73,11.85,2.02,6.48,3.23,13.14,4.42,19.81.62,3.48,1.24,6.96,1.87,10.44,0,.04.02.14.05.28-.41.55-.75,1.09-.96,1.51-1.54,2.95-1.95,6.81,0,9.73,2.72,4.06,6.48,4.95,10.88,6.19,4.85,1.37,10.7-1.68,11.85-6.73.78-3.42-.18-6.91-2.45-9.28Z"/>
      <path class="cls-1" d="m146.64,626.64c.03-.33.03-.66.02-.99-.23-5.22-4.23-9.64-9.64-9.64-5.04,0-9.87,4.43-9.64,9.64.16,3.64,2.16,6.88,5.18,8.52-.03.33-.03.66-.02.99.23,5.22,4.23,9.64,9.64,9.64,5.04,0,9.87-4.43,9.64-9.64-.16-3.64-2.16-6.88-5.18-8.52Z"/>
      <path class="cls-1" d="m294.46,629.61c-.64,0-1.27.07-1.89.21-1.35-3.74-4.74-6.5-9.01-6.5-5.04,0-9.87,4.43-9.64,9.64.23,5.22,4.23,9.64,9.64,9.64.64,0,1.27-.07,1.89-.21,1.35,3.74,4.74,6.5,9.01,6.5,5.04,0,9.87-4.43,9.64-9.64-.23-5.22-4.23-9.64-9.64-9.64Z"/>
    </g>
    <path class="cls-1" d="m262.76,215.6c.4-1.12.46-2.31.3-3.47-.08-.6-.24-1.16-.55-1.66-.01-.51-.11-.97-.45-1.05h-.59c-.75-.47-1.59-.52-2.52-.36-.31.05-.59.18-.84.35h-.33c-.69-.59-.37-1.77.5-1.93,1.13-.21,2.75.15,3.94,0l-.55-5.71c-4.07.69-8.27.21-12.28-.63-6.68-1.4-14.94-5.97-15.73,4.56-.32,4.27,1.78,10.68-4.34,11.02.55-1.59-.69-2.77-1.92-3.65-5.14-3.68-8.79,1.27-7.48,6.39.68,2.66,3.83,6.37,6.69,6.63l.26.56c-.07,8.06-1.21,16.08-1.02,24.14,3.53,4.58,9.41,10.23,15.7,7.95,3.42-1.24,5.66-4.93,6.01-8.4-3.77-1.26-8.82-3.52-11.01-6.98-1.22-1.92-1.74-4.03,1.3-3.49,6.11,1.1,8.83,3.78,15.47,1.8,9.06-2.71,10.16-16.35,9.73-24.26-.03-.58-.19-1.18-.28-1.8Zm-35.9,4.81c-.69-.97-1.06-2.42-1.9-3.27-.41-.42-4.16-1.94-2.26-2.55,2.06-.65,5.18,3.01,5.43,4.85.1.76-.62,1.38-1.26.97Zm14.84-13.19c1.3-.25,5.87-.15,7.35-.02.43.04,1.1.04,1.42.35.9.87-.07,1.72-1.15,1.84-1.16.12-7.52.14-8.14-.29-.86-.6-.42-1.69.53-1.87Zm4.68,3.57c2.46-.67,3.22,4.42.69,4.81-2.28.35-2.79-4.24-.69-4.81Zm8.75,19.24c-2.28,1.87-9.09-3.47-7.73-5.42.82-1.17,1.8,1.22,2.18,1.65.54.62,1.5,1.5,2.23,1.85,1.42.68,3.74.11,3.33,1.92Zm3.44-6.21c-.84.48-4.39.59-4.52-.7-.21-2.06,3.42-.17,3.8-1.39.13-.41-.43-2.33-.6-2.88-.37-1.17-2.52-4.32-.82-4.8.29-.08.56,0,.81.2-.48,1.31.5,2.96,1.79,3.39.05.15.09.28.12.39.52,1.71,1.35,4.68-.59,5.78Z"/>
    <path d="m414.37,281.15l-37.95-7.23-.66.45-4.83,21.14c-9.16,1.67-16.32,7.21-22.96,13.36-2.34-1.73-4.91-1.09-7.5-.44-10.36,2.6-26.11,12.37-35.9,10.72-3.81-.64-3.78-1.4-5.52-4.54-7.61-13.71-13.23-30.33-21.94-43.32-6.39-9.55-17.29-16.4-27.92-20.34l.09-6.51c1.74-.67,3.65-.76,5.39-1.41,6.32-2.33,8.95-9.71,9.68-15.88,1-8.5-.33-17.04-1.07-25.5,6.93-2,2.33-9.63-1.36-12.51-16.25-12.64-42.43-3.21-42.42,18.19,0,.95.68,3.61.52,4.3-.06.28-1.29,1.86-1.6,2.76-1.83,5.43,1.74,11.09,6.83,13.09l-1.1,20.23c-15.13-.54-29.77,2.42-42.56,10.6-15.45,9.88-25.29,23.62-33.9,39.52-9.63,17.77-15.96,34.82-5.71,54.2,1.69,3.19,3.93,6.02,5.7,9.15-2.78,4.15-5.38,8.46-7.06,13.19-1.86.18-3.88.25-5.58,1.08-5.67,2.78-7.13,15.54-9.87,20.84l83.75,24.34c-1.78-7.03-9.11-9.71-14.26-13.88-4.35-3.52-7.54-7.59-9.9-12.68l15.82-13.1c8.14,5.24,19.67,9.77,25.15,18.1,2.08,3.16,5.45,10.92,5.51,14.63.02,1.09-.36,3.18-1.66,1.91-1.14-1.1-3.5-6.64-4.57-8.49-.6-1.03-3.92-6.63-4.59-6.83-.37-.12-.79-.05-1.17-.05-.07.56.02,1.03.21,1.56.65,1.83,2.99,4.9,4.01,6.86,1.62,3.1,5.56,10.45,3.24,13.58-.53.72-2,1.58-2.8,1.07-.24-.15-1.19-4.64-1.46-5.47-.68-2.06-5.76-12.76-7.29-13.4-.81-.34-1.21.27-1.07,1.07.19,1.07,2.45,4.05,3.12,5.32,1.56,2.93,4.63,9.19,4.5,12.38-.07,1.69-1.38,3.96-3.36,3.35-1.41-.44-2.06-5.58-2.5-7.02-.89-2.93-3.01-8.51-5.03-10.74-.47-.52-1.29-1.25-2.01-.71-1.09.82,2.31,5.94,2.79,6.99.83,1.8,1.63,3.8,2.19,5.7.29.97,1.67,5.67.86,6.25-1.96.65-2.68-1.38-3.84-2.45l-86.71-25.16c-2.73,9.43-7.01,19.61-7.63,29.49-.53,8.55,3.06,11.36,10.67,13.8,22.51,7.23,47.04,13.75,70.04,19.43,3.6.89,5.27,1.77,8.95.13,2.53-1.13,4.73-3.5,6.12-5.85l7.16-26.83c.63-1.87,3.25-1.28,3.12.64-2.78,8.1-3.95,17.59-6.85,25.54-2.21,6.06-8.03,11.11-14.76,10.53l-21.35-5.71-4.2,34.55-41.74,82.08c8.76,5.36,17.99,10.1,25.97,16.61l-7.22,10.22-.37.1-34.4-21.81,5.4-10.67c1.26-.8,6.31,3.14,7.71,3.74.28.12.3.39.58-.05l41.35-81.56,4.13-33.61-11.06-3.1c-1.28,12.54-2.09,25.22-6.14,37.23l-34.97,74.89c-.8,1.06-1.74-.75-3.08,1-1.5,1.96-4.66,8.26-5.64,10.68-.31.77-1.1,2.18-.64,2.91.2.32,4.01,2.31,4.75,2.87.23.17.56.33.45.67-5.08,9.39-13.28,16.67-19.15,25.46-1.24,1.86-4.33,6.21-2.36,8.24l39.64,31.88,1.14.22c7.97-.58,16.92.73,24.77,0,5.88-.55,2.12-9.16-.56-11.7-2.35-2.23-6.19-3.16-8.82-5.05-1.51-1.08-2.68-2.66-3.71-4.18-1.91.23-5.11,5.1-6.76,2.96-1.8-2.34,4.73-5.14,4.99-6.15.17-.68-2.85-5.4-3.23-6.5-2.03-.31-6.46,3.84-7.8,3.9-1.14.05-1.7-1.17-1.39-2.19.44-1.44,5.71-4.26,7.29-4.82-.57-1.88-2.16-4.65-1.89-6.64.33-2.42,3.83-6.37,4.63-8.85.71-.5,4.68,3.46,5.97,2.57,2.42-3.65,5.56-6.95,7.72-10.77.42-.73,1.19-1.65.99-2.5-.76-.8-2.58-1.05-1.51-2.37l50.55-84.59c8.97-23.75,14.87-48.41,20.36-73.18.31-.79,7.54-5.85,8.82-6.68,1.54-1.01,3.29-2.61,3.85.3l-.5.88-9.54,7.04-8.38,35.4,19.01,123.97c-1.28.24-3.1-.14-3.28,1.62.79,4.52.81,9.63,1.73,14.08.12.56.2,1.17.88,1.29,1.69.29,4.07-.21,5.85,0l-.56,40.39c-.03.86.61,1.17,1.35,1.36l70.6-.14c.44.01.94-.02,1.23-.4.14-.17.78-3.95.74-4.31-.07-.53-1.78-4.35-2.18-4.92-3.9-5.61-14.79-7.75-20.49-11.27-1.03.08-2.91,5.92-3.53,6.46-.51.45-1.44.36-2.05.14-1.86-1.1,1.67-6.95,2.45-8.29l-7-4.04c-.62-.15-2.96,2.34-3.47,2.95-.85,1.02-2.35,4.06-3.53,4.06-.49,0-1.3-.52-1.45-.99-.64-2.1,3.6-6.66,5.11-8.1l-5.43-4.35v-9.38h5.03c.61,0,.96-.93.95-1.49-.09-4.85-.97-9.8-1.11-14.67l-.52-.83-1.62-.15-8.44-192.77c-10.34,2.38-20.8,4.37-31.41,5.19-1.55-.06-1.76-2.14-.19-2.39,11.83-1.64,23.73-3.26,35.16-6.77l-4.05-95.91c.83-1.18,2.28-.85,2.67.5.8,15.45,1.54,30.81,2.46,46.21.12,2.05-.22,4.12.4,6.13,6.46,4.11,13.77,6.38,21.49,5.99,7.22-.36,13.9-2.52,20.43-5.4,7.84-3.45,16.15-7.44,23.84-11.23,3.18-1.57,6.36-3.18,9.4-5.01,1.26-1.33-.09-2.48.02-2.56,4.22-.49,8.47-1.08,12.43-2.66,10.95,2.4,22.49,3.63,33.37,6.21.62.15.97.83,1.79.41l11.06-57.08-.32-.72Zm-271.53,93.54c1.41-4.28,3.81-8.13,6.12-11.96l4.48,5.56-3.71,7.46-6.89-1.06Zm9.24,1.63l2.72-6.52,8.97,9.51-11.69-2.99Zm-11.14,270.14l23.75.45.31.23.37,3.51c-.66.18-1.31.28-2,.31-7.92.45-16.38-.24-24.34-.15l-38.58-31.6c-.24-.6,1.47-3.82,1.73-3.88l38.75,31.13Zm.14-36.03l-22.41-16.4,3.64-5.85,23.53,14.38-4.75,7.88Zm179.87,37.26l-.53,2.59c-22.74.78-45.61.23-68.41.41l-.82-.27.31-3.29,69.46.55Zm-69.07-28.55v-8.43l27.46-.54v8.97h-27.46Zm32.63-23.93l.81,12.78-40.28.66-1.6-12.35,41.06-1.09Zm-64.6-375.76c-1.31-5.12,2.33-10.07,7.48-6.39,1.23.88,2.48,2.06,1.92,3.65,6.12-.34,4.02-6.75,4.34-11.02.79-10.53,9.05-5.96,15.73-4.56,4.02.84,8.22,1.31,12.28.63l.55,5.71c-1.2.15-2.81-.21-3.94,0-.87.16-1.19,1.33-.5,1.93h4.28c.7.17.37,1.86.43,2.42-.03,0-.04,0-.06,0,.1.3.14.63.12.95.03.19.03.39.02.58.08.31.11.63.07.95.04-.01.07-.03.12-.03-.21,1.08.22,2.15.27,3.13.43,7.9-.67,21.55-9.73,24.26-6.64,1.99-9.36-.7-15.47-1.8-3.03-.55-2.52,1.57-1.3,3.49,2.2,3.46,7.24,5.72,11.01,6.98-.34,3.47-2.59,7.15-6.01,8.4-6.29,2.29-12.17-3.37-15.7-7.95-.19-8.05.96-16.08,1.02-24.14l-.26-.56c-2.86-.26-6.01-3.97-6.69-6.63Zm-18.6,155.37c-5.34-5.79-12.06-14.88-16.66-21.41-3.79-5.39-9.86-14.16-9.11-20.92.72-6.55,10.71-22.6,15.28-27.68.86-.95,3.13-3.68,4.42-2.38,1.23,1.23-.85,2.48-1.56,3.34-4.33,5.26-14.53,20.83-15.16,27.26-.44,4.57,3,10.03,5.36,13.8,6.03,9.63,13.98,18.26,20.8,27.33.28,3.57-1.71,2.47-3.38.66Zm22.94,15.61c-.37.46-1.65,2.27-2.11,2.18l-3.97-3.11c14.24-19.17,24.44-41.99,30.65-65.06,6.06-22.52,8.87-46.49,5.25-69.67l5.11,2.91c.38,2.31.69,4.68.87,7.01,3.3,41.82-9.17,92.8-35.78,125.73Zm131.14-57.37l-6.3-22.55c6.13-5.43,12.98-11.3,21.36-12.5l-1.42,5.92c-1.14.42-5.79.41-5.94,1.83-.11,1.04.69.99,1.5.95,4.3-.23,8.17-1.46,12.79-1.09,1.04.09,5.2.66,4.91,2.19-.82,4.24-8.02,3.91-11.12,4.36-3.92.58-3.05,1.58-4.95,4.29-1.27,1.82-2.64,3.04-4.55,4.15-.69.4-1.96.64-2.44,1.02-.43.35-.71,1.45-.21,1.8,1.42.98,6.2-2.64,7.35-3.69.32.42-2.51,8.76-2.66,10.28-.07.67.05,1.06.22,1.69l-8.53,1.34Zm46.89,3.18l-36.19-6.41,4.14-15.32,6.87-.75,22.32,3.84c1.05.24,2.03-.99,1.21-1.79-1.07-1.04-16.71-2.7-19.31-3.39,8.94-8.23-3.84-9.8-10.06-8.7l5.98-27.46,35.07,6.53-10.04,53.45Z"/>
    <path class="cls-11" d="m412.32,282.8l-10.04,53.45-36.19-6.41,4.14-15.32,6.87-.75,22.32,3.84c1.05.24,2.03-.99,1.21-1.79-1.07-1.04-16.71-2.7-19.31-3.39,8.94-8.23-3.84-9.8-10.06-8.7l5.98-27.46,35.07,6.53Zm-32.83,3.32c-.73.7.08,1.67.9,1.82,7.69.82,16.08,3.68,23.67,4.34.52.05,1.04.12,1.55-.01,1.11-.69.55-1.81-.57-2.06l-24.18-4.4c-.43-.04-1.07.02-1.39.32Zm-1.91,7.48c.22.21,1.14.45,1.51.53,7.92,1.94,16.48,2.74,24.45,4.61.98,0,1.59-.89.92-1.71l-25.8-5.2c-1.1-.28-1.78,1.08-1.08,1.77Zm-.71,4.73c-1.02.8-.44,2.02.86,2.05l23.89,4.42.8-.23c.91-.99.18-1.91-1.02-2.02-7.44-.8-15.62-3.64-22.97-4.22-.52-.04-1.04-.12-1.56,0Zm24.23,11.17c-.95-.89-11.68-1.76-13.68-2.51-2.06-.38-2.94,1.45-.74,2.11,3.9,1.17,9.23,1.1,13.27,2.25,1.09.33,1.86-1.18,1.14-1.85Zm-6.81,12.51c-1.13.21-2.7,1.46-3.25,2.46-2.53,4.6,2.76,9.68,7.11,6.84,4.73-3.08,1.87-10.37-3.87-9.3Z"/>
    <polygon class="cls-1" points="284.52 595.21 285.34 607.99 245.06 608.65 243.46 596.3 284.52 595.21"/>
    <path class="cls-1" d="m370.45,298.02l-1.42,5.92c-1.14.42-5.79.41-5.94,1.83-.11,1.04.69.99,1.5.95,4.3-.23,8.17-1.46,12.79-1.09,1.04.09,5.2.66,4.91,2.19-.82,4.24-8.02,3.91-11.12,4.36-3.92.58-3.05,1.58-4.95,4.29-1.27,1.82-2.64,3.04-4.55,4.15-.69.4-1.96.64-2.44,1.02-.43.35-.71,1.45-.21,1.8,1.42.98,6.2-2.64,7.35-3.69.32.42-2.51,8.76-2.66,10.28-.07.67.05,1.06.22,1.69l-8.53,1.34-6.3-22.55c6.13-5.43,12.98-11.3,21.36-12.5Z"/>
    <path class="cls-1" d="m165.39,650.65c-.66.18-1.31.28-2,.31-7.92.45-16.38-.24-24.34-.15l-38.58-31.6c-.24-.6,1.47-3.82,1.73-3.88l38.75,31.13,23.75.45.31.23.37,3.51Z"/>
    <path class="cls-1" d="m195.26,302.43c1.23,1.23-.85,2.48-1.56,3.34-4.33,5.26-14.53,20.83-15.16,27.26-.44,4.57,3,10.03,5.36,13.8,6.03,9.63,13.98,18.26,20.8,27.33.28,3.57-1.71,2.47-3.38.66-5.34-5.79-12.06-14.88-16.66-21.41-3.79-5.39-9.86-14.16-9.11-20.92s10.71-22.6,15.28-27.68c.86-.95,3.13-3.68,4.42-2.38Z"/>
    <polygon class="cls-1" points="279.35 610.17 279.35 619.14 251.89 619.14 251.89 610.71 279.35 610.17"/>
    <path class="cls-1" d="m320.96,647.69l-.53,2.59c-22.74.78-45.61.23-68.41.41l-.82-.27.31-3.29,69.46.55Z"/>
    <path class="cls-1" d="m142.85,374.69c1.41-4.28,3.81-8.13,6.12-11.96l4.48,5.56-3.71,7.46-6.89-1.06Z"/>
    <path d="m256.43,214.03c1.35-.38,2.38,2.88,2.72,3.98.52,1.71,1.35,4.68-.59,5.78-.84.48-4.39.59-4.52-.7-.21-2.06,3.42-.17,3.8-1.39.13-.41-.43-2.33-.6-2.88-.37-1.17-2.52-4.32-.82-4.8Z"/>
    <path d="m250.46,207.54c.9.87-.07,1.72-1.15,1.84-1.16.12-7.52.14-8.14-.29-.86-.6-.42-1.69.53-1.87,1.3-.25,5.87-.15,7.35-.02.43.04,1.1.04,1.42.35Z"/>
    <path d="m255.12,230.01c-2.28,1.87-9.09-3.47-7.73-5.42.82-1.17,1.8,1.22,2.18,1.65.54.62,1.5,1.5,2.23,1.85,1.42.68,3.74.11,3.33,1.92Z"/>
    <path d="m246.37,210.77c2.46-.67,3.22,4.42.69,4.81-2.28.35-2.79-4.24-.69-4.81Z"/>
    <path d="m259.73,210.77c2.46-.67,3.22,4.42.69,4.81-2.28.35-2.79-4.24-.69-4.81Z"/>
    <path d="m222.7,214.58c2.06-.65,5.18,3.01,5.43,4.85.1.76-.62,1.38-1.26.97-.69-.97-1.06-2.42-1.9-3.27-.41-.42-4.16-1.94-2.26-2.55Z"/>
    <path d="m377.58,293.6c-.71-.69-.02-2.05,1.08-1.77l25.8,5.2c.67.82.06,1.72-.92,1.71-7.97-1.87-16.54-2.68-24.45-4.61-.36-.09-1.29-.32-1.51-.53Z"/>
    <path d="m379.49,286.12c.31-.3.96-.36,1.39-.32l24.18,4.4c1.12.26,1.68,1.38.57,2.06-.52.13-1.03.06-1.55.01-7.59-.66-15.98-3.52-23.67-4.34-.82-.15-1.63-1.12-.9-1.82Z"/>
    <path d="m376.88,298.33c.52-.12,1.04-.05,1.56,0,7.35.58,15.53,3.42,22.97,4.22,1.2.11,1.92,1.04,1.02,2.02l-.8.23-23.89-4.42c-1.3-.03-1.88-1.25-.86-2.05Z"/>
    <path d="m394.3,322.01c5.74-1.06,8.6,6.22,3.87,9.3-4.35,2.83-9.64-2.24-7.11-6.84.55-1,2.12-2.25,3.25-2.46Zm.27,2.17c-2.92.67-2.72,5.57.76,5.68,4.55.14,3.9-6.75-.76-5.68Z"/>
    <path d="m401.11,309.5c.72.67-.05,2.18-1.14,1.85-4.04-1.15-9.37-1.08-13.27-2.25-2.2-.66-1.32-2.49.74-2.11,1.99.75,12.72,1.62,13.68,2.51Z"/>
    <path class="cls-1" d="m394.57,324.18c4.66-1.07,5.31,5.82.76,5.68-3.48-.11-3.68-5-.76-5.68Z"/>
    <g>
      <line class="cls-7" x1="66.77" y1="484.47" x2="72.77" y2="484.47"/>
      <line class="cls-6" x1="82.98" y1="484.47" x2="118.7" y2="484.47"/>
      <line class="cls-7" x1="123.8" y1="484.47" x2="129.8" y2="484.47"/>
    </g>
    <g>
      <line class="cls-7" x1="45.76" y1="509.99" x2="51.76" y2="509.99"/>
      <line class="cls-6" x1="61.96" y1="509.99" x2="97.68" y2="509.99"/>
      <line class="cls-7" x1="102.79" y1="509.99" x2="108.79" y2="509.99"/>
    </g>
  </g>
  <g>
    <ellipse class="cls-11" cx="518.85" cy="412.28" rx="10.73" ry="13.1" transform="translate(-94.14 664.12) rotate(-60.81)"/>
    <g>
      <path class="cls-2" d="m518.15,410.84c.7,0,.74-.61.56-1.57l-.05-.29c-.18-.96-.44-1.57-1.14-1.57h-.08c-.7,0-.74.61-.56,1.57l.05.29c.18.96.44,1.57,1.14,1.57h.08Zm-2.73-1.57l-.05-.29c-.36-1.93.25-2.74,1.88-2.74s2.55.81,2.91,2.74l.05.29c.36,1.93-.24,2.74-1.88,2.74s-2.55-.81-2.91-2.74"/>
      <polygon class="cls-2" points="522.87 411.91 521.39 411.91 520.35 406.34 521.83 406.34 522.87 411.91"/>
      <path class="cls-2" d="m514.23,415.98h.75l-.69-1.7-.06,1.7Zm.78-3.27l2.49,5.56h-1.58l-.46-1.13h-1.26l-.03,1.13h-1.59l.41-5.56h2.03Z"/>
      <path class="cls-2" d="m519.48,415.2c.29,0,.61-.1.51-.63v-.06c-.11-.53-.47-.63-.76-.63h-.68l.25,1.31h.68Zm-.1,3.08h-1.48l-1.04-5.56h2.1c1.03,0,2.23.21,2.52,1.75l.03.14c.17.91-.15,1.35-.64,1.57l1.33,2.1h-1.6l-1.15-1.91h-.41l.36,1.91Z"/>
      <polygon class="cls-2" points="525.42 418.28 523.94 418.28 523.12 413.89 521.75 413.89 521.53 412.72 525.74 412.72 525.96 413.89 524.6 413.89 525.42 418.28"/>
      <path class="cls-2" d="m527.25,417.6c.07.39-.21.71-.64.71s-.83-.32-.9-.71.21-.71.64-.71.83.32.9.71"/>
      <polygon class="cls-2" points="514.31 411.91 512.83 411.91 512 407.51 510.64 407.51 510.42 406.34 514.63 406.34 514.85 407.51 513.49 407.51 514.31 411.91"/>
    </g>
  </g>
  <circle class="cls-11" cx="590.36" cy="236.57" r="3.07"/>
  <rect class="cls-3" x="642.75" y="132.95" width="83.16" height="83.16"/>
</svg>