<?xml version="1.0" encoding="UTF-8"?>
<svg id="Layer_1" data-name="Layer 1" xmlns="http://www.w3.org/2000/svg" viewBox="0 0 770.86 746.41">
  <defs>
    <style>
      .cls-1, .cls-2 {
        fill: #fff;
      }

      .cls-3 {
        fill: #040000;
      }

      .cls-2 {
        stroke: #000;
        stroke-miterlimit: 10;
      }

      .cls-4 {
        fill: #66bb46;
      }

      .cls-5 {
        fill: #231f20;
      }
    </style>
  </defs>
  <g>
    <path d="m551.64,288.46l.38.87v-.92c-.13.01-.26.03-.38.04Zm-58.24,3.89c-1.27.8-2.85,1.88-2.9,2.07l1.3,1.31c.51-.29,1.41-.83,2.48-1.38l-.87-1.99Zm-3.16-7.22c-1.63.83-3.33,1.75-2.87,3.81.34.33,1.91-.47,3.9-1.46l-1.03-2.36Zm-3.16-7.21c-2.01,1.38-3.28,2.69-2.31,3.71,1.32-.01,2.29-.74,3.31-1.47l-.99-2.24Zm64.56,10.54l.38.87v-.92c-.13.01-.26.03-.38.04Zm-58.24,3.89c-1.27.8-2.85,1.88-2.9,2.07l1.3,1.31c.51-.29,1.41-.83,2.48-1.38l-.87-1.99Zm-3.16-7.22c-1.63.83-3.33,1.75-2.87,3.81.34.33,1.91-.47,3.9-1.46l-1.03-2.36Zm-3.16-7.21c-2.01,1.38-3.28,2.69-2.31,3.71,1.32-.01,2.29-.74,3.31-1.47l-.99-2.24Zm64.56,10.54l.38.87v-.92c-.13.01-.26.03-.38.04Zm-58.24,3.89c-1.27.8-2.85,1.88-2.9,2.07l1.3,1.31c.51-.29,1.41-.83,2.48-1.38l-.87-1.99Zm-3.16-7.22c-1.63.83-3.33,1.75-2.87,3.81.34.33,1.91-.47,3.9-1.46l-1.03-2.36Zm-3.16-7.21c-2.01,1.38-3.28,2.69-2.31,3.71,1.32-.01,2.29-.74,3.31-1.47l-.99-2.24Zm64.56,10.54l.38.87v-.92c-.13.01-.26.03-.38.04Zm-58.24,3.89c-1.27.8-2.85,1.88-2.9,2.07l1.3,1.31c.51-.29,1.41-.83,2.48-1.38l-.87-1.99Zm-3.16-7.22c-1.63.83-3.33,1.75-2.87,3.81.34.33,1.91-.47,3.9-1.46l-1.03-2.36Zm-3.16-7.21c-2.01,1.38-3.28,2.69-2.31,3.71,1.32-.01,2.29-.74,3.31-1.47l-.99-2.24Zm64.56,10.54l.38.87v-.92c-.13.01-.26.03-.38.04Zm-58.24,3.89c-1.27.8-2.85,1.88-2.9,2.07l1.3,1.31c.51-.29,1.41-.83,2.48-1.38l-.87-1.99Zm-3.16-7.22c-1.63.83-3.33,1.75-2.87,3.81.34.33,1.91-.47,3.9-1.46l-1.03-2.36Zm-3.16-7.21c-2.01,1.38-3.28,2.69-2.31,3.71,1.32-.01,2.29-.74,3.31-1.47l-.99-2.24Zm131.71,308.29h0s40.11-7.34,40.11-7.34l-40.11,7.34Zm21.78,32.88c.63-.31,1.28-.57,1.95-.8-.67.22-1.32.48-1.95.8Zm-2.29,1.49h0c.26-.2.54-.41.82-.61-.28.19-.55.39-.82.61Zm-59.16-337.63l50.06.26h0s-50.06-.26-50.06-.26Zm39.43,300.51c.17-.28.26-.64.19-1.12.06.48-.01.84-.19,1.12Zm-35.9-181.66s.07.06.09.09h0s-.04-.07-.09-.09Zm-8.2,183.6l-42.24-1.31h0s42.22,1.32,42.22,1.32l-1.03,13.8,1.05-13.82Zm-7.91,56.01c-.06,0-.12.01-.16.01l-69.8.52h0s69.8-.51,69.8-.51c.12-.01.2-.03.31-.03h-.15Zm-28.09-40.11h0s27.63.52,27.63.52l-27.63-.52Zm24.29-455.04c1.06-.09,2.11-.25,3.16-.44-1.05.17-2.1.33-3.16.44Zm-10.28,7.82c.19-.06.39-.13.6-.19h0c-.2.04-.41.1-.6.19Zm-.19,12.83c.01-.74.15-2.08.23-3-.12.95-.29,2.36-.23,3Zm-.64,121.56l.38.87v-.92c-.13.01-.26.03-.38.04Zm-12.68,83.11c-.41,14.98-.86,29.98-1.31,44.98.47-15,.92-29.99,1.32-44.98,0-.15,0-.29.01-.45-.01.16-.01.31-.03.45Zm-2.58-61.78h0c.32.04.58.12.8.22-.22-.12-.48-.19-.8-.22Zm-1.03-5.74c-.25.01-.48,0-.73-.01.23.03.48.04.71.03l-.52,3.64.54-3.65Zm-4.94-18.49c-.06.13-.12.28-.15.42-.01.04-.03.09-.03.15.06-.26.15-.51.28-.74-.04.06-.07.12-.1.17Zm-.2,1.95c-.01-.06-.01-.12-.03-.17,0,.06,0,.12.01.17,0,.04.01.07.04.12-.01-.04-.03-.07-.03-.12Zm-.82-39.78c.2.47.45.96.74,1.53-.28-.55-.52-1.06-.74-1.53Zm-1.98,120.44s.07.01.1.03h0s-.07-.03-.1-.03Zm-1.72.54h-12.51s12.51.01,12.51.01c.04,0,.1-.01.17-.06-.07.03-.13.04-.17.04Zm-44.89-125.07c14.79.77,27.69-.51,41.26-.1-13.31-.99-27.74.67-41.26.1Zm31.59,79.7h0c.28.12.55.23.84.32-.29-.1-.57-.2-.84-.32Zm-2.1-.25v32.05h.01s0-32.05,0-32.05h-.01Zm-25.77,164.5c1.62.01,3.03.6,4.64.57l21.14-.54s-24.17-.01-25.79-.03Zm25.6,124.14s-.03-.01-.06-.01h-176.1v15.65h.64c.06-.23.09-.47.1-.71.19-2.14-.58-4.41-.63-6.32-.01-.98.55-2.04.57-3.13.03-1.88-.83-3.48-.04-5.47h175.52Zm-13.12-298.2c1.06,1.09,2.13,2.1,3.23,3.03-1.11-.95-2.17-1.95-3.23-3.03Zm-3.61-21.18c-1.27.8-2.85,1.88-2.9,2.07l1.3,1.31c.51-.29,1.41-.83,2.48-1.38l-.87-1.99Zm-2.55,13.45h-.01c.47.47.92,1,1.37,1.57-.44-.57-.89-1.11-1.35-1.57Zm-.61-20.67c-1.63.83-3.33,1.75-2.87,3.81.34.33,1.91-.47,3.9-1.46l-1.03-2.36Zm-3.16-7.21c-2.01,1.38-3.28,2.69-2.31,3.71,1.32-.01,2.29-.74,3.31-1.47l-.99-2.24Zm-11.97,351.95c2.34.04,4.69.07,7.03.12h.01c-2.34-.04-4.7-.09-7.05-.12Zm-131.63-431.16h0s126.68.01,126.68.01h0s-126.68-.01-126.68-.01Zm.67-27.2c-.09.06-.15.09-.23.09.07,0,.15-.01.23-.07l102.03-34.86h0s-102.03,34.84-102.03,34.84Zm59.55,458.01c-5.9.1-11.24-.07-18-.07h0c5.78.82,12.11.67,18.01.55,1.62-.03,3.04-.55,4.64-.57-1.6.01-3.04.06-4.66.09Zm-11.21-484l-47.45.52,47.44-.51c.01.12.04.22.06.31,0-.1-.03-.2-.04-.32Zm-16.41,136.61c-5.98-.01-11.94.31-17.91.48,10.38.07,21.05.09,22.03.09-1.49,0-2.77-.57-4.12-.57Zm-6.9,363.3c.54.79,1.18,1.53,1.92,2.27h.01c-.74-.74-1.38-1.5-1.94-2.27Zm-30.53-349.91c.2-.22.35-.44.47-.63-.13.19-.28.39-.47.63Zm-4.28-1.4c1.75.06,3.07.93,4.94.03-1.82.04-3.19.03-4.94-.03Zm-1.32,23.48h0c.09,0,.19-.01.28-.03-.09,0-.17.01-.28.03Zm.49-.07c.07,0,.15-.01.2-.01.04-.01.09-.01.12-.03-.1,0-.2.01-.32.04Zm-.49,312.44c-.04.06-.09.13-.13.19-.19.25-.35.48-.5.73.16-.25.33-.48.51-.73.04-.06.09-.13.13-.19h-.01Zm-13.03-18.26h0s12,.01,12,.01h0s-12-.01-12-.01Zm0-67.79h0s12,.01,12,.01h0s-12-.01-12-.01Zm0-168.95h0s12,.01,12,.01h0s-12-.01-12-.01Zm0,112.63h0s11.21.01,11.21.01h0s-11.21-.01-11.21-.01Zm-16.44-179.36c-.25,0-.51-.01-.77-.04.26.03.52.04.77.06,3.06.07,6.14,0,9.22-.04-3.07.03-6.14.1-9.22.03Zm-33.37-14.08c-.17-.01-.35-.03-.52-.06.17.03.35.06.52.07.52.04,1.03.09,1.56.12-.52-.04-1.05-.09-1.56-.13Zm15.1.64h-1.14c1,.03,2.02.03,3.04.03,1.65,0,3.31-.01,4.96-.04-2.3.03-4.6.04-6.87.01Zm-26.47,335.11c-1.76-.03-3.52-.07-5.27-.09,1.75.04,3.49.09,5.24.12h.01c.76.01,1.51.03,2.27.04h.01c-.76-.03-1.51-.04-2.27-.07Zm-18.51-325.72c.06.25.2.55.38.87-.16-.32-.29-.63-.38-.87Zm-.09-47.6v47.2s0,.06.01.09v-47.29h-.01Zm-11.97,373.31c-.23,0-.47.01-.7.03.23-.01.47-.01.7-.01h.01c.17-.01.35-.01.52-.03-.17,0-.36,0-.54.01Zm-1.57.06s0,.01.01.01c.19-.01.36-.03.55-.03.03-.01.06-.01.09-.01-.22.01-.44.01-.66.03Zm1.35,13.07c.28-.57.5-1.15.67-1.75-.17.58-.41,1.18-.67,1.75Zm-18.29-13.07c-5.37-.12-10.75-.25-16.15-.33,5.37.1,10.76.23,16.13.35h.25s-.23-.01-.23-.01Zm-48.7-207.53v2.1h2.71c1.34-.12,2.71-.16,4.09-.16,1.11,0,2.23.03,3.35.07.74.03,1.49.06,2.23.09h.03c.93.04,1.88.09,2.81.13.55.03,1.12.04,1.67.06,1.63.07,3.23.1,4.8.06.31-.01.6-.01.9-.04.9-.03,1.79-.09,2.65-.19.03,0,.07-.01.1-.01h.03c.07-.01.15-.03.2-.04.07,0,.13-.01.19-.04.07,0,.13-.01.19-.04.1-.03.2-.06.29-.1.48-.2.77-.51.95-.92.06-.12.1-.26.15-.41.06-.16.09-.35.12-.54h-27.46Zm-23.79,207.11c-.35,0-.73.03-1.11.06.38-.03.76-.04,1.11-.04,5.52-.03,11.14-.04,16.67-.13-5.53.07-11.15.1-16.67.12Zm-34.14-76.76h0s35.19.01,35.19.01h0s-35.19-.01-35.19-.01Zm31.27-233.87c-.1-.09-.23-.22-.36-.33.13.13.26.25.36.35.12.12.25.22.36.32-.12-.12-.25-.22-.36-.33Zm-4.54,311.13c-.23-.01-.45-.04-.67-.07h0s.01.01.01.01c.22.04.44.06.67.07h-.01Zm.47.01h-.13c.07.01.16.01.25.01.25.01.49.01.76,0-.29.01-.58,0-.87-.01Zm-.42-.01s-.01.01-.03.01h.15s-.07,0-.12-.01Zm-.03-315.9c.61.67,1.24,1.34,1.82,1.97-.57-.63-1.19-1.3-1.82-1.97Zm-21.3-94.03c-.41,0-.76-.04-1.06-.09.31.06.66.09,1.06.1,3.54.07,7.09.12,10.64.15-3.55-.04-7.11-.09-10.64-.16Zm378.51,57.8c-2.01,1.38-3.28,2.69-2.31,3.71,1.32-.01,2.29-.74,3.31-1.47l-.99-2.24Zm3.16,7.21c-1.63.83-3.33,1.75-2.87,3.81.34.33,1.91-.47,3.9-1.46l-1.03-2.36Zm3.16,7.22c-1.27.8-2.85,1.88-2.9,2.07l1.3,1.31c.51-.29,1.41-.83,2.48-1.38l-.87-1.99Zm58.24-3.89l.38.87v-.92c-.13.01-.26.03-.38.04Zm-64.56-10.54c-2.01,1.38-3.28,2.69-2.31,3.71,1.32-.01,2.29-.74,3.31-1.47l-.99-2.24Zm3.16,7.21c-1.63.83-3.33,1.75-2.87,3.81.34.33,1.91-.47,3.9-1.46l-1.03-2.36Zm3.16,7.22c-1.27.8-2.85,1.88-2.9,2.07l1.3,1.31c.51-.29,1.41-.83,2.48-1.38l-.87-1.99Zm58.24-3.89l.38.87v-.92c-.13.01-.26.03-.38.04Zm-64.56-10.54c-2.01,1.38-3.28,2.69-2.31,3.71,1.32-.01,2.29-.74,3.31-1.47l-.99-2.24Zm3.16,7.21c-1.63.83-3.33,1.75-2.87,3.81.34.33,1.91-.47,3.9-1.46l-1.03-2.36Zm3.16,7.22c-1.27.8-2.85,1.88-2.9,2.07l1.3,1.31c.51-.29,1.41-.83,2.48-1.38l-.87-1.99Zm58.24-3.89l.38.87v-.92c-.13.01-.26.03-.38.04Zm-64.56-10.54c-2.01,1.38-3.28,2.69-2.31,3.71,1.32-.01,2.29-.74,3.31-1.47l-.99-2.24Zm3.16,7.21c-1.63.83-3.33,1.75-2.87,3.81.34.33,1.91-.47,3.9-1.46l-1.03-2.36Zm3.16,7.22c-1.27.8-2.85,1.88-2.9,2.07l1.3,1.31c.51-.29,1.41-.83,2.48-1.38l-.87-1.99Zm58.24-3.89l.38.87v-.92c-.13.01-.26.03-.38.04Z"/>
    <path d="m668.81,647.7c-.04-1.12.84-1.73,1.02-2.88.73-4.99-5.02-16.86-7.18-21.99-1.24-2.94-4.43-7.99-5.17-10.45-1.37-4.53-.71-11.31-2.1-16.06.23-1.25,5.93-.71,6.58-2.68-.51-2.56-.54-16.21-1.99-17.14-.71-.47-1.79-.16-2.62-.25-2.33-19.5-4.12-39.08-6.33-58.59-2.29-20.31-5.1-39.53-6.19-60.03-1.25-23.38-1.98-46.97-3.12-70.41-.39-8.08-.48-16.18-1.05-24.24l-29.73,5.49c1.18,10.28,7.76,18.3,17.73,21.1-.55-5.63-.32-11.31-.49-16.96-.07-1.98-1.94-6.19,1.02-6.49l4.15,90.49c2.88,40.23,10.28,79.95,15.17,119.94,0,2.2-1.75,2.69-2.13-.01-5.82-41.66-12.9-84.85-15.13-126.7-.58-10.93-1.03-21.96-1.57-32.86l-1.25-25.33c-8.55-2.65-15.19-8.42-17.86-17.08-.6-1.94-1.57-4.54-.67-6.36-20.76,1.67-43.33,2.05-63.7-2.77-2.18-.52-5.65-.63-6.16-2.97,29.05,6.62,57.88,6.38,87.15,1.4,4.99-.84,9.87-2.52,14.95-2.52,1.4-3.16,1.21-6.7,1.67-10.09l-1.6-24.26c-21.96-.22-43.42-5.17-64.81-9.49l-.89-1.97c12.68,2.11,25.16,5.37,37.88,7.21,30.85,4.46,60.93,7.29,56.94-34-1.99-20.59-17.88-60.7-33.3-74.65-10.72-9.71-27.62-12.99-41.66-13.88l-1.99-22.65c6-2.39,9.62-6.65,8.66-13.48-.23-1.66-1.56-3.26-1.5-4.69.06-1.5,1.54-4.66,1.92-6.46,1.37-6.61,3.33-14.75-1.7-20.41-3.19-3.57-6.38-2.11-8.58-3.41-.48-.29-2.81-5.43-4.18-6.78-2.23-2.21-6.44-4.03-9.61-3.93-2.96.1-8.77,2.93-10.85,2.55-1.63-.31-5.39-3.79-7.34-4.72-16.21-7.7-25.65,16-12.61,26.18,1.03.8,5.82,3.01,5.96,3.45l-1.12,5.29c-6.96,1.09-9.52,9.16-5.84,14.69,1.3,1.94,3.25,2.56,4.83,4.03.36,11.79,2.64,24.21,16.54,25.68l.67,6c-.22.98-7.56,3.16-9.13,3.86-16.63,7.48-23.54,19.36-30.87,35.39v.31s-.03.32-.03.32c1.22.2,1.54.87,2.15,1.78.04.06.09.13.13.2,2.11,3.19,4.28,8.6,5.4,12.35.04.12.07.22.1.33.03.03.06.06.09.09.64.6.86-.16.95-.86.13-1.09.13-7.19.52-7.59h1.56l-.39,13.19,9.26,19.67-1.28-.15-1.38-.16c-.68-2.13-1.5-4.3-2.46-6.3-3.63-7.67-9.46-22.84-13.73-29.03-1.37-1.98-2.94-3.16-5.39-3.47-5.82-.74-13.05.54-19.03,0,.01-.13.03-.26.04-.39,1.28-11.07.7-22.87-9.78-29.24-1.91-1.16-8.34-3.76-10.34-3.76h-13.82v-11.46h-39.09v-37.03l15.11-5.47v-20.08c-20.06-.16-40.17.2-60.23.01-8.44-.07-17.59-1.47-26.05-.54-5.13.55-11.39,4.43-16.69,5.23l-.74-5.01-123.36-.25c-22.16,2.33-45.47,8.68-58.33,28.23-2.36,3.58-7.09,13.37-7.09,17.43v28.68l-.29.25-.47.41c-3.12-.13-6.29-.29-9.46-.41-5.74-.19-11.52-.29-17.17-.01-18.19.86-35.69,12.07-35.69,32.09v66.49h-49.79c-2.43,0,1.38,4.4,1.83,4.94,9.58,11.5,25.9,22.44,38.74,30.08,1.98,1.19,8.85,4.11,9.2,5.93v60.98s-28.78,53.62-28.78,53.62l-.39,1.91c.48-.07,1.11.55,1.3.55h27.9v23.21c0,.29-2.75,4.22-3.22,5.13-9.81,18.59-20.86,37.11-30.24,55.79-.64,1.27-1.57,2.5-1.49,4h34.94v76.66c.86,0,1.73.03,2.61.07,5.42.23,10.89,1.02,16.23.1h.01c.32-.04.63-.12.95-.17-.06.25-.13.48-.22.7-.45,1.15-1.28,2.02-1.72,3.35-1.06,3.31-.89,6.41.6,9.54l3.42,4.66h-63.33c-.44,0-1.05,1.3-.77,1.82.19.61.95.8,1.89.8,1.57,0,3.68-.52,4.59-.55,15.46-.47,31.45-.01,46.97,0,5.53,0,11.05.01,16.58.01,179.11.2,358.42.42,537.59-.01,12.43-.03,24.87.07,37.3.01v-2.08h-26.6Zm-115.74-493.82l-.49,9.11c0,.15-.03.48-.06.9-.09.92-.22,2.26-.23,3h0c-.17-.07-.33-.16-.49-.26-.16-.07-.32-.17-.47-.29-.31-.19-.58-.41-.83-.66-.38-.36-.71-.74-1-1.16-.12-.17-.23-.35-.33-.52-.36-.64-.63-1.32-.77-2.01-.04-.15-.07-.31-.09-.45-.03-.15-.04-.28-.06-.42-.03-.26-.04-.51-.04-.76,0-.22.01-.44.03-.64.01-.17.04-.35.07-.52.07-.48.2-.95.38-1.4.07-.2.16-.39.26-.58.1-.23.23-.45.38-.66.07-.12.16-.25.26-.36.04-.07.1-.15.16-.2.07-.1.16-.19.25-.28.03-.04.06-.07.12-.12.12-.13.25-.26.39-.38.15-.13.31-.25.47-.35.12-.09.23-.16.35-.25.19-.12.39-.22.61-.32.19-.09.36-.17.55-.23.19-.09.39-.15.6-.2h0Zm115.23,488.09c-.16,2.05-1.06,5.02-3.42,5.17-9.06-.55-19.23.89-28.14.07-3.77-.35-3.97-1.94-4.94-5.24h36.5Zm-14.43-32.5c-.17-.1-.35-.25-.51-.41-.09-.09-.16-.17-.25-.25-.25-.25-.51-.48-.83-.63-.95-.41-1.99-.7-3.1-.89-1.88-.33-3.9-.35-5.85-.09-.33.04-.67.09-1,.15-.15.03-.31.06-.45.09-.31.06-.61.13-.92.22-.16.03-.31.07-.44.12-.26.07-.51.15-.76.23-.77.25-1.5.54-2.17.89-2.37,1.21-3.45,3.64-5.79,4.38-.54-3.58-2.27-7.47-2.91-10.93-.12-.58-.42-.89.29-1.32l23.94-4.37,1.62,12.97c-.35.06-.61-.01-.86-.16Zm1.18,9.22c.01.06.03.13.03.19,0,.09-.01.17-.04.28-.03.06-.04.1-.07.16-.13.26-.38.57-.76.93-.09.09-.17.17-.29.26-3.58-1.21-6.83-.92-10.09-.06-.87.23-1.73.5-2.61.79-.87.29-1.75.6-2.64.92l-.29-1.57h0c.26-.23.54-.44.82-.63.28-.2.57-.39.87-.55.19-.12.39-.22.6-.32.63-.32,1.28-.58,1.95-.8.44-.15.89-.28,1.35-.38h.01c.45-.12.93-.2,1.4-.28.29-.04.58-.09.87-.12.47-.06.92-.1,1.37-.12.44-.03.87-.04,1.31-.04,1,0,2.01.06,2.96.17.74.09,1.46.19,2.04.36.07.01.16.04.23.07.51.17.87.41.98.73Zm.39,6.01c.19.1.35.22.45.32.34.31.36.66-.01,1.02-.03.04-.09.1-.16.15-.12.09-.25.19-.42.29-.09.06-.17.12-.28.16-.2-.01-.42-.04-.64-.07-.51-.07-1.03-.12-1.57-.16-.33-.03-.7-.06-1.05-.09-.35-.03-.7-.04-1.05-.06-.09-.01-.19-.01-.28-.01-.25-.01-.49-.01-.74-.01-.73-.03-1.46-.01-2.15.01-.29.01-.57.03-.84.07-.17.01-.35.03-.51.06-.22.03-.44.07-.66.12-.44.1-.86.25-1.28.41-.2.07-.41.16-.63.25-.84.35-1.67.73-2.53.98-.15.06-.29.09-.44.12-.15.03-.29.06-.44.09-.15.03-.29.06-.45.06-.22.03-.44.04-.67.03-.26-.25-.29-.52-.19-.8.01-.06.04-.12.09-.17.03-.06.07-.13.13-.19.15-.22.39-.45.68-.66.12-.09.23-.17.35-.25.13-.09.26-.16.39-.25.29-.17.6-.33.9-.48.15-.09.29-.16.45-.22.39-.19.76-.35,1.03-.45.16-.07.31-.13.41-.16.07-.03.12-.04.16-.06.25-.07.49-.16.74-.22.51-.15,1.05-.28,1.6-.39h.01c.55-.12,1.12-.2,1.7-.28.2-.03.44-.06.66-.07.22-.03.45-.04.67-.06.44-.03.87-.04,1.31-.04s.84.01,1.25.04c.32.03.64.06.95.1.36.06.71.1,1.05.19.35.09.67.17.99.28.26.09.49.17.71.28.1.04.2.1.29.15Zm-36.65-38.5l40.11-7.34c-.03,1.14-.01,2.27.04,3.41.01.54.04,1.06.09,1.6.04.64.09,1.3.15,1.94.09.96.19,1.94.31,2.91.15,1.22.29,2.46.45,3.68l-38.31,6.83-2.84-13.02h0Zm-44.33-.82l-1.05,13.82-41.19-.52h-.01v-14.59h.01s42.24,1.3,42.24,1.3Zm-240.48,41.98v-15.65h176.1s.04,0,.06.01c.03-.01.04,0,.07.01.04,0,.09.03.13.04.04,0,.07.03.1.06.04.03.07.06.1.1.1.12.16.28.19.47.01.06.03.13.03.2.16,1.24-.45,3.38-.47,4.03-.1,3.29-.13,6.65.51,9.87l-.12.13-.61.7h-.01s-176.09.01-176.09.01Zm-119.8,0v-370.76h26.08v47.29c.01.09.04.19.07.31.09.25.22.55.38.87.19.38.44.79.7,1.15.09.13.19.28.29.39.09.13.19.25.29.35.2.23.41.42.61.54.04.04.09.07.13.09.04.03.09.04.13.06.04.03.09.03.12.04.04.01.09.01.13.01h46.93l.79.79v318.87h-76.64Zm273.9-347.21c.55-.38,1.12-.76,1.76-1.02.45-.19,1.28-.42,2.27-.64,2.77-.61,6.81-1.08,7.56-.03.49.73.42,2.82-.29,3.44-.39.33-2.8.99-5.04,1.67-1.43.44-2.8.87-3.51,1.25-.19.1-.39.2-.58.29l1.03,2.36c1.22-.6,2.62-1.28,3.97-1.81,2.48-.99,4.79-1.46,5.72-.03,1.65,2.53-1.14,3.79-3.65,4.76-.95.36-1.85.7-2.48,1.05-.23.12-.79.47-1.44.89l.87,1.99c1.27-.64,2.74-1.31,4.03-1.65,1.3-.35,2.4-.33,2.91.38.8,1.09-.01,2.2-1.31,3.28-1.09.9-2.52,1.79-3.61,2.62-.79.6-1.4,1.16-1.62,1.7-.22,1.43,1.38.36,2.34,1.28.42.41,1.05,2.34.77,2.62-7.79-.19-11.02-4.27-13.8-10.95-2.91-6.99-5.08-15.78.87-20.79.84-.71,1.85-1.35,3.03-1.89.2-.09.47-.19.77-.31,2.3-.83,7.16-1.98,7.54.38.19,1.18-2.52,2.84-5.39,4.54-1.3.79-2.64,1.59-3.74,2.36l.99,2.24Zm48.31,29.64h0c.32.01.58.09.8.2.09.04.16.09.23.15.03.01.06.03.06.06.12.09.2.19.26.31.09.12.15.25.17.38.06.13.09.28.1.42.01.16.03.31.03.47,0,1.31-.58,2.98-.61,4-.26,7.6-2.53,41.03-.13,45.5.57,1.05,1.62,1.18,1.95,1.7.84,1.35.2,4.66-.12,7-.03.22-.06.42-.09.61-.01.17-.04.35-.06.51s-.01.31-.01.45c-.41,14.98-.86,29.98-1.32,44.98-1.38,44.98-2.87,89.99-3.9,134.93-.22,10,.38,20.02-.52,29.99-1.05.03-2.3,0-2.84,1.06-.93,1.85-1.24,15.8-.44,17.62l.57.64,5.87.51-.79,11.47-6.51,5.49c.77,1,3.97,4.56,5.13,6.67.09.16.16.31.22.44.07.15.12.28.15.41.04.12.06.22.06.32,0,.09-.01.17-.04.23l-1.34.82h0s-6.06-7.51-6.06-7.51l-4.27,2.8c-.04,1.05,4.02,5.23,4.38,6.48.48,1.72-.99,2.15-2.33.76-.42-.44-.89-1.06-1.37-1.76-.19-.28-.38-.57-.57-.87-.16-.23-.31-.48-.47-.73-.17-.28-.33-.57-.51-.84-.49-.83-.96-1.63-1.34-2.24l-7.8,4.16.25-258.64h.01s12.51-.01,12.51-.01c.04,0,.1-.01.17-.04.15-.07.35-.19.57-.29.1-.04.22-.1.33-.15.22-.07.44-.12.64-.06.03,0,.07,0,.1.01l-.25-1.56-14.87-10.16v-33.12c.28.12.55.22.84.32.28.09.57.17.87.26.92.26,1.89.45,2.88.57.28.04.55.07.84.09.22.01.44.04.67.04.39.03.79.04,1.18.04.44,0,.89-.01,1.32-.03.25-.01.5-.03.74-.06.36-.03.73-.07,1.09-.12.29-.03.6-.07.89-.13.45-.07.92-.16,1.37-.28.49-.12.99-.25,1.47-.39.29-.09.6-.19.89-.31.41-.13.82-.29,1.21-.47.54-.25,1.06-.5,1.56-.77.13-.07.26-.15.39-.23.42-.23.82-.51,1.19-.79.19-.13.38-.28.55-.42,1.67-1.35,2.97-3.06,3.64-5.1.07-.17.13-.36.17-.55.04-.12.07-.23.09-.35.06-.2.1-.41.13-.63.12-.63.17-1.28.17-1.97,0-.73-.07-1.5-.2-2.29Zm-14.08,56.3c-35.51.93-71.31.64-106.85.25l-72.49-48.73h107.65l71.69,48.48Zm-23.98,263.87h8.34l-.32.19-5.68,3.36-2.21-3.36-.13-.19Zm-178.31-88.12v-54.25h11.21s.79.79.79.79v53.46h-12Zm12,2.07v65.72h-12v-65.72h12Zm-12-58.4v-110.55h12v110.55h-12Zm10.99-182.94c-.73.57-1.47,1.09-2.21,1.6-.76.52-1.51,1-2.26,1.44h-78.99c.06-.07.13-.17.2-.26.38-.48.99-1.14,1.76-1.92.15-.15.29-.32.47-.47.16-.16.32-.33.5-.5.67-.68,1.43-1.4,2.21-2.14.31-.29.61-.57.92-.86,1.11-1.03,2.27-2.07,3.39-3.04.45-.39.89-.77,1.32-1.12,1.3-1.08,2.5-2.02,3.49-2.71.31-.2.58-.38.83-.54.03,0,.06-.03.09-.04.26-.16.49-.28.68-.35.12-.04.22-.09.32-.1.09-.03.17-.04.25-.04.03,0,.07.01.12.03.63.23,2.75,1.85,5.04,2.43.17.04.35.09.54.12.17.03.35.04.52.06.51.04,1.03.09,1.56.13h.06c.86.07,1.73.13,2.61.17.25.01.5.03.76.04.45.03.92.06,1.38.07h.1c1.31.07,2.64.12,3.96.15,1.06.03,2.13.04,3.2.06.07,0,.15.01.22,0,.04.01.09.01.12.01h1.14c2.27.03,4.57.01,6.87-.01,1.63-.03,3.28-.06,4.92-.1,2.87-.06,5.75-.15,8.63-.23,9.74-.31,19.47-.63,28.64-.33,1.75.06,3.12.07,4.94.03.07.07.07.2,0,.39-.04.1-.1.22-.19.35-.12.19-.26.41-.47.63-.19.25-.42.52-.67.79-.51.55-1.09,1.14-1.6,1.63-.22.22-.44.41-.61.58-.22.2-.39.36-.51.48-.04.04-.09.09-.12.12-.32.29-.64.58-.96.87-.67.58-1.37,1.18-2.08,1.75-.35.29-.71.58-1.09.84Zm-86.06,1.75l-1.24.22c-.38-.12-1.37-1.56-1.37-1.79v-48.76l12.93,40-10.32,10.34Zm88.38,13.25s.04-.01.06-.01c.06-.03.12-.03.16-.03.07,0,.15-.01.2-.01.16-.01.32-.03.48-.04.07,0,.15-.01.22-.01.19-.01.36-.01.55-.01.39,0,.8.01,1.18.06.63.06,1.22.2,1.81.38.26.07.52.17.77.28,1.32.52,2.58,1.3,3.77,2.2.41.29.82.61,1.22.95.41.33.8.67,1.21,1.02.2.16.41.33.61.51h-12.52v-5.23c.1-.01.19-.03.28-.03Zm-.28,16.21c8.66-.15,18.83-1.37,27.42-.55,2.97.28,7.63,4.38,10.13,6.29h-37.55v-5.74Zm177.02,151.74h-175.45l.04-110.49c2.21.17,4.28-.48,6.45-.6,52.56-2.68,107.8,1.67,160.55.49l8.66-.47-.26,111.06Zm.26,2.1v54.24h-175.45l-.79-.79v-52.15c.04-.17.82-.92,1.05-1.03,49.74-.25,99.62-.58,149.4-.29,1.62.01,25.79.03,25.79.03Zm-176.23,57.1l.79-.79h175.43l-.23,61.85v3.86h-175.98v-64.92Zm130.4-224.86c.03.58.03,1.16-.04,1.67-.01.13-.06.25-.1.35-.03.09-.07.16-.13.22-.07.09-.17.16-.28.22-.07.03-.16.06-.25.07-.89.17-2.3-.57-2.93-.84-.22-.09-.44-.2-.67-.32-.23-.12-.47-.25-.71-.39-1.49-.83-3.16-2.01-4.28-3.13-.2-.2-.39-.41-.57-.61h9.9c-.09.86.01,1.83.06,2.77Zm-119.97-27.79h0c.55-2.32.41-4.05-.16-6.1-.12-.39-.23-.79-.36-1.21h134.78l2.34,7.29h0s-136.6.01-136.6.01Zm165.81,63.09h-.01s0,.01,0,.01l-33.36-22.68v-37.81c1.41.2,4.06-.45,5.21.25.48.29,3.06,5.9,4.18,7.29.19.23.38.45.58.66.41.39.83.74,1.25,1.05.22.16.42.31.64.44.17.12.34.22.49.32.38.25.73.47,1.02.68.09.07.19.15.28.22.09.06.16.13.23.22h.01c.47.47.92,1,1.35,1.57.45.57.89,1.18,1.33,1.79.44.63.87,1.24,1.32,1.83.45.6.9,1.16,1.37,1.67.26.29.52.57.79.86,1.06,1.08,2.13,2.08,3.23,3.03,1.41,1.21,2.88,2.29,4.44,3.31.42.28.86.55,1.31.83,1.35.83,2.8,1.62,4.31,2.4h.01v32.06Zm-26.51-84.75c-3.23,3.76-5.63,6.77-4.78,12.27-32.93-.1-65.88.13-98.83.03-.98,0-11.65-.01-22.03-.09-4.91.13-9.8.16-14.71-.19l-8.33-24.78,143.12.07h.7l5.2,12.27c-.12.13-.23.28-.35.41Zm-149.72-15.36l-1.03-5.21c20.59.06,41.2-.09,61.81-.03,24.59.06,49.47.92,74.02.57,2.37-.03,3.99-.51,5.21-.33.12.01.23.04.35.06.15.04.29.1.44.17.06.01.12.04.17.09.06.03.13.07.19.13.09.04.17.12.25.2.19.17.38.41.55.68.09.13.17.28.26.44.39.76.77,1.79,1.16,3.23h-143.38Zm8.11,31.78c.32,1.16.44,2.77-.04,3.89-.33.8-.98,1.35-2.04,1.38l-70.69-.28c-.83-.25-1.57-.63-2.21-1.11-2.3-1.67-3.55-4.56-4.57-7.24-6.3-16.41-9.36-35.83-15.88-52.43-.63-2.75-2.04-6.12,1.15-7.7h71.2c2.66,1.19,3.49,2.84,4.57,5.36,7.6,17.91,11.39,39.78,18.52,58.12Zm-80.15.95c.07.42.03.8-.09,1.16-.03.07-.06.15-.09.2-.06.17-.15.33-.26.49-.04.07-.1.16-.16.23-.16.2-.33.41-.54.6-.12.1-.23.2-.36.31-.13.1-.26.2-.39.31-.13.12-.26.2-.41.29-.32.22-.67.42-1,.64-.19.1-.36.2-.54.31-.06.03-.1.06-.15.09-.28.16-.54.32-.77.47-.13.09-.25.16-.35.23l-18.52-60.76c.1-2.29,2.94-4.25,4.7-5.46l18.93,60.89Zm30.85,20.72c1.32-.86,2.97-1,4.67-.9.25.01.5.03.74.06,1.54.15,3.1.44,4.48.55.26.03.52.04.77.04,3.07.07,6.14,0,9.22-.03,1.54-.03,3.09-.03,4.62.01v319.14h-24.5v-318.87Zm27.14,308.16c-.03-.93-.03-2.37-.03-4.92h0s12-.01,12-.01v15.65h-12c0-.23-.01-.48-.01-.71-.06-3.32.15-6.67.04-10Zm248,28c-.12.45-.29.9-.48,1.28-.06.13-.13.25-.2.36-.16.28-.35.51-.52.67-.04.04-.1.09-.16.12-.1.07-.2.1-.31.1h-70.38l-.73-.86,1.34-4.37h0s69.8-.54,69.8-.54c.04,0,.1-.01.16-.01.05,0,.1,0,.15,0,.02,0,.04,0,.06,0,.07,0,.15,0,.2.01.04-.01.07,0,.1.01.09,0,.16.01.22.06.09.01.16.04.23.1.07.03.13.07.19.13.06.04.1.09.13.13.04.06.09.1.12.16.07.12.13.25.16.39.1.32.13.67.12,1.06-.01.38-.09.79-.19,1.18Zm-29.57-32.92v-10.44l27.63.52-.52,9.9h0s-27.11.01-27.11.01Zm90.72-328.54l-10.22-24.46,1.09-1.08,10.76,25.48c2.9.5,6.54-.96,8.78,1.37-.25.26-.47.6-.83.71-2.04.63-12.13.15-15.08.1-7.72-.15-15.7-.9-23.41-1.09-.95-.03-1.94-.01-2.96,0-1,.01-2.04.06-3.09.09-4.11.15-8.43.36-12.04.09-.44-.04-.84-.07-1.25-.13-.89-.1-1.81-.15-1.81-1.32l50.06.25Zm-72.45-137.11c.86.15,1.7.23,2.55.26.33.03.68.03,1.02.03.38,0,.76,0,1.14-.03.35-.01.71-.04,1.06-.07.09,0,.17,0,.25-.01,1.06-.1,2.11-.26,3.16-.44.12-.03.23-.04.33-.06.63-.12,1.25-.25,1.88-.38.36-.09.74-.16,1.11-.25.58-.13,1.16-.26,1.76-.39.42-.09.84-.19,1.27-.28.86-.19,1.69-.36,2.53-.51.68-.13,1.35-.23,2.02-.32.36-.04.71-.09,1.08-.12,10.63-.98,9.19,7.48,8.01,15.04h0c-.36.1-.7.16-1.02.2-.32.03-.61.06-.87.06-.2,0-.41-.01-.58-.04-.17-.01-.32-.04-.47-.09-.39-.12-.73-.28-1-.5-.09-.06-.17-.13-.25-.22-.63-.58-1.03-1.43-1.53-2.3-.06-.1-.13-.22-.2-.33-.13-.23-.28-.47-.44-.7-.22-.31-.45-.6-.73-.89-.15-.13-.29-.28-.45-.41-.87-.73-1.73-1.25-2.58-1.6-.2-.09-.41-.16-.63-.22-.2-.07-.41-.13-.61-.16-.17-.04-.35-.07-.52-.09h-.01c-.23-.03-.47-.04-.7-.04-.8,0-1.59.16-2.36.45-.29.1-.57.22-.84.36-.2.09-.39.19-.58.31-.2.12-.39.23-.6.38-.17.1-.33.22-.49.33-.44.31-.86.66-1.3,1.05-.09.09-.19.17-.26.26-.19.2-.36.42-.52.64-.58.8-1.06,1.66-1.85,1.92-.07.04-.15.07-.23.07h-.07c-.25.06-.54.03-.86-.07-.04-.01-.1-.04-.16-.09-.58-.38-1.6-1.81-2.58-2.96-.26-.31-.52-.6-.77-.84-.09-.09-.17-.17-.26-.25-.09-.07-.17-.15-.26-.2-.1-.07-.22-.15-.35-.22-.87-.44-2.2-.64-2.52-1.09-.86-1.25.39-3.73.31-5.21Zm19.45,20.76c-8.81,5.24-12.54-11.12-5.02-12.86,8.05-1.85,11.33,9.1,5.02,12.86Zm-20.51-12.97c6.12.23,6.67,10.15,2.04,12.74-1.7.96-2.9,1.18-3.1-.98-.38-3.68.87-8.02,1.06-11.76Zm-.52,15.65l4.16-1.03c.29.35-1.38,3.01-.01,3.93.54.36,4.88.76,5.24.23,1.25-1.86-2.15-2.02-2.62-2.34-1.56-1.06,2.34-7.98,1.57-10.18,1.27-1.57,1.69,3.8,1.82,4.19,3.2,9.46,16.67,5.88,16.45-3.64.13-.13,3.32-.13,3.81.04,1.14.38.61,2.56,2.15,2.56,2.5,0,4.5-8.31,10.7-2.91,3.38,2.94,3.47,8.95.33,12.1-1.49,1.49-4.5,2.59-6.61,2.26l1.59,20.59c1.85,9.13-7.27,18.88-16.41,17.44-5.62-.87-5.84-7.37-5.97-11.91,5.94-.48,10.67-5.34,11.94-10.99-2.49.25-4.57,1.54-6.97,2.15-17.25,4.35-21.93-7.53-21.18-22.49Zm-7.34,113.49c.49.01.98.03,1.46.04,1.24.03,2.43.09,3.55.12,1.3.04,3.42,1.12,4.18.04l.23-1.57-5.21-.79c-1.12-1.4-1.78-3.14-1.56-4.95,11.37-1.18,18.19,9.22,28.45,11.44l-2.39,24.01c-5.78.06-11.65,1.03-17.46.51-.63-.06-1.25-.13-1.89-.23-.39-.06-.79-.12-1.18-.19-.52-.09-1.06-.19-1.59-.31-.54-.12-1.06-.23-1.6-.36-.12-.01-.22-.04-.32-.07-.9-.22-1.82-.44-2.74-.67-1.16-.29-2.33-.6-3.49-.87-.55-.13-1.11-.26-1.67-.39-.55-.13-1.12-.25-1.67-.35-.01-.01-.04-.01-.06-.01-.54-.1-1.06-.2-1.6-.29-.55-.09-1.11-.17-1.65-.23-.36-.04-.71-.09-1.08-.12-.36-.03-.71-.06-1.08-.07l-.03-2.9v-.22l5.43.22,7.61.31v-.31l-.04-1.75c-.6-.66-14.17-.99-16.67-1.82-1.14-.38-1.47-1.22-2.05-2.13.03-.29,2.05-1.3,2.34-1.3h16.42v-1.05s-.01-1.02-.01-1.02c-.15-.01-.28-.04-.42-.06-.04-.01-.1-.01-.16-.01-.48-.07-.96-.13-1.44-.17-.52-.06-1.05-.1-1.59-.15-3.04-.23-6.12-.23-9.17-.17-2.58.04-6.71,1.91-8.01-1.19.66-2.24,2.93-2.52,4.96-2.9.44-.09.87-.16,1.31-.22.57-.07,1.15-.15,1.75-.19,2.49-.23,5.08-.22,7.66-.17.82.01,1.63.03,2.43.03,1.44.01,2.87.01,4.25-.03v-1.16l-.38-.87h-.04c-.16.01-.31.03-.47.03h-.23c-.22,0-.44-.01-.66-.03-.35-.01-.68-.06-1.02-.1-.23-.03-.47-.07-.7-.1-.28-.04-.54-.09-.82-.13-.35-.06-.7-.12-1.06-.16-.36-.04-.74-.07-1.12-.09-3.76-.12-8.74,1.12-12.01.54-.68-.13-1.47-.5-1.3-1.3.42-.44.89-.83,1.38-1.18.22-.17.45-.32.7-.47.41-.25.83-.48,1.28-.67.2-.1.41-.19.63-.28.25-.1.49-.2.76-.29.25-.09.5-.16.74-.23.31-.09.61-.17.92-.25.31-.09.61-.15.93-.2.38-.07.76-.15,1.15-.19.32-.06.66-.1.98-.13.07-.01.13-.01.2-.03.51-.06,1.03-.1,1.54-.12.35-.03.71-.04,1.06-.06,1.11-.03,2.23-.03,3.32-.01Zm-25.74-39.47c3.47.1,4.92.61,5.98,1.92h.01c.16.22.32.44.45.68.07.12.15.23.22.36.22.36.44.77.66,1.22.22.47.47.98.74,1.53.13.29.28.58.44.89,5.04,9.96,9.2,20.44,14.15,30.43h0c-.19.03-.42.04-.66.06-.12,0-.25.01-.38.03-.5.04-1.05.09-1.65.16-.31.03-.63.07-.96.13-.32.04-.64.09-.98.15-.19.01-.39.06-.58.09-.54.09-1.08.19-1.62.31-.2.04-.41.09-.61.13-.06.01-.1.01-.16.04-.35.09-.71.17-1.06.28-.2.06-.39.12-.58.17-.33.1-.66.22-.98.33-.25.09-.48.19-.71.29-.09.04-.17.07-.26.12-.36.16-.7.35-1.02.54-.15.09-.26.16-.39.26-.44.29-.82.61-1.11.98-.09.09-.16.17-.22.28-.09.12-.16.23-.22.35-.04.04-.06.07-.07.12-.13.23-.22.48-.28.74-.01.01-.01.03,0,.04h0c-.06.23-.09.47-.09.7,0,.13,0,.26.03.39v.07c.01.06.01.12.03.17,0,.04.01.07.03.12,0,.04.03.09.04.13.13.33.39.7.58.98.09.15.17.26.22.35.01.04.03.09.03.12,0,.04-.04.1-.1.16-.07.07-.19.17-.32.28-.44.31-1.12.74-1.66,1.21-.07.06-.15.12-.2.19-.07.06-.13.13-.19.19-.13.12-.22.23-.29.35-1.19,1.95-1,4.32.67,5.29.17.1.36.19.58.25.31.1.66.16,1.05.17-1.95,2.34-.9,4.6,1.11,5.82.28.17.58.32.89.45.32.13.64.23.98.31.32.09.67.15,1,.17.25.01.48.03.73.01l-.54,3.65-32.32-.25h0s-3.57-7.25-3.57-7.25c.03-.15.12-.28.25-.42.03-.04.09-.1.15-.13.35-.33.87-.68,1.44-1.11.12-.07.22-.16.32-.23.07-.06.13-.1.2-.17.15-.13.29-.25.44-.38.15-.13.29-.28.42-.42.25-.26.47-.55.66-.87.07-.12.15-.23.2-.36.07-.13.13-.26.17-.39.07-.17.13-.35.17-.54.04-.1.06-.2.09-.31.03-.16.06-.33.07-.52.07-.77-.03-1.41-.19-1.94-.07-.19-.15-.38-.23-.54h0c-.06-.13-.12-.25-.19-.36-.03-.06-.06-.1-.1-.16-.03-.06-.06-.1-.1-.16-.07-.12-.16-.23-.25-.33-.03-.06-.06-.12-.1-.16-.15-.19-.23-.33-.23-.45,0-.04.03-.09.06-.16,0,0,.01,0,.01-.01.03-.06.09-.15.16-.23.12-.17.29-.41.48-.7.13-.2.26-.42.38-.67.03-.04.04-.09.06-.13.06-.12.1-.23.15-.36.09-.28.15-.55.16-.86.03-.57-.04-1.05-.17-1.46-.03-.13-.07-.25-.13-.36-.13-.33-.33-.63-.54-.87-.07-.12-.17-.22-.26-.31-.17-.2-.35-.38-.49-.54-.06-.06-.1-.12-.15-.17-.13-.17-.22-.33-.26-.52-.16-.76.73-1.83.84-2.68.54-3.67-3.64-5.04-6.68-4.82.12-.15.23-.28.36-.41.12-.13.25-.25.38-.38.54-.48,1.09-.92,1.47-1.57.09-.16.16-.33.23-.52.04-.13.09-.26.1-.41.01-.04.03-.07.03-.12.2-1.18.07-2.11-.29-2.82h0c-.13-.25-.29-.47-.47-.66-.06-.07-.13-.15-.2-.2-.03-.03-.06-.06-.09-.07-.03-.03-.06-.06-.09-.07-.07-.07-.15-.13-.23-.17-.22-.16-.47-.28-.73-.38-.13-.06-.28-.12-.41-.15-.15-.04-.28-.09-.42-.12-.87-.2-1.86-.25-2.88-.16-.1,0-.22.01-.32.03-.06-.01-.12,0-.16.01-.06,0-.12.01-.16.03h-.01c-.22.03-.42.06-.64.1-.25.04-.49.09-.74.15-.25.06-.49.12-.73.19t-.03,0c-.23.07-.47.15-.68.23-.2.07-.42.15-.63.23-.22.09-.42.17-.63.28-.22.1-.42.2-.63.31-.19.1-.38.22-.54.33,0,.01-.01.01-.01.01l-.5-.45h0c-.15-.44-.31-.86-.47-1.3-.45-1.16-.98-2.37-1.53-3.58-.25-.55-.51-1.11-.79-1.66-.87-1.83-1.82-3.7-2.71-5.55-.31-.63-.6-1.24-.89-1.85-.15-.31-.28-.61-.42-.92-.28-.61-.54-1.22-.79-1.82-.13-.31-.25-.6-.36-.9-.48-1.21-.89-2.39-1.21-3.54-.31-1.15-.58-2.1-.32-2.8.07-.19.19-.38.36-.52.04-.03.07-.06.1-.09s.07-.06.12-.07c.07-.07.16-.12.26-.15.19-.1.42-.17.7-.23.19-.04.38-.07.6-.1.68.04,1.37.07,2.07.1,13.53.57,27.95-1.09,41.26-.1Zm-19.48-21.71c.28.61,1.47,3.95,1.47,4.27v15.91l-27.13-.29c-2.66,1.3-3.55,3.19-2.61,6.01h-.44l-141.55.03c-5.01-8.81-3.44-26.83-16.74-27.15-19.66.71-39.89-.89-59.48,0-7.59.33-10.98.39-16.64,5.77-2.64,2.49-3.31,4.31-2.84,8.02.38,3.04,3.6,9.38,3.6,11.52v8.08h-26.06c-1.92-7.67-4.7-15.16-6.62-22.83-1.75-6.89-4.62-12.22,2.59-16.93,7.99-5.21,21.99-3.44,31.42-3.49,72.2-.5,144.64.31,216.9,0,13.37-.04,37.36-4.22,44.13,11.09Zm-157.06-70.27h0s-.49-5.52-.49-5.52l47.45-.52c.01.12.04.22.04.32.07.58-.09.7-.36.73-.04,0-.1.01-.16.01-.19.01-.42.01-.67.12-1.63.66-4.37,1.67-7.31,2.69-.9.31-1.83.63-2.75.92-.92.29-1.82.58-2.69.84-.44.13-.87.26-1.28.38-1.09.32-2.11.58-2.97.79-.64.15-1.19.25-1.66.31-.12.01-.25.01-.38.01s-.26,0-.41-.01c-.79-.04-1.65-.25-2.36-.31-.15-.01-.31-.03-.44-.03-.25,0-.47.03-.66.1-.06.03-.1.06-.16.1-.04.03-.09.07-.13.13-.07.09-.12.17-.13.29-.01.04-.03.09-.03.15-.01.09-.01.17-.01.28h0c-.07,0-.13-.01-.19-.04-.09-.03-.16-.06-.22-.09-.07-.04-.13-.09-.17-.15-.06-.06-.1-.13-.13-.2-.1-.29,0-.67.2-1.06l-21.93-.23Zm-.49,2.82h21.37l-21.37,7.31v-7.31Zm.48,10.26s.09-.09.13-.12c.09-.06.19-.1.28-.13l56.99-18.88c.22-.58-.23-2.08-.79-2.08h-57.09l.06-2.02,15.84-5.27h77.43l-93.08,32.32c-.06,0-.12.01-.16.01-.07,0-.13-.01-.19-.04-.07-.01-.13-.04-.19-.1-.06-.04-.12-.09-.15-.16-.06-.1-.1-.2-.13-.33-.03-.13-.04-.26-.04-.42,0-.93.5-2.23,1.09-2.77Zm-2.15,6.55c.06.09.12.16.17.2.12.12.25.19.38.19.09,0,.15-.03.23-.09l102.03-34.86v16.18c-4.27,1.38-8.53,2.8-12.78,4.22-4.25,1.44-8.49,2.9-12.73,4.37-7.41,2.58-14.81,5.23-22.19,7.89-2.64.95-5.27,1.91-7.91,2.87-7.64,2.77-15.29,5.56-22.93,8.33-7.64,2.77-15.3,5.5-22.98,8.2-3.58,1.83-.71,6.77-1.19,10h126.68v9.39h-200.2v-27.37c0-3.96,3.61-11.12,5.82-14.5,13.9-21.24,43.99-26.12,67.16-30.08v34.16s.16.54.41.9Zm-185.49,7.96c.45-3.65,3.73-10.86,5.63-14.17,12.75-22.13,39.89-27.72,63.47-28.84,32.54-1.53,65.94-.58,98.5-.55,1.12,0,2.17-.44,1.85,1.06-9,1.41-19.06,4.09-27.47,7.73-12.61,5.45-31.97,20.6-31.97,35.8v27.9h-110v-28.93Zm-49.53,37.13c.19-.17.42-.35.68-.52.25-.17.52-.35.8-.51s.55-.32.82-.48c.26-.15.52-.29.76-.41.45-.23.8-.41.93-.47,1.28-.63,3.1-1.37,4.47-1.78.32-.1.64-.19.99-.28.6-.16,1.24-.31,1.92-.44.33-.07.68-.13,1.03-.19.36-.06.73-.12,1.12-.17.6-.09,1.22-.17,1.88-.25.04,0,.09-.01.15-.01.42-.04.84-.09,1.27-.12.51-.06,1.03-.1,1.57-.13.06-.01.1-.01.16-.01.47-.04.96-.07,1.46-.1,1.12-.09,2.27-.13,3.45-.17.89-.03,1.79-.06,2.71-.07.9-.01,1.83-.03,2.77-.03,2.55-.03,5.18-.01,7.8.04.9.01,1.82.03,2.74.04,1.82.04,3.63.1,5.39.15,1.06.03,2.11.06,3.13.09,1.08.04,2.13.07,3.16.1.39.01.79.01,1.16.03,1.66.04,3.23.09,4.7.1.51.01,1.02.01,1.51.01.77.01,1.53.01,2.23.01.29,0,.58-.03.87-.07.19-.03.36-.06.55-.1.04,0,.09-.01.15-.03.29-.06.6-.12.9-.17.1-.01.19-.03.29-.04.1-.03.23-.04.33-.06.16-.03.31-.04.47-.06.19-.01.36-.03.55-.03,8.75-.07,17.57-.19,26.32.04,1.54.03,3.09.07,4.63.15.2,0,.41.01.61.03.93.03,1.85.07,2.78.13,1.16.06,2.33.13,3.48.2l-4.43,3.13c-.06.03-.12.06-.17.1-.06.04-.12.1-.17.16-.03.03-.06.06-.09.09-.09.1-.19.22-.28.36-.09.13-.19.28-.28.44-.28.47-.54.99-.76,1.43-.12.25-.23.48-.33.66-.12.25-.22.41-.26.41h-96.46c-.32-.28-.03-.71.52-1.19Zm-13.03,20.75c.06-.51.16-1.08.31-1.67.04-.19.09-.38.13-.57.12-.41.23-.83.38-1.25.09-.32.2-.64.32-.96.04-.13.09-.28.15-.42.06-.15.12-.29.16-.42.2-.55.44-1.14.68-1.7.13-.28.26-.57.38-.84.13-.29.26-.57.41-.86.13-.28.26-.57.41-.84.28-.55.57-1.11.87-1.63.15-.26.29-.51.45-.77.15-.26.31-.51.45-.74.2-.32.41-.63.61-.93.2-.31.42-.6.63-.86.2-.28.41-.52.61-.76.2-.25.41-.47.61-.67.26-.26.51-.49.73-.67.1-.09.22-.17.32-.26.61-.47,1.05-.61,1.49-.61.16,0,.31.01.45.04.16.03.32.07.48.12.22.06.47.13.74.19.13.03.28.06.44.09.31.04.66.09,1.06.09,3.54.07,7.09.12,10.64.16,27.98.25,56.04-.61,84.01-.17.04.54.12,1.08.19,1.62.01.26.06.52.1.79.09.68.19,1.35.32,2.04.04.35.12.68.19,1.03.1.61.23,1.21.36,1.82.58,2.75,1.32,5.49,2.13,8.21.28.96.55,1.91.84,2.85.28.96.57,1.91.86,2.87.28.93.57,1.88.84,2.81.26.9.51,1.79.77,2.69.28,1,.54,2.01.79,3.01.35,1.37.67,2.77.95,4.15h-116.26c.44-5.4-.6-11.66,0-16.95Zm-2.9,107.12c-.44-.23-.89-.48-1.34-.71-.32-.17-.66-.35-.99-.52-1-.54-2.02-1.09-3.03-1.66s-2.01-1.14-3.01-1.72c-1.99-1.16-3.99-2.37-5.95-3.63-5.08-3.25-10.05-6.76-14.79-10.5-.77-.61-1.54-1.24-2.3-1.86-.67-.54-1.32-1.09-1.98-1.65-.44-.36-.87-.73-1.3-1.11-.73-.61-1.44-1.25-2.14-1.89-.84-.74-1.67-1.5-2.49-2.27-.76-.71-1.51-1.43-2.24-2.15-1.06-1.03-2.1-2.07-3.1-3.13-.67-.68-1.32-1.38-1.97-2.08,21.46-.25,42.95.31,64.41.01,1.11-.01,2.13-.52,3.1-.54.5-.01,1.08-.03,1.7-.04.51-.03,1.06-.04,1.63-.04,2.2-.04,4.7-.04,6.61.26.35.04.67.12.96.19.23.04.45.12.66.19.1.03.2.06.29.1.07.03.16.1.29.2.06.04.13.1.22.19.04.03.09.07.15.12.04.04.1.09.15.15.2.19.44.41.68.67l.25.25c.15.16.31.32.48.49.2.2.41.41.61.64.19.22.39.42.6.64.44.45.87.92,1.31,1.38.63.67,1.25,1.34,1.82,1.97.2.22.39.42.57.61.38.39.73.77,1.03,1.11.1.09.19.19.28.28s.16.16.23.25c.09.07.16.15.23.23.13.12.26.25.36.33.12.12.25.22.36.33.13.12.26.23.39.35.7.64,1.41,1.27,2.13,1.89,4.53,3.93,9.42,7.67,14.55,11.15.52.36,1.06.73,1.6,1.08.68.45,1.37.9,2.05,1.34.96.63,1.92,1.22,2.9,1.82.71.45,1.43.89,2.14,1.31.71.44,1.44.86,2.17,1.27,2.61,1.51,5.26,2.96,7.94,4.31.86.45,1.73.89,2.59,1.3,4.94,2.43,9.92,4.59,14.88,6.45,0,.04.01.09.01.12,0,.06-.01.12-.03.16-.01.04-.03.09-.06.12-.03.04-.06.07-.1.09-.19.12-.5.12-.79.09-.26-.01-.54-.04-.74-.04h-.1c-2.62.1-5.26.17-7.89.23-1.38.03-2.75.06-4.12.07-1.34.03-2.68.06-4.02.06-1.43.03-2.87.04-4.3.04-3.77.03-7.54.04-11.31.04-11.21,0-22.42-.07-33.52.09-1.51.01-2.96-.01-4.34-.12-.35-.03-.71-.06-1.06-.09-.38-.03-.76-.07-1.12-.12-.36-.03-.73-.07-1.09-.15-.22-.03-.44-.06-.66-.09-.22-.03-.44-.06-.64-.1-.42-.07-.84-.15-1.25-.23-.32-.06-.63-.13-.95-.2-.31-.06-.61-.15-.92-.22-1.85-.45-3.63-1.03-5.37-1.7-.22-.07-.44-.16-.64-.25-1.09-.44-2.18-.9-3.29-1.41-.36-.17-.73-.35-1.11-.52-.96-.47-1.92-.95-2.91-1.44-.61-.32-1.22-.64-1.85-.96-.07-.04-.15-.09-.23-.12-.42-.23-.86-.47-1.3-.7Zm-25.79,117.91l39.11-73h71.94l-38.57,73h-72.48Zm120.18,8.34h-84.46l-7.03,12v-17.73h44.57l6.52-12.52h53.17v45.37h-11.98v-26.32l-.79-.79Zm-1.3,2.08v5.21c-1.95-.95-4.18-.39-6.26-.52.48-1.05.86-1.98,1.31-2.75.1-.19.22-.38.33-.54.12-.17.25-.35.39-.48.36-.41.79-.7,1.31-.87.26-.09.54-.15.86-.17.58-.06,1.25-.01,2.05.13Zm-124.62,78.22l43.01-78.22h74.82l-41.19,78.22H60.89Zm92.54-25.55h21.13v36.52h-71.43v-8.88h35.19l15.11-27.63Zm-58.12,102.21v-74.56c1.35.23,5.15-.7,5.65.84.83,5.42-.86,13.05.09,18.17.22,1.11,1.24,2.14,2.36,2.34l86.43-.09,1.43-2.21c-.93-14.92,1.16-31.19,0-45.95-.07-1-.31-1.88-.54-2.84h-35.98l12.24-23.47h33.9l.79-.77v-47.97l-.79-.79h-52.14l-.55-1.06,13.32-24.23c.71-.1,1.44-.19,2.17-.25h-2.62v-2.1h27.46c.06-.38.09-.82.13-1.28.79-8.9.8-26.63,0-35.51-.23-2.62-.92-4.64-3.92-4.43l-81.33.03c-4.19.79-1.57,9.62-2.61,13.05-.68,2.29-4.27,6.29-5.26,8.82-2.02,1.4-.23-.58-.23-.76v-54.5l15.88,6.8h83.97c1.85,0,4.54-.83,4.92-2.9l.03-51.63-2.11-3.63-92.56-.31c-.84-.41-3.36,2.17-3.36,2.39v8.08h-6.77v-50.07h116.78v370.76h-116.78Zm81.33-55.79v-46.42h12.51v46.15c0,1.31-3.06.26-3.89.23-2.87-.07-5.77.12-8.62.03Zm-50.06,76.13c3.44-2.97,5.07-6.96,4.8-11.02,0-.09-.01-.19-.01-.28-.13-1.44-.48-2.88-1.09-4.3-.09-.23-.19-.45-.31-.68-.03-.09-.07-.17-.13-.26-.12-.25-.25-.48-.39-.73-.04-.09-.1-.17-.16-.28-.03-.06-.06-.12-.1-.17h0c.22.01.44.04.67.06h.01s.03.01.03,0c.04.01.07.01.12.01.03.01.07.01.12,0,.01.01.03.01.04,0,0,0,0,.01.01,0h.13s.07.01.12.01c.25.01.49.01.76,0,.67,0,1.34-.06,2.02-.13.6-.07,1.21-.16,1.79-.22.39-.04.77-.09,1.15-.12.38-.03.76-.06,1.11-.06,5.52-.01,11.14-.04,16.67-.12,13.22-.19,26.47-.04,39.68.2,5.4.09,10.77.22,16.15.33h.23c-.03.07-.06.13-.07.19-.47,1-.87,2.01-1.21,3.01-.12.33-.22.67-.31,1.02-.19.66-.35,1.31-.44,1.97-.04.25-.09.51-.1.76-.01.07-.03.15-.01.2-.01.07-.01.13-.01.19-.07.82-.06,1.62.06,2.4.03.26.07.51.13.76.03.16.06.31.1.47.28,1.11.74,2.2,1.44,3.29.2.31.45.6.71.86.13.13.28.26.41.39.32.31.64.6.89.93.06.07.12.16.16.23.09.12.15.25.19.38.01.04.03.07.04.13.03.04.04.09.04.13.03.07.04.13.04.2.01.03.01.06.01.09.01.04.01.09.01.13h-85.51Zm97.49,0l3.04-2.96c.36-.55.67-1.12.93-1.7.26-.57.5-1.16.67-1.75.09-.31.17-.6.23-.9.13-.57.2-1.12.25-1.69.03-.33.04-.67.04-1,0-.68-.06-1.37-.16-2.05-.01-.1-.04-.22-.06-.32-.03-.17-.07-.36-.12-.52-.09-.36-.19-.73-.31-1.09-.09-.26-.17-.52-.29-.79-.03-.09-.06-.17-.12-.28-.12-.29-.25-.57-.39-.86-.31-.55-.63-1.11-1-1.63-.03-.06-.07-.12-.12-.17h.03s-.01-.01-.01-.01c.22-.01.44-.01.66-.03h.22c.23-.01.47-.03.7-.03.17-.01.36-.01.54-.01.41-.01.8-.03,1.21-.04,1.19-.06,2.37-.09,3.57-.1,1.03-.01,2.05-.04,3.09-.04.77-.01,1.56-.03,2.34-.01,2.36-.03,4.7-.01,7.05.01,2.49.01,4.99.06,7.5.12,1.75.01,3.51.06,5.27.09.76.03,1.51.04,2.27.06h0s-.04.06-.07.1c-.03.03-.04.06-.06.09,0,.01-.01.01-.01.03t-.03.03c-.17.22-.32.45-.47.67-.19.28-.35.55-.5.83-.16.28-.31.55-.42.83-.1.2-.19.41-.26.61-.23.52-.39,1.05-.52,1.57-.04.13-.07.26-.09.39-.04.16-.09.32-.1.47-.03.13-.04.26-.06.39-.2,1.27-.17,2.53.04,3.79.07.45.19.9.31,1.34.26.89.63,1.76,1.08,2.59.33.63.73,1.24,1.18,1.82.6.77,1.28,1.51,2.07,2.18h-39.11Zm50.58,0c5.53-4.27,6.62-11.75,2.61-17.49v-.06c-.01-.12-.01-.2-.01-.28,0-.06,0-.1.01-.15,0-.04,0-.09.01-.12,0-.07.03-.12.06-.15t.01-.01c.17-.12.55.51.7.51h55.01c-.04.06-.09.13-.13.19-.17.25-.35.48-.51.73-.15.23-.29.48-.41.71-.07.13-.15.25-.2.38-.31.58-.57,1.18-.77,1.78-.22.66-.38,1.31-.49,1.98-.71,4.34.95,8.81,4.6,11.97h-60.48Zm72.46,0c1.59-1.49,2.77-3.07,3.54-4.75.28-.63.51-1.27.7-1.91.07-.22.12-.44.16-.66.04-.15.07-.31.09-.45.09-.47.15-.92.17-1.38.01-.26.03-.52.03-.79,0-.29-.01-.57-.03-.86,0-.17-.01-.36-.04-.54-.01-.12-.03-.23-.04-.35-.03-.26-.07-.52-.12-.79-.04-.28-.1-.57-.17-.84-.06-.26-.13-.52-.2-.79-.01-.06-.03-.1-.04-.16-.07-.25-.16-.49-.25-.76-.16-.45-.33-.9-.54-1.35-.16-.39-.35-.79-.55-1.18-.03-.06-.06-.13-.09-.19h19.29c-.01.07-.03.13-.06.19,0,.03,0,.04-.03.07-.04.16-.1.33-.17.49-.25.61-.58,1.15-.9,1.72-.15.26-.28.54-.41.83-.09.19-.16.38-.22.6-.07.2-.12.42-.16.66-.2,1.16-.29,2.27-.29,3.33,0,.26.01.52.03.79,0,.13.01.28.03.41.01.15.03.28.04.41.03.26.06.52.12.77.13.76.32,1.49.58,2.2.16.41.33.82.54,1.22.15.29.32.6.5.89.17.29.36.6.57.89.55.77,1.19,1.53,1.94,2.27h-23.99Zm35.98,0c4.38-3.32,6.12-8.79,4.43-14.08-.13-.41-.67-1.32-1.14-2.21-.07-.13-.15-.26-.2-.39-.03-.04-.06-.09-.06-.13-.09-.16-.17-.32-.23-.48-.04-.09-.07-.17-.12-.25-.01-.06-.03-.12-.04-.16-.09-.26-.1-.45-.03-.54h0c6.76-.01,12.1.16,18,.06,1.62-.03,3.06-.07,4.66-.09,7.7-.12,15.39-.15,23.09-.1,7.69.03,15.38.1,23.06.22,3.23.04,6.46.09,9.7.15,2.11.03,4.21.07,6.32.1,1.53.03,3.06.04,4.59.07,2.34.03,4.7.07,7.05.1h0c-.03.07-.07.13-.1.19-.16.26-.31.51-.47.77-.29.54-.55,1.09-.77,1.63-.09.17-.16.35-.22.52-.1.25-.19.5-.28.74-.09.31-.17.63-.26.93-.07.32-.13.64-.19.98-.06.32-.09.64-.12.96-.13,1.38,0,2.8.39,4.27.09.31.17.63.29.96.01.03.03.07.03.12.12.32.25.64.38.96l3.39,4.7h-101.15Zm186.66,0c1.14-10.73.41-21.8-.57-32.56-.1-1.19-.87-2.3-1-3.68-.13-1.38-.22-9.07.6-9.58,2.81-.49,6.12,1.31,6.67-2.45.09-.6.16-1.21.23-1.82.06-.61.1-1.24.15-1.86.07-1.27.12-2.55.16-3.83.07-1.66.13-3.33.26-4.95.01-.17.03-.35.04-.51.01-.16.03-.32.04-.5s.04-.35.06-.52c.03-.38.07-.74.13-1.09-.04-.19-.09-.36-.16-.51-.16-.31-.36-.52-.61-.7-.06-.04-.12-.09-.19-.12-.06-.06-.12-.09-.19-.1-.17-.09-.36-.15-.55-.19-.17-.04-.36-.09-.52-.12-.13-.03-.25-.06-.36-.07-.1-.03-.19-.04-.28-.07-.1-.04-.19-.07-.23-.15-.03-.03-.04-.06-.04-.1l15.16-136.05c-.42-14.15-4.18-28.07-6.52-42.02l-10.44-8.85c-.42-.61.51-1.06,1.05-1.06.01,0,.03,0,.06.01.01,0,.04.01.09.03.03.01.06.03.1.06.04.01.09.04.13.07.1.06.2.12.32.19s.26.17.41.28c.29.2.63.44,1,.7.13.09.26.19.38.28.39.28.82.6,1.24.92,2.01,1.5,4.31,3.31,5.55,4.34.17.15.32.28.45.39.07.06.13.1.17.16.04.04.1.09.13.12.04.01.07.04.09.07h0c.71.8.99,1.46,1.16,2.5,9.81,59.7,20.51,119.19,34.84,177.96.07.48-.01.84-.19,1.12-.06.13-.16.23-.28.33-.04.04-.1.09-.16.13-.42.29-.98.45-1.51.63-.13.04-.26.09-.39.13-.28.38,0,1.12.06,1.6.2,1.6,3.29,14.43,3.79,15.03.09.1.19.2.31.28.04.03.09.04.13.06.1.07.2.12.32.15.15.06.31.09.48.12.17.01.35.03.54.03s.39-.01.6-.03c.23-.01.45-.04.68-.09.47-.06.92-.15,1.35-.22.13-.01.26-.04.38-.06.19-.03.36-.06.54-.07.31-.03.58-.03.8,0,.12,0,.2.03.29.06.16.06.29.15.38.28.01.03.06.1.09.22.04.1.07.23.12.38.01.03.01.04.01.07.03.09.06.19.09.29.16.57.35,1.34.55,2.21.07.32.15.64.22.96.35,1.5.73,3.17,1.03,4.59.06.29.12.58.17.84.23,1.14.39,2.01.44,2.32,1.14,9.7-1.12,21.64.66,31.14.03.13.06.25.1.35.03.1.09.2.13.29.12.19.23.33.36.5.06.04.1.1.15.15.12.12.22.22.31.32.09.1.17.2.25.31.04.06.09.13.12.2.03.06.06.13.07.19.06.16.09.36.07.58h-62.04Z"/>
    <path class="cls-1" d="m342.16,290.71h-74.94c-2.3-1.67-3.55-4.56-4.57-7.24-6.3-16.41-9.36-35.83-15.88-52.43-.63-2.75-2.04-6.12,1.15-7.7h71.2c2.66,1.19,3.49,2.84,4.57,5.36,7.6,17.91,11.39,39.78,18.52,58.12.32,1.16.44,2.77-.04,3.89Z"/>
    <rect x="704.79" y="647.7" width="10.43" height="2.09"/>
    <path class="cls-1" d="m290.82,308.49v318.16h-76.64v-370.05h26.06v47.2s0,.06.01.09c.01.09.04.19.07.31.06.25.2.55.38.87.19.38.44.79.7,1.15.09.13.19.28.29.39.09.13.19.25.29.35.2.23.41.42.61.54.04.04.09.07.13.09.04.03.09.04.13.06.04.03.09.03.12.04.04.01.09.01.13.01h46.93l.79.79Z"/>
    <path class="cls-1" d="m240.25,256.6v47.29s-.01-.06-.01-.09v-47.2h.01Z"/>
    <path class="cls-1" d="m240.71,305.07c-.17-.32-.32-.63-.38-.87.09.25.22.55.38.87Z"/>
    <rect class="cls-1" x="214.18" y="626.65" width="76.64" height=".71"/>
    <path class="cls-1" d="m95.31,626.65v.71h116.78v-.71h-116.78Z"/>
    <path class="cls-1" d="m95.31,256.6v50.07h6.77v-8.08c0-.22,2.52-2.8,3.36-2.39l92.56.31,2.11,3.63-.03,51.63c-.38,2.07-3.07,2.9-4.92,2.9h-83.97l-15.88-6.8v54.5c0,.17-1.79,2.15.23.76.99-2.53,4.57-6.54,5.26-8.82,1.03-3.42-1.59-12.26,2.61-13.05l81.33-.03c3-.22,3.68,1.81,3.92,4.43.8,8.88.79,26.62,0,35.51-.04.47-.07.9-.13,1.28-.03.19-.06.38-.12.54-.04.15-.09.29-.15.41-.17.41-.47.71-.95.92-.09.04-.19.07-.29.1-.06.03-.12.04-.19.04-.06.03-.12.04-.19.04-.06.01-.13.03-.2.04h-.03s-.07.01-.1.01c-.86.1-1.75.16-2.65.19-.31.03-.6.03-.9.04-1.57.04-3.17.01-4.8-.06-.55-.01-1.12-.03-1.67-.06-.93-.04-1.88-.09-2.81-.13h-.03c-.74-.03-1.49-.06-2.23-.09-1.12-.04-2.24-.07-3.35-.07-1.38,0-2.75.04-4.09.16h-.09c-.73.06-1.46.15-2.17.25l-13.32,24.23.55,1.06h52.14l.79.79v47.97l-.79.77h-33.9l-12.24,23.47h35.98c.23.96.47,1.83.54,2.84,1.16,14.76-.93,31.03,0,45.95l-1.43,2.21-86.43.09c-1.12-.2-2.14-1.24-2.36-2.34-.95-5.13.74-12.75-.09-18.17-.5-1.54-4.3-.61-5.65-.84v73.85h116.78v-370.05h-116.78Zm106.88,111.35c-.07.44-.25.89-.47,1.12-.1.12-.2.17-.32.17h-102.46v-2.1h103.23c.06.16.07.36.04.6,0,.06-.01.13-.03.2Z"/>
    <path class="cls-1" d="m501.66,374.93c-52.75,1.18-107.99-3.17-160.55-.49-2.17.12-4.24.77-6.45.6l-.04,110.49h175.45l.26-111.06-8.66.47Zm-41.06,31.16c-1.4,1.46-4.32,2.11-6.32,2.29-18.36-1.38-39.3,1.79-57.37-.03-10.51-1.05-9.81-14.92-2.05-16.12l60.96-.04c6.68.39,8.97,9.58,4.78,13.9Z"/>
    <path class="cls-1" d="m334.88,543.94l-.79.79v64.92h175.97l.25-65.71h-175.43Zm145.02,22.25c-.64.63-1.69.99-2.52,1.38-36.63.5-73.61.79-110.2-.15-5.85-1.85-5.42-12.68,1.59-13.07h106.88c5.74.26,8.18,8.08,4.25,11.84Z"/>
    <path class="cls-1" d="m502.59,221.83c-6.77-15.32-30.76-11.14-44.13-11.09-72.26.31-144.69-.5-216.9,0-9.43.06-23.43-1.72-31.42,3.49-7.21,4.72-4.34,10.05-2.59,16.93,1.92,7.67,4.7,15.16,6.62,22.83h26.06v-8.08c0-2.14-3.22-8.47-3.6-11.52-.47-3.71.2-5.53,2.84-8.02,5.66-5.37,9.06-5.43,16.64-5.77,19.58-.89,39.82.71,59.48,0,13.31.32,11.74,18.35,16.74,27.15l141.55-.03h.44c-.95-2.82-.06-4.72,2.61-6.01l27.13.29v-15.91c0-.32-1.19-3.65-1.47-4.27Zm-47.8,2.43h0s-126.44.01-126.44.01v-2.08h126.44l.77.77-.77,1.3Zm22.16.01h-12.52v-2.08h12.52v2.08Z"/>
    <path class="cls-1" d="m484.54,487.59c-49.78-.29-99.66.04-149.4.29-.23.12-1,.86-1.05,1.03v52.15l.79.79h175.43v-54.24s-24.15-.01-25.77-.03Zm-6.16,26.22l-109.62.41c-7.15-.54-7.43-12.13-.92-13.45l107.8-.12c6.67.6,8.36,9.81,2.74,13.16Z"/>
    <path class="cls-1" d="m317.41,308.23v319.14h-24.5v-318.87c1.32-.86,2.97-1,4.67-.9.25.01.5.03.74.06,1.54.15,3.1.44,4.48.55.26.03.52.04.77.04,3.07.07,6.14,0,9.22-.03,1.54-.03,3.09-.03,4.62.01Z"/>
    <path class="cls-1" d="m325.47,135.61c-32.56-.03-65.96-.98-98.5.55-23.57,1.12-50.71,6.71-63.47,28.84-1.91,3.31-5.18,10.51-5.63,14.17v28.93h110v-27.9c0-15.2,19.36-30.36,31.97-35.8,8.42-3.64,18.48-6.32,27.47-7.73.32-1.5-.73-1.06-1.85-1.06Zm-75.06,37.55h0s-77.17.01-77.17.01c-.13,0-.23-.04-.32-.13-.54-.42-.55-1.92,0-2.36.1-.07.2-.12.32-.12h77.43l.48,1.76-.74.83Zm13.29-16.15c-6.55,0-13.07-.19-19.63-.35-4.85-.13-9.68-.22-14.55-.2-1.49,0-2.78.57-4.14.57-14.06.01-28.13.22-42.17-.63-1.19-.57-1.11-1.24-.09-2.01h80.56v2.62Z"/>
    <path class="cls-1" d="m470.17,198.71v9.39h-200.2v-27.37c0-3.96,3.61-11.12,5.82-14.5,13.9-21.24,43.99-26.12,67.16-30.08v34.16s.16.54.41.9c.06.09.12.16.17.2.12.12.25.19.38.19.09,0,.15-.03.23-.09l102.03-34.86v16.18c-4.27,1.38-8.53,2.78-12.78,4.22-4.25,1.43-8.49,2.88-12.73,4.37-7.41,2.58-14.81,5.23-22.19,7.89-2.64.95-5.27,1.91-7.91,2.87-7.64,2.77-15.29,5.56-22.93,8.33-7.64,2.77-15.3,5.52-22.98,8.2-3.58,1.83-.71,6.77-1.19,10h126.68Z"/>
    <path class="cls-1" d="m569.76,647.7c1.14-10.73.41-21.8-.57-32.56-.1-1.19-.87-2.3-1-3.68-.13-1.38-.22-9.07.6-9.58,2.81-.49,6.12,1.31,6.67-2.45.09-.6.16-1.21.23-1.82.06-.61.1-1.24.15-1.86.07-1.27.12-2.55.16-3.83.07-1.66.13-3.33.26-4.95.01-.17.03-.35.04-.51.01-.16.03-.32.04-.5s.04-.35.06-.52c.04-.38.09-.74.15-1.11-.03-.19-.09-.35-.17-.5-.13-.32-.35-.55-.61-.7-.06-.06-.12-.1-.19-.12-.06-.06-.12-.09-.19-.1-.17-.09-.36-.15-.55-.19-.17-.06-.36-.09-.52-.12-.13-.03-.25-.06-.36-.07-.1-.03-.19-.04-.28-.07-.1-.04-.19-.09-.23-.15-.03-.03-.04-.06-.04-.1l15.16-136.05c-.42-14.15-4.18-28.07-6.52-42.02h0s-10.44-8.85-10.44-8.85c-.42-.61.51-1.06,1.05-1.06.01,0,.03,0,.06.01.01,0,.04.01.09.03.03.01.06.03.1.06.04.01.09.04.13.07.1.06.2.12.32.19s.26.17.41.28c.29.2.63.44,1,.7.13.09.26.19.38.28.38.29.8.6,1.24.92,2.01,1.5,4.31,3.31,5.55,4.34.35.29.61.52.76.67.04.01.07.04.09.07h0c.71.8.99,1.46,1.16,2.5,9.81,59.7,20.51,119.19,34.84,177.96.07.48-.01.84-.19,1.12-.06.13-.16.23-.28.33-.04.04-.1.09-.16.13-.42.29-.98.45-1.51.63-.13.03-.26.07-.39.12h0c-.28.39,0,1.14.06,1.62.2,1.6,3.29,14.43,3.79,15.03.09.1.19.2.31.28.04.03.09.04.13.06.1.07.2.12.32.15.15.06.31.09.48.12.17.01.35.03.54.03s.39-.01.6-.03c.23-.01.45-.04.68-.09.47-.06.92-.15,1.35-.22.82-.13,1.54-.23,2.01-.07.16.06.29.15.38.28.01.03.06.1.09.22.04.1.07.23.12.38.01.03.01.04.01.07.03.09.06.19.09.29.16.57.35,1.34.55,2.21.07.32.15.64.22.96.35,1.5.73,3.17,1.03,4.59.06.29.12.58.17.84.23,1.14.39,2.01.44,2.32,1.14,9.7-1.12,21.64.66,31.14.03.13.06.25.1.35.03.1.09.2.13.29.12.19.23.33.36.5.06.04.1.1.15.15.12.12.22.22.31.32.09.1.17.2.25.31.04.06.09.13.12.2.03.06.06.13.07.19.06.16.09.36.07.58h-62.04Z"/>
    <path class="cls-1" d="m539.14,369.99c-.03.22-.06.42-.09.61-.04.36-.07.68-.07.96-.41,14.98-.86,29.98-1.32,44.98-1.38,44.98-2.87,89.99-3.9,134.93-.22,10,.38,20.02-.52,29.99-1.05.03-2.3,0-2.84,1.06-.93,1.85-1.24,15.8-.44,17.62l.57.64,5.87.51-.79,11.47-6.51,5.47h0c.77,1.02,3.97,4.57,5.13,6.68.09.16.16.31.22.44.07.15.12.28.15.41.04.12.06.22.06.32,0,.09-.01.17-.04.23l-1.34.8-6.06-7.5h0s-4.27,2.78-4.27,2.78h0c-.04,1.06,4.02,5.24,4.38,6.49.48,1.72-.99,2.15-2.33.76-.42-.44-.89-1.06-1.37-1.76-.19-.28-.38-.57-.57-.87-.16-.23-.31-.48-.47-.73-.17-.28-.33-.57-.51-.84-.49-.83-.96-1.63-1.34-2.24h0s-7.8,4.16-7.8,4.16l.26-258.64h0s12.51-.01,12.51-.01c.04,0,.1-.01.17-.04.15-.07.35-.19.57-.29.1-.04.22-.1.33-.15.22-.07.44-.12.64-.06.03,0,.07,0,.1.01l-.25-1.56h0s-14.87-10.16-14.87-10.16v-33.12c.55.22,1.12.42,1.72.58.92.26,1.89.45,2.88.57.28.04.55.07.84.09.22.01.44.04.67.04.39.03.79.04,1.18.04.44,0,.89-.01,1.32-.03.25-.01.5-.03.74-.06.36-.03.73-.07,1.09-.12.29-.03.6-.07.89-.13.45-.07.92-.16,1.37-.28.49-.1.98-.25,1.47-.39.29-.09.6-.19.89-.31.41-.13.82-.29,1.21-.47.54-.23,1.06-.5,1.56-.77.13-.07.26-.15.39-.23.42-.23.82-.51,1.19-.79.19-.13.38-.28.55-.42,1.67-1.35,2.97-3.06,3.64-5.1.07-.17.13-.36.17-.55.04-.12.07-.23.09-.35.06-.2.1-.41.13-.63.12-.63.17-1.28.17-1.97,0-.73-.06-1.49-.2-2.29h0c.32.01.58.09.8.2.09.04.16.09.23.15.03.01.06.03.06.06.1.09.19.19.26.31.09.12.15.25.17.38.06.13.09.28.1.42.01.16.03.31.03.47,0,1.31-.58,2.98-.61,4-.26,7.6-2.53,41.03-.13,45.5.57,1.05,1.62,1.18,1.95,1.7.84,1.35.2,4.66-.12,7Z"/>
    <path class="cls-1" d="m103.9,472.49l-43.01,78.22h76.64l41.19-78.22h-74.82Zm29.47,63.1h-52.66c-.2-.61.23-2.1.79-2.1h51.88v2.1Zm7.29-12.52h-52.4l-.77-.79.77-1.3h52.4v2.08Zm6.03-12.49h0c-.1.15-.22.23-.33.29-.19.1-.39.15-.6.17-.2.03-.42.03-.64.06-7.77.9-16.23-.54-23.98-.57-8.81-.04-17.56.48-26.35.54v-2.08h52.12s-.19,1.37-.19,1.37l-.03.22Zm7.06-12.2c-.09.12-.2.19-.32.19h-51.88v-2.08h52.66c.17.5-.07,1.5-.47,1.89Zm7.37-12.58s-.03.06-.06.07c-.04.06-.1.1-.16.13-.04.03-.1.04-.16.04h-52.4v-2.08h53.17c.13.35.03,1.02-.19,1.5-.06.12-.12.23-.2.33Z"/>
    <path class="cls-1" d="m96.35,422.94h0c.07.04.13.07.2.07-.07-.03-.13-.04-.2-.07Z"/>
    <path class="cls-1" d="m105.74,389.06l-39.11,73h72.48l38.57-73h-71.94Zm-9.39,33.9h0c.07.01.13.03.2.06-.07,0-.13-.03-.2-.06Z"/>
    <path class="cls-1" d="m450.61,317.62h-107.65l72.49,48.73c35.54.39,71.34.68,106.85-.25l-71.69-48.48Zm-82.85,6.25l82.03.04.04,1.53c-1.98.09-4-.13-6,0-13.85.96-29.22.51-43.26.54-11.04.03-22.15.28-33.12-.54l.31-1.57Zm13.25,8.36h81.33v2.08h-80.54c-.55,0-1-1.47-.79-2.08Zm13.56,8.34h80.28v2.08h-80.28v-2.08Zm18.99,10.41c-2.17.03-4.32.03-6.48.01h0s.31-2.1.31-2.1c18.08-.42,36.14.68,54.21.55,6.26-.04,13.16-1.08,19.66-.9.98.03,1.94.09,2.88.17.48.04.96.1,1.44.16,1.15.15,1.63.39,2.31,1.32-.9,1.15-2.02,1.21-3.35,1.32-4.75.44-9.62.01-14.43-.29-1.32-.09-2.64-.16-3.95-.22h-.01c-.66-.01-1.31-.04-1.95-.04-7.73-.1-15.52-.06-23.27-.03h-.83c-6.26.04-12.49.07-18.65.03-.61-.01-1.24-.01-1.86-.01-2.01,0-4.02.01-6.03.01Zm7.6,8.88v-2.08h78.99l.77.77-.51,1.31h-79.25Z"/>
    <path class="cls-1" d="m95.31,253.99c.44-5.4-.6-11.66,0-16.95.06-.51.16-1.08.31-1.67.04-.19.09-.38.13-.57.12-.41.23-.83.38-1.25.09-.32.2-.64.32-.96.04-.13.09-.28.15-.42.06-.15.12-.29.16-.42.22-.55.44-1.14.68-1.7.13-.28.26-.57.38-.84.13-.29.26-.57.41-.86.13-.28.26-.57.41-.84.28-.55.57-1.09.87-1.63.15-.26.29-.51.45-.77.15-.26.31-.51.45-.74.2-.32.41-.63.61-.93.2-.31.42-.6.63-.86.2-.28.41-.52.61-.76.2-.25.41-.47.61-.67.26-.26.51-.49.73-.67.1-.09.22-.17.32-.26.61-.47,1.05-.61,1.49-.61.16,0,.31.01.45.04.16.03.32.07.48.12.22.06.47.13.74.19.13.03.28.06.44.09.31.04.66.09,1.06.09,3.54.07,7.09.12,10.64.16,27.98.25,56.04-.61,84.01-.17.04.54.12,1.08.19,1.62.01.26.06.52.1.79.09.68.19,1.35.32,2.04.04.35.12.68.19,1.03.1.6.22,1.21.36,1.82.58,2.75,1.32,5.49,2.13,8.21.28.96.55,1.91.84,2.85.28.96.57,1.91.86,2.87.28.93.57,1.88.84,2.81.26.9.51,1.79.77,2.69.28,1,.54,2.01.79,3.01.35,1.37.67,2.77.95,4.15h-116.26Z"/>
    <path class="cls-4" d="m188.12,351.63c0,.06-.01.12-.03.16-.01.04-.03.09-.06.12-.03.04-.06.07-.1.09-.19.12-.5.12-.79.09-.31-.01-.63-.06-.84-.06-2.62.1-5.26.17-7.89.25-1.38.03-2.75.06-4.12.07-1.34.03-2.68.04-4.02.06-1.43.03-2.87.04-4.3.04-3.77.03-7.54.04-11.31.04-11.21,0-22.42-.07-33.52.09-1.51.01-2.96-.01-4.34-.12-.35-.03-.71-.06-1.06-.09-.38-.03-.74-.06-1.12-.12-.36-.03-.73-.07-1.09-.15-.22-.03-.44-.06-.66-.09-.22-.03-.44-.06-.64-.1-.42-.07-.84-.15-1.25-.23-.32-.06-.63-.13-.95-.2-.31-.06-.61-.15-.92-.22-1.85-.45-3.63-1.03-5.37-1.7-.22-.07-.44-.16-.64-.25-1.09-.44-2.18-.9-3.29-1.41-.36-.17-.73-.35-1.11-.52-.96-.47-1.92-.95-2.91-1.44-.61-.32-1.22-.64-1.85-.96-.07-.04-.15-.09-.23-.12-.42-.23-.86-.47-1.3-.7-.44-.23-.89-.48-1.34-.71-.32-.17-.66-.36-.99-.54-1-.54-2.02-1.09-3.03-1.65-1-.57-2.01-1.14-3.01-1.72-1.99-1.16-3.99-2.37-5.95-3.63-5.08-3.25-10.05-6.76-14.79-10.5-.77-.61-1.54-1.24-2.3-1.86-.67-.54-1.32-1.09-1.98-1.65-.44-.36-.87-.73-1.3-1.11-.73-.61-1.44-1.25-2.14-1.89-.84-.74-1.67-1.5-2.49-2.27-.76-.71-1.51-1.43-2.24-2.15-1.06-1.03-2.1-2.07-3.1-3.13-.67-.68-1.32-1.38-1.97-2.08,21.46-.25,42.95.31,64.41.01,1.11-.01,2.13-.52,3.1-.54.5-.01,1.08-.03,1.7-.04.52-.01,1.06-.03,1.63-.04,2.2-.04,4.7-.04,6.61.26.35.04.67.12.96.19.23.04.45.12.66.19.1.03.2.06.29.1.07.03.16.1.29.2.06.04.13.1.22.19.04.03.09.07.15.12.04.04.1.09.15.15.2.19.44.41.68.67l.25.25c.15.16.31.32.48.49.2.2.41.41.61.64.19.22.39.42.6.64.44.45.87.92,1.31,1.38.83.89,1.66,1.79,2.39,2.58.38.39.73.77,1.03,1.11.1.09.19.19.28.28s.16.16.23.25c.09.07.16.15.23.23.13.12.26.25.36.33.95.87,1.91,1.72,2.88,2.58,4.53,3.93,9.42,7.67,14.55,11.15.52.36,1.06.73,1.6,1.08.68.45,1.37.9,2.05,1.34.96.63,1.92,1.24,2.9,1.82.71.45,1.43.89,2.14,1.31.71.44,1.44.86,2.17,1.27,2.61,1.51,5.26,2.96,7.94,4.31.86.45,1.73.89,2.59,1.3,4.94,2.43,9.92,4.59,14.88,6.45,0,.04.01.09.01.12Z"/>
    <path class="cls-1" d="m510.29,616.65c.01-.66.63-2.8.47-4.03,0-.07-.01-.15-.03-.2-.03-.19-.09-.35-.19-.47-.03-.04-.06-.07-.1-.1-.03-.01-.06-.04-.1-.06-.04-.01-.09-.04-.13-.04-.03-.01-.04-.03-.07-.01-.01-.01-.03-.01-.06-.01h-176.1v15.65h176.1s.61-.71.61-.71l.12-.13c-.64-3.22-.61-6.58-.51-9.87Zm-175.58,10c.19-2.14-.58-4.41-.63-6.32-.01-.98.55-2.04.57-3.13.03-1.88-.83-3.48-.04-5.47h175.46v14.92h-175.36Z"/>
    <path class="cls-1" d="m510.08,611.73v14.92h-175.36c.19-2.14-.58-4.41-.63-6.32-.01-.98.55-2.04.57-3.13.03-1.88-.83-3.48-.04-5.47h175.46Z"/>
    <path class="cls-1" d="m544.73,280.58c-.19.01-.41.03-.66.06-.12,0-.25.01-.38.03-.5.04-1.05.09-1.65.16-.79.09-1.65.2-2.52.36-.73.12-1.49.26-2.23.44-.06.01-.1.01-.16.04-.57.13-1.11.28-1.65.45-.33.1-.66.2-.98.33-.33.12-.67.26-.98.41-.36.16-.7.35-1.02.54-.15.09-.26.16-.39.26-.44.29-.82.61-1.11.98-.09.09-.16.17-.22.28-.09.12-.16.23-.22.35-.04.04-.06.07-.07.12-.13.23-.22.48-.28.74-.01.01-.01.03,0,.04-.01.01,0,.01,0,.01-.06.22-.09.45-.09.68,0,.13,0,.26.03.39v.07c.01.06.01.12.03.17.01.07.03.16.07.25.13.33.39.7.58.98.09.15.17.26.22.35.01.04.03.09.03.12,0,.04-.04.1-.1.16-.07.07-.19.16-.32.28-.44.31-1.12.74-1.66,1.21-.07.06-.15.12-.2.19-.07.04-.15.12-.19.19-.13.12-.22.23-.29.35-1.19,1.95-1,4.32.67,5.29.17.1.36.19.58.25.31.1.66.16,1.05.17-1.95,2.34-.9,4.6,1.11,5.82.28.17.58.32.89.45.32.13.64.23.98.31.32.09.67.15,1,.17.25.01.48.03.73.01l-.54,3.65-32.32-.26-3.57-7.24c.03-.15.12-.28.25-.42.04-.06.09-.1.15-.13.35-.33.87-.68,1.44-1.11.12-.07.22-.16.32-.23.07-.06.13-.1.2-.17.15-.1.29-.23.44-.38.15-.12.29-.26.42-.42.25-.26.47-.55.66-.87.09-.12.15-.23.2-.36.07-.13.13-.26.17-.39.07-.17.13-.35.17-.54.04-.1.06-.2.09-.31.03-.16.06-.33.07-.52.07-.77-.03-1.41-.19-1.94-.07-.19-.15-.38-.23-.54h0c-.06-.13-.12-.25-.19-.36-.03-.06-.06-.1-.1-.16-.03-.06-.06-.1-.1-.16-.07-.12-.16-.23-.25-.33-.03-.06-.06-.12-.1-.16-.13-.19-.22-.33-.22-.45,0-.04.01-.09.04-.16,0,0,.01,0,.01-.01.04-.06.09-.15.16-.23.12-.17.29-.41.48-.7.13-.2.26-.42.38-.67.03-.04.04-.09.06-.13.06-.12.1-.23.15-.36.09-.26.16-.55.17-.86.03-.58-.04-1.05-.19-1.46-.03-.13-.07-.25-.13-.36-.13-.33-.33-.63-.54-.87-.07-.12-.17-.22-.26-.31-.17-.2-.35-.38-.49-.54-.06-.06-.1-.12-.15-.17-.13-.17-.22-.33-.26-.52-.16-.76.73-1.83.84-2.68.54-3.67-3.64-5.04-6.68-4.82.12-.15.23-.28.36-.41.12-.13.25-.25.38-.38.54-.48,1.09-.92,1.47-1.57.09-.16.16-.33.23-.52.04-.13.09-.26.1-.41.03-.04.03-.09.04-.13.2-1.18.07-2.1-.31-2.81,0,0,.01,0,0-.01-.12-.23-.28-.45-.47-.64-.17-.2-.38-.38-.61-.52-.22-.16-.47-.28-.73-.38-.13-.06-.28-.12-.41-.15-.13-.06-.28-.09-.42-.12-.98-.25-2.08-.26-3.2-.13-.06-.01-.12,0-.16.01-.77.07-1.56.23-2.29.47t-.03,0c-.95.26-1.83.63-2.56,1.05-.19.1-.38.22-.54.33l-.51-.45c-.15-.42-.31-.84-.47-1.28-.45-1.16-.96-2.37-1.53-3.58-.25-.55-.51-1.11-.79-1.66-.87-1.83-1.82-3.7-2.71-5.55-.31-.63-.6-1.24-.89-1.85-.15-.31-.28-.61-.42-.92-.28-.61-.54-1.22-.79-1.82-.13-.31-.25-.6-.36-.9-.48-1.21-.89-2.39-1.21-3.54-.31-1.15-.58-2.1-.32-2.8.07-.19.19-.38.36-.52.04-.03.07-.06.1-.09s.07-.06.12-.07c.09-.06.17-.1.26-.15.19-.1.42-.17.7-.23.19-.04.38-.07.6-.1.68.04,1.37.07,2.07.1,13.53.57,27.95-1.09,41.26-.1,4.25.31,5.49.98,6.67,2.97.22.36.42.77.66,1.22.22.47.47.98.74,1.53.13.29.28.58.44.89,5.04,9.96,9.2,20.44,14.15,30.43Z"/>
    <path class="cls-1" d="m484.16,269.99l-5.2-12.27h-.7l-143.12-.07,8.33,24.78c3.83.09,9.23.15,14.71.19,10.38.07,21.05.09,22.03.09,32.95.1,65.9-.13,98.83-.03-.86-5.5,1.54-8.52,4.78-12.27.12-.13.23-.28.35-.41Zm-129.36-6.51c8.33-1.83,11.88,11.43,3.54,11.41-6.74,0-9-10.19-3.54-11.41Zm23.35,11.39c-7.75.68-10.54-9.78-5.11-11.37,8.53-2.52,12.46,10.73,5.11,11.37Zm18.65-.13c-7.98,1.62-10.63-9.97-4.98-11.24,8.27-1.86,12.27,9.75,4.98,11.24Zm77.81,2.2h-59.96c-1.19-2.04-9.29-14.41-8.1-15.64,17.65.63,35.89-.84,53.48-.03,2.58.12,5.93.52,8.31,1.06,1,2.88,7.28,10.8,7.06,13.29-.03.47-.49,1.31-.8,1.31Z"/>
    <path class="cls-1" d="m484.25,647.7h-101.15c4.38-3.32,6.12-8.79,4.43-14.08-.13-.41-.67-1.32-1.14-2.21-.07-.13-.15-.26-.2-.39-.03-.04-.06-.09-.06-.13-.09-.16-.17-.32-.23-.48-.07-.16-.13-.29-.16-.41-.09-.26-.1-.45-.03-.54h0c6.76-.01,12.1.16,18,.06,1.62-.03,3.06-.07,4.66-.09,7.7-.12,15.39-.15,23.09-.1,14.56.04,29.13.31,43.66.54,2.34.03,4.7.07,7.05.1h0s-.01.01-.01.01c-.19.32-.38.63-.55.95-.29.54-.55,1.09-.77,1.63-.09.17-.16.35-.22.52-.1.25-.19.5-.28.74-.09.31-.17.63-.26.93-.07.32-.13.64-.19.98-.06.32-.09.64-.12.96-.13,1.38,0,2.8.39,4.27.09.31.17.63.29.96.01.03.03.07.03.12.12.32.25.64.38.96l3.39,4.7Z"/>
    <path class="cls-1" d="m146.4,452.15l-6.52,12.52h-44.57v17.73l7.03-12h84.46l.79.79v26.32h11.98v-45.37h-53.17Zm50.27,33.79c-1.25,1.31-3.14,1.78-4.8,1.05-.54-.23-1.05-.6-1.51-1.11-2.56-2.81-1.47-5.87.61-7.53.26-.2.55-.39.84-.55.29-.16.6-.31.92-.41.39-.13.79-.21,1.18-.23.39-.02.77,0,1.15.1,0,0,0-.01.01,0,.38.1.76.28,1.09.51,0,0,0-.01.01,0,.17.12.33.26.48.42.55.57.99,1.37,1.24,2.48.52,2.24-.1,4.09-1.22,5.27Z"/>
    <polygon class="cls-1" points="174.56 525.15 174.56 561.66 103.13 561.66 103.13 552.79 138.32 552.79 153.43 525.15 174.56 525.15"/>
    <path class="cls-1" d="m212.1,647.7h-85.51c3.44-2.97,5.07-6.96,4.8-11.02,0-.09-.01-.19-.01-.28-.13-1.44-.48-2.88-1.09-4.3-.09-.23-.19-.45-.31-.68-.03-.09-.07-.17-.13-.26-.12-.25-.25-.48-.39-.73-.07-.15-.16-.31-.25-.45h-.01c1.3.19,2.66.1,4.03-.04.6-.07,1.21-.16,1.79-.22.39-.04.77-.09,1.15-.12.38-.03.76-.06,1.11-.06,5.52-.01,11.14-.04,16.67-.12,13.22-.19,26.47-.04,39.68.2,5.47.09,10.93.22,16.38.33h0c-2.17,4.75-3.44,9.54-.42,14.25.2.31.45.6.71.86.13.13.28.26.41.39.68.63,1.34,1.25,1.4,2.23Z"/>
    <rect class="cls-1" x="320.01" y="374.97" width="12" height="110.55"/>
    <path class="cls-1" d="m598.77,172.47c3.13-3.14,3.04-9.16-.33-12.1-6.2-5.4-8.2,2.91-10.7,2.91-1.54,0-1.02-2.18-2.15-2.56-.5-.17-3.68-.17-3.81-.04.22,9.52-13.25,13.1-16.45,3.64-.13-.39-.55-5.77-1.82-4.19.77,2.2-3.13,9.11-1.57,10.18.47.32,3.87.48,2.62,2.34-.36.52-4.7.13-5.24-.23-1.37-.92.31-3.58.01-3.93l-4.16,1.03c-.74,14.97,3.93,26.85,21.18,22.49,2.4-.61,4.48-1.91,6.97-2.15-1.27,5.65-6,10.51-11.94,10.99.13,4.54.35,11.04,5.97,11.91,9.14,1.44,18.26-8.31,16.41-17.44l-1.59-20.59c2.11.33,5.12-.77,6.61-2.26Zm-34.49,6.44c-.26-.04-.47-.13-.66-.23-.17-.12-.32-.23-.44-.38-.48-.63-.38-1.44.04-1.49.87.04,1.69.07,2.5-.04.22-.03.44-.07.64-.13h.01c.2-.06.42-.12.63-.2.25-.1.48-.25.7-.41l.31-.26c1.32-1.22,1.98-3.29,3.81-3.12.67,4.14-3.83,6.96-7.56,6.26Zm27.88-10.13c-.13.1-.28.17-.42.2-.12.03-.23.04-.35.01-2.18-.45,2.17-5.84,3.23-6.16.73-.22,2.13-.17,2.62.45.15.2.2.45.13.76-.06.23-.41.47-.86.71-.41.2-.89.42-1.31.64-.06.03-.13.07-.2.12-.2.12-.38.23-.5.35-.58.54-1.44,2.27-2.34,2.91Z"/>
    <path class="cls-1" d="m510.32,323.09v32.06h-.01s-33.36-22.68-33.36-22.68v-37.8c1.41.2,4.06-.45,5.21.25.48.29,3.06,5.9,4.18,7.29.19.23.38.45.58.66.41.41.83.74,1.25,1.05.22.16.42.31.64.44.17.12.34.22.49.32.38.25.73.47,1.02.68.09.07.19.15.28.22.09.06.16.13.23.22h.01c.47.47.92,1,1.35,1.57.45.57.89,1.18,1.33,1.79.44.63.87,1.24,1.32,1.83.44.6.9,1.16,1.37,1.67.26.29.52.57.79.86,1.06,1.08,2.13,2.08,3.23,3.03,1.41,1.21,2.88,2.29,4.44,3.31.42.28.86.55,1.31.83,1.35.83,2.8,1.62,4.31,2.4h.01Z"/>
    <path class="cls-1" d="m578.91,287.35l-2.39,24.01c-5.78.06-11.65,1.03-17.46.51-.63-.06-1.25-.13-1.89-.23-.39-.06-.79-.12-1.18-.19-.52-.09-1.06-.19-1.59-.31-.54-.12-1.06-.23-1.6-.36-.12-.01-.22-.04-.32-.07-.9-.22-1.82-.44-2.74-.67-1.16-.29-2.33-.6-3.49-.87-.55-.13-1.11-.26-1.67-.39-.55-.13-1.12-.25-1.67-.35-.01-.01-.04-.01-.06-.01-.54-.12-1.08-.2-1.6-.29-.55-.09-1.11-.17-1.65-.23-.36-.04-.71-.09-1.08-.12-.36-.03-.71-.06-1.08-.07l-.03-2.9h5.43l7.61.31v-.31h3.55l-3.55-8.02h-.01v-1.03c-.15-.01-.28-.04-.42-.06-.04-.01-.1-.01-.16-.01-.48-.07-.96-.13-1.44-.17-.52-.06-1.06-.12-1.59-.15-3.04-.23-6.12-.23-9.17-.17-2.58.04-6.71,1.91-8.01-1.19.66-2.24,2.93-2.52,4.96-2.9.44-.09.87-.16,1.31-.22.57-.07,1.15-.15,1.75-.19,2.49-.22,5.08-.2,7.66-.17.82.01,1.63.03,2.43.03,1.44.01,2.87.01,4.25-.03v-2.08c-.13.01-.26.03-.38.04h-.04c-.16.01-.31.03-.47.03h-.23c-.22,0-.44-.01-.66-.03-.35-.01-.68-.06-1.02-.1-.23-.03-.47-.07-.7-.1-.28-.04-.54-.09-.82-.13-.35-.06-.7-.12-1.06-.16-.36-.04-.74-.07-1.12-.09-3.76-.12-8.74,1.12-12.01.54-.68-.13-1.47-.5-1.3-1.3.42-.44.89-.83,1.38-1.18.22-.16.47-.32.7-.47.41-.25.83-.48,1.28-.67.2-.1.41-.19.63-.28.25-.1.49-.2.76-.29.25-.09.5-.16.74-.23.31-.09.61-.17.92-.25.31-.07.61-.15.93-.2.38-.07.76-.15,1.15-.19.32-.06.66-.1.98-.13.07-.01.13-.01.2-.03.51-.04,1.03-.09,1.54-.12.35-.03.71-.04,1.06-.06,1.11-.03,2.23-.03,3.32-.01.49.01.98.03,1.46.04,1.24.03,2.43.09,3.55.12,1.3.04,3.42,1.12,4.18.04l.23-1.57-5.21-.79c-1.12-1.4-1.78-3.14-1.56-4.95,11.37-1.18,18.19,9.22,28.45,11.44Z"/>
    <polygon class="cls-1" points="542.85 304.79 537.42 304.79 537.42 304.57 542.85 304.79"/>
    <path class="cls-1" d="m554.02,304.79h-3.55l-.04-1.75c-.6-.66-14.17-.99-16.67-1.82-1.14-.38-1.47-1.22-2.05-2.13.03-.29,2.05-1.3,2.34-1.3h16.42v-1.03l3.55,8.02Z"/>
    <path class="cls-1" d="m344.52,292.05c.55-2.3.41-4.03-.16-6.09-.1-.39-.22-.79-.35-1.21h134.77l2.34,7.29h-136.6Z"/>
    <path class="cls-1" d="m335.14,647.7h-60.48c5.53-4.27,6.62-11.75,2.61-17.49-.01-.2-.01-.36,0-.48,0-.04,0-.09.01-.12,0-.07.03-.12.06-.15t.01-.01c.17-.12.55.51.7.51h55.01c-.22.31-.44.61-.64.92-.15.23-.29.48-.41.71-.09.13-.15.25-.2.38-.31.58-.57,1.18-.77,1.78-.22.66-.38,1.31-.49,1.98-.71,4.34.95,8.81,4.6,11.97Z"/>
    <path class="cls-1" d="m339.3,294.54c-.16.41-.68,1.08-1.32,1.76-.51.55-1.09,1.14-1.6,1.63-.22.22-.44.41-.61.58-.22.2-.39.36-.51.48-.04.04-.09.07-.12.1-.31.29-.63.58-.96.89-.67.58-1.37,1.18-2.08,1.75-.36.29-.71.57-1.09.84-.73.57-1.47,1.09-2.21,1.6-.76.51-1.51.99-2.26,1.44h-78.99c.06-.07.13-.17.2-.26.38-.48.99-1.14,1.76-1.92.15-.16.31-.31.47-.47s.32-.33.5-.5c.67-.68,1.43-1.4,2.21-2.14.31-.29.61-.57.92-.86,1.11-1.03,2.27-2.07,3.39-3.04.45-.39.89-.76,1.32-1.12,1.3-1.08,2.5-2.02,3.49-2.71.31-.2.58-.38.83-.54.03,0,.06-.03.09-.04.25-.15.48-.26.68-.35.12-.04.22-.09.32-.1.09-.03.17-.04.25-.04.03,0,.07.01.12.03.63.23,2.75,1.85,5.04,2.43.35.09.71.15,1.06.17,7,.63,14.41.71,21.97.63,1.63-.03,3.28-.06,4.92-.1,2.87-.06,5.75-.15,8.63-.23,9.74-.31,19.47-.63,28.64-.33,1.75.06,3.12.07,4.94.03.07.07.07.2,0,.39Z"/>
    <path class="cls-1" d="m438.37,136.15l-93.08,32.32c-.06,0-.12.01-.16.01-.07,0-.13-.01-.19-.04-.07-.01-.13-.06-.19-.1-.06-.04-.12-.09-.15-.16-.06-.1-.1-.2-.13-.33-.03-.13-.04-.26-.04-.42,0-.93.5-2.23,1.09-2.77.04-.04.09-.09.13-.12.09-.06.19-.1.28-.13l56.99-18.88c.22-.58-.23-2.08-.79-2.08h-57.09l.06-2.02,15.84-5.27h77.43Z"/>
    <rect class="cls-1" x="320.01" y="543.92" width="12" height="65.71"/>
    <path class="cls-1" d="m477.48,255.04h-143.38l-1.03-5.21c20.59.06,41.2-.09,61.81-.03,24.59.06,49.47.92,74.02.57,2.37-.03,3.99-.51,5.21-.33.12.01.23.04.35.06.15.04.29.1.44.17.06.01.12.04.17.09.06.03.13.07.19.13.09.06.17.13.25.2.19.17.38.41.55.68.09.13.17.28.26.44.39.76.77,1.79,1.16,3.23Z"/>
    <polygon class="cls-1" points="332.01 488.39 332.01 541.84 320.01 541.84 320.01 487.6 331.22 487.6 331.22 487.62 332.01 488.39"/>
    <path class="cls-1" d="m211.05,210.72l-4.43,3.12c-.12.04-.23.15-.35.28-.03.03-.06.06-.09.09-.09.1-.19.22-.28.36-.09.13-.19.28-.28.44-.28.47-.54.99-.76,1.43-.12.25-.23.48-.33.66-.12.25-.22.41-.26.41h-96.46c-.32-.28-.03-.71.52-1.19.39-.33.93-.7,1.49-1.03.28-.16.55-.32.82-.48.26-.15.52-.28.76-.41.45-.23.8-.41.93-.47,1.28-.63,3.1-1.37,4.47-1.78.32-.1.64-.19.99-.28.6-.16,1.24-.31,1.92-.44.33-.07.68-.13,1.03-.19.36-.06.73-.12,1.12-.17.6-.09,1.24-.16,1.88-.25.04,0,.09-.01.15-.01,1.41-.16,2.9-.28,4.46-.36,1.12-.09,2.27-.13,3.45-.17.89-.03,1.79-.06,2.71-.07.9-.01,1.83-.03,2.77-.03,2.55-.03,5.18-.01,7.8.04.9.01,1.82.03,2.74.04,1.82.04,3.63.1,5.39.15,1.06.03,2.11.06,3.13.09,1.08.04,2.13.07,3.16.1.39.01.79.01,1.16.03,1.66.04,3.23.09,4.7.1.51.01,1.02.01,1.51.01.77.01,1.53.01,2.23.01.29,0,.58-.03.87-.07.19-.03.36-.06.55-.1.04,0,.09-.01.15-.03.29-.06.6-.12.9-.17.1-.01.19-.03.29-.04.1-.03.23-.04.33-.06.16-.03.31-.04.47-.06.19-.01.36-.03.55-.03,8.75-.07,17.57-.19,26.32.04,1.54.04,3.09.09,4.63.15.2,0,.41.01.61.03.93.03,1.85.07,2.78.13,1.16.06,2.33.13,3.48.2Z"/>
    <polygon class="cls-1" points="574.46 585.39 573.41 599.21 532.22 598.68 532.22 584.08 574.46 585.39"/>
    <path class="cls-1" d="m228.96,640.39c.5-2.23.36-4.51-.35-6.68-.09-.26-.17-.52-.29-.79-.03-.09-.06-.17-.12-.28-.12-.29-.25-.57-.39-.86-.31-.61-.68-1.22-1.09-1.81-.01,0-.01-.01-.01-.01,1.11-.04,2.21-.09,3.32-.12,1.19-.06,2.37-.09,3.57-.1,1.03-.01,2.05-.04,3.09-.04.77-.01,1.56-.03,2.34-.01,2.36-.03,4.7-.01,7.05.01,2.5.03,4.99.07,7.5.12,2.5.03,5.02.09,7.54.15h0s-.01.01-.01.01c-.04.07-.1.13-.13.2t-.03.03c-.17.22-.32.45-.47.67-.19.28-.35.55-.5.83-.16.28-.31.55-.42.83-.1.2-.19.41-.26.61-.23.52-.39,1.05-.52,1.57-.04.13-.07.26-.09.39-.04.16-.09.32-.1.47-.03.13-.04.26-.06.39-.2,1.27-.17,2.53.04,3.79.07.45.19.9.31,1.34.26.89.63,1.76,1.08,2.59.33.63.73,1.24,1.18,1.82.6.77,1.28,1.51,2.07,2.18h-39.11l3.04-2.96c.36-.55.67-1.12.93-1.7.26-.57.5-1.16.67-1.75.09-.31.17-.6.23-.9Z"/>
    <path class="cls-1" d="m659.94,592.41l-38.31,6.83-2.84-13.02h0s40.11-7.35,40.11-7.35c-.03,1.14-.01,2.27.04,3.41.01.54.04,1.06.09,1.6.04.64.09,1.3.15,1.94.09.96.19,1.94.31,2.91.15,1.22.29,2.46.45,3.68Z"/>
    <path class="cls-1" d="m176.64,525.15v46.42c2.85.09,5.75-.1,8.62-.03.83.03,3.89,1.08,3.89-.23v-46.15h-12.51Zm5.61,35.89c-.68-.13-1.27-.38-1.76-.7-.26-.16-.48-.35-.68-.55-2.65-2.62-1.6-8.21,1.91-8.98,1.75-.38,3.1.01,4.06.84.13.1.25.22.35.33,2.81,3.03,1.49,10.08-3.87,9.06Z"/>
    <path class="cls-1" d="m261.96,288.94c-.03.07-.06.15-.09.2-.06.17-.15.33-.26.49-.04.07-.1.16-.16.23-.16.2-.33.41-.54.6-.12.1-.23.2-.36.31-.13.1-.26.2-.39.31-.13.1-.26.19-.41.29-.32.22-.67.42-1,.64-.19.1-.36.2-.54.31-.06.03-.1.06-.15.09-.28.16-.54.32-.77.47-.13.09-.25.16-.35.23l-18.52-60.76c.1-2.29,2.94-4.25,4.7-5.46l18.93,60.89c.07.42.03.8-.09,1.16Z"/>
    <path class="cls-1" d="m568.23,643.46c-.02.39-.09.79-.19,1.19-.12.45-.29.9-.48,1.28-.06.13-.13.25-.2.36-.16.28-.35.51-.52.67-.04.04-.1.09-.16.12-.1.07-.2.1-.31.1h-70.38l-.73-.86,1.34-4.37h0s69.8-.54,69.8-.54c.22-.03.41-.03.57,0,.04-.01.07,0,.1.01.09.01.16.03.22.06.09.03.16.06.23.1.07.03.13.07.19.13.06.04.1.09.13.13.04.06.09.1.12.16.07.12.13.25.16.39.1.31.13.67.12,1.06Z"/>
    <path class="cls-1" d="m499.91,296.35c-1.09.9-2.52,1.79-3.61,2.62-.79.6-1.4,1.16-1.62,1.7-.22,1.43,1.38.36,2.34,1.28.42.41,1.05,2.34.77,2.62-7.79-.19-11.02-4.27-13.8-10.95-2.91-6.99-5.08-15.78.87-20.79.84-.71,1.85-1.35,3.03-1.89.2-.09.47-.19.77-.31,2.3-.83,7.16-1.98,7.54.38.19,1.18-2.52,2.84-5.39,4.54-1.3.79-2.64,1.59-3.74,2.36-2.01,1.38-3.28,2.69-2.31,3.71,1.32-.01,2.29-.74,3.31-1.47.55-.38,1.12-.76,1.76-1.02.45-.19,1.28-.42,2.27-.64,2.77-.61,6.81-1.08,7.56-.03.49.73.42,2.82-.29,3.44-.39.33-2.8.99-5.04,1.67-1.43.44-2.8.87-3.51,1.25-.19.1-.39.2-.58.29-1.63.83-3.33,1.75-2.87,3.81.34.33,1.91-.47,3.9-1.46,1.22-.6,2.62-1.28,3.97-1.81,2.48-.99,4.79-1.46,5.72-.03,1.65,2.53-1.14,3.79-3.65,4.76-.95.36-1.85.7-2.48,1.05-.23.12-.79.47-1.44.89-1.27.8-2.85,1.88-2.9,2.07l1.3,1.31c.51-.29,1.41-.83,2.48-1.38,1.27-.64,2.74-1.31,4.03-1.65,1.3-.35,2.4-.33,2.91.38.8,1.09-.01,2.2-1.31,3.28Z"/>
    <path class="cls-1" d="m255.27,293.99l-10.32,10.34-1.24.22c-.38-.12-1.37-1.56-1.37-1.79v-48.76l12.93,40Z"/>
    <path class="cls-1" d="m371.12,647.7h-23.99c1.59-1.49,2.77-3.07,3.54-4.75.29-.63.52-1.27.7-1.91.07-.22.12-.44.16-.66.04-.15.07-.31.09-.45.09-.47.15-.92.17-1.38.01-.26.03-.52.03-.79,0-.29-.01-.57-.03-.86,0-.17-.01-.36-.04-.54-.01-.12-.03-.23-.04-.35-.03-.26-.06-.52-.12-.79-.04-.28-.1-.57-.17-.84-.06-.26-.13-.52-.2-.79-.01-.06-.03-.1-.04-.16-.07-.25-.16-.49-.25-.76-.16-.45-.33-.9-.54-1.35-.19-.45-.41-.92-.64-1.37h19.29c-.41,1.67-1.65,2.71-1.95,4.56-.2,1.16-.29,2.27-.29,3.33,0,.26.01.52.03.79,0,.13.01.28.03.41.01.15.03.28.04.41.03.26.06.52.12.77.13.76.32,1.49.58,2.2.16.41.33.82.54,1.22.15.29.32.6.5.89.17.29.36.6.57.89.55.77,1.19,1.53,1.94,2.27Z"/>
    <path class="cls-1" d="m585.9,158.55c-.36.09-.7.15-1.02.2-.32.03-.61.06-.87.06-.2,0-.41-.01-.58-.04-.17-.01-.32-.04-.47-.09-.39-.12-.73-.28-1-.5-.09-.06-.17-.13-.25-.22-.63-.58-1.03-1.43-1.53-2.3-.06-.1-.13-.22-.2-.33-.13-.23-.28-.47-.44-.7-.22-.31-.45-.6-.73-.89-.15-.13-.29-.28-.45-.41-.87-.73-1.73-1.25-2.58-1.6-.2-.09-.41-.16-.63-.22-.2-.07-.41-.13-.61-.16-.17-.04-.35-.07-.52-.09h-.01c-.23-.03-.47-.04-.7-.04-.8,0-1.59.16-2.36.45-.29.1-.57.22-.84.36-.2.09-.39.19-.58.31-.2.12-.39.23-.6.38-.16.09-.32.2-.49.33-.44.31-.86.66-1.3,1.05-.09.09-.19.17-.26.26-.19.2-.36.42-.52.64-.58.8-1.06,1.66-1.85,1.92-.07.03-.15.04-.23.07h-.07c-.25.03-.54.01-.86-.09-.04-.01-.1-.04-.16-.07-.58-.38-1.6-1.81-2.58-2.96-.25-.31-.51-.6-.77-.84-.17-.19-.35-.35-.52-.47-.1-.07-.22-.15-.35-.2-.87-.44-2.2-.64-2.52-1.09-.86-1.25.39-3.73.31-5.21.86.15,1.7.23,2.55.26.33.03.68.03,1.02.03.38,0,.76,0,1.14-.03.35-.01.71-.04,1.06-.07.09,0,.17,0,.25-.01,1.06-.1,2.11-.26,3.16-.44.12-.03.23-.04.33-.06.63-.12,1.25-.25,1.88-.38.36-.09.74-.16,1.11-.25.58-.13,1.16-.26,1.76-.39.42-.09.84-.19,1.27-.28.84-.17,1.69-.35,2.53-.51.68-.13,1.35-.23,2.02-.32.36-.04.71-.09,1.08-.12,10.63-.98,9.19,7.48,8.01,15.04Z"/>
    <polygon class="cls-1" points="566.1 601.81 565.58 611.71 538.47 611.71 538.47 601.29 566.1 601.81"/>
    <path class="cls-1" d="m654.73,609.63c-.35.06-.61-.01-.86-.16-.17-.1-.35-.25-.51-.41-.09-.09-.16-.17-.25-.25-.25-.25-.51-.48-.83-.63-.95-.41-1.99-.7-3.1-.89-1.88-.33-3.9-.35-5.85-.09-.33.03-.67.09-1,.15-.15.03-.31.06-.45.09-.31.06-.61.13-.92.22-.16.03-.31.07-.44.12-.26.07-.51.15-.76.23-.77.25-1.5.54-2.17.89-2.37,1.21-3.45,3.64-5.79,4.38-.54-3.58-2.27-7.47-2.91-10.93-.12-.58-.42-.89.29-1.32l23.94-4.37,1.62,12.97Z"/>
    <path class="cls-1" d="m392.17,146.57s-.1.01-.16.01c-.19.01-.42.01-.67.12-1.63.66-4.37,1.67-7.31,2.69-.9.31-1.83.61-2.75.92-.92.29-1.82.58-2.69.84-.44.13-.87.26-1.28.38-1.09.32-2.11.58-2.97.79-.63.13-1.18.23-1.65.29-.25.03-.52.03-.8.01-.79-.04-1.65-.25-2.36-.31-.15-.01-.31-.03-.44-.03-.25,0-.47.03-.66.1-.06.03-.1.06-.16.1-.04.03-.1.07-.13.13-.07.09-.12.17-.13.29-.01.04-.03.09-.03.15-.01.09-.01.17-.01.28-.07-.01-.13-.03-.19-.04-.09-.03-.16-.06-.22-.09-.07-.04-.13-.09-.17-.15-.06-.06-.1-.13-.13-.2-.1-.29,0-.67.2-1.06h0s-21.93-.25-21.93-.25l-.49-5.5,47.45-.52c.01.12.04.22.04.32.07.58-.09.7-.36.73Z"/>
    <path class="cls-1" d="m370.59,339.52h-37.54v-5.74c8.65-.15,18.81-1.37,27.4-.55,2.97.28,7.63,4.38,10.13,6.29Z"/>
    <path class="cls-1" d="m332.01,611.71v15.65h-12c-.1-3.55.13-7.15.03-10.72-.03-.93-.03-2.37-.03-4.92h0s12-.01,12-.01Z"/>
    <path class="cls-1" d="m668.3,641.97c-.16,2.05-1.06,5.02-3.42,5.17-9.06-.55-19.23.89-28.14.07-3.77-.35-3.97-1.94-4.94-5.24h36.5Z"/>
    <path class="cls-1" d="m639.6,284.5c-.25.26-.47.6-.83.71-2.04.63-12.13.15-15.08.1-7.72-.15-15.7-.9-23.41-1.09-.95-.03-1.94-.01-2.96,0-1,.01-2.04.04-3.09.09-4.11.15-8.43.36-12.04.09-.44-.04-.84-.07-1.25-.13-.89-.1-1.81-.15-1.81-1.32l50.06.25-10.22-24.46,1.09-1.08,10.76,25.48c2.9.5,6.54-.96,8.78,1.37Z"/>
    <path class="cls-1" d="m571.17,153.98c-7.51,1.73-3.79,18.1,5.02,12.86,6.3-3.76,3.03-14.71-5.02-12.86Zm-.93,6.92c-.09-.9.57-2.04,1.43-2.26,3.39-.89,1.31,7.22-1.43,2.26Z"/>
    <polygon class="cls-1" points="366.41 154.39 345.04 161.7 345.04 154.39 366.41 154.39"/>
    <path class="cls-1" d="m555.68,153.87c-.19,3.74-1.44,8.08-1.06,11.76.2,2.15,1.4,1.94,3.1.98,4.63-2.59,4.08-12.51-2.04-12.74Zm1.08,8.31c-.42-1.16-.07-2.21.52-2.88.99-1.09,2.65-1.14,2.62,1.09-.01.68-.22,1.21-.54,1.56-.58.63-1.57.71-2.61.23Z"/>
    <path class="cls-1" d="m345.56,322.83h-12.51v-5.21s-.01-.01-.01-.01c1.82-.33,3.45-.19,4.94.28.26.09.52.17.77.28,1.32.52,2.58,1.3,3.77,2.2.41.31.82.63,1.22.95.41.33.8.67,1.21,1.02.2.16.41.33.61.51Z"/>
    <path class="cls-1" d="m553.07,153.87h0s-.49,9.13-.49,9.13c0,.15-.03.48-.06.9-.09.92-.22,2.26-.23,3-.17-.09-.33-.17-.49-.26s-.32-.19-.47-.29c-.29-.2-.57-.42-.83-.66-.38-.36-.71-.74-1-1.16-.12-.17-.23-.35-.33-.52-.36-.64-.63-1.32-.77-2.01-.04-.15-.07-.31-.09-.45-.03-.15-.04-.28-.06-.42-.03-.26-.04-.51-.04-.76,0-.22.01-.44.03-.64.01-.17.04-.35.07-.52.07-.48.2-.95.38-1.4.07-.2.16-.39.26-.58.1-.23.23-.45.38-.66.07-.12.16-.25.26-.36.04-.07.1-.15.16-.2.07-.1.16-.19.25-.28.03-.04.06-.07.12-.12.12-.13.25-.26.39-.38.15-.13.31-.25.47-.35.12-.09.23-.16.35-.25.19-.12.39-.22.61-.32.36-.17.74-.32,1.15-.44Z"/>
    <path class="cls-1" d="m655.08,618.88c0,.09-.01.17-.04.28-.03.06-.04.1-.07.16-.13.26-.38.57-.76.93-.09.07-.19.16-.29.25-3.58-1.19-6.83-.92-10.09-.04-.86.22-1.73.5-2.61.79-.87.29-1.75.6-2.64.92l-.29-1.57h0c.26-.23.54-.44.82-.63.28-.19.57-.38.87-.55.19-.12.39-.22.6-.32.63-.32,1.28-.58,1.95-.8.44-.15.89-.28,1.35-.38h.01c.45-.12.93-.2,1.4-.28.29-.04.58-.09.87-.12.47-.06.92-.1,1.37-.12.44-.03.87-.04,1.31-.04,1,0,2.01.06,2.96.17.74.09,1.46.19,2.04.36.07.01.16.04.23.07.51.17.87.41.98.73.01.06.03.13.03.19Z"/>
    <path class="cls-1" d="m655.88,626.04s-.1.09-.16.15c-.12.09-.25.19-.42.29-.09.04-.17.09-.28.15-.2-.03-.42-.04-.64-.06-.51-.07-1.03-.12-1.57-.16-.33-.03-.7-.06-1.05-.09-.35-.03-.7-.04-1.05-.06-.09-.01-.19-.01-.28-.01-.99-.04-1.97-.06-2.9,0-.29.01-.57.03-.84.07-.17,0-.33.01-.51.04-.22.03-.44.07-.66.13-.44.09-.86.23-1.28.41-.2.07-.42.15-.63.25-.84.35-1.67.73-2.53.98-.15.04-.29.09-.44.12-.15.03-.29.06-.44.09-.15.01-.29.04-.45.06-.2.01-.44.03-.66.01-.25-.25-.31-.51-.2-.79.01-.06.04-.12.09-.17.04-.07.07-.13.13-.19.15-.22.39-.45.68-.66.12-.09.23-.17.35-.25.13-.09.26-.16.39-.25.29-.17.6-.33.9-.48.15-.09.29-.16.45-.22.39-.19.76-.35,1.03-.45.16-.07.31-.13.41-.16.07-.03.12-.04.16-.06.25-.07.49-.16.74-.22.51-.15,1.05-.28,1.6-.39h.01c.55-.1,1.12-.2,1.7-.28.2-.03.44-.06.66-.07.22-.03.45-.04.67-.06.44-.03.87-.04,1.31-.04s.84.01,1.25.04c.32.03.64.06.95.1.36.06.71.12,1.05.19.35.09.67.17.99.28.26.09.49.17.71.28.1.04.2.1.29.15.19.1.35.22.45.32.34.31.36.66-.01,1.02Z"/>
    <path class="cls-1" d="m464.45,321.54c-.01.13-.06.25-.1.35-.03.09-.07.16-.13.22-.07.09-.17.16-.28.22-.07.03-.16.06-.25.07-.89.17-2.3-.57-2.93-.84-.22-.09-.44-.2-.67-.32-.23-.12-.47-.25-.71-.39-1.49-.83-3.16-2.01-4.28-3.13-.2-.2-.39-.41-.57-.61h9.9c-.09.86.01,1.83.06,2.77.03.58.03,1.16-.04,1.67Z"/>
    <path class="cls-1" d="m185.51,472.49v5.21c-1.95-.95-4.18-.39-6.26-.52.48-1.05.86-1.98,1.31-2.75.1-.19.22-.36.33-.54.13-.17.26-.33.39-.48.36-.41.79-.7,1.31-.87.26-.09.54-.15.86-.17.58-.06,1.25-.01,2.05.13Z"/>
    <polygon class="cls-1" points="506.67 629.97 500.67 633.52 498.33 629.97 506.67 629.97"/>
    <path d="m202.22,367.75c0,.07-.01.15-.03.2-.07.44-.25.89-.47,1.12-.1.1-.2.16-.32.16h-102.46v-2.08h103.23c.06.16.07.36.04.6Z"/>
    <path d="m478.35,557.65c-.83-.76-2.58-1.22-3.73-1.24l-106.55.38c-4.75,1.47-3.31,9.49,2.26,9.04h104.29c4.27.74,6.68-5.46,3.73-8.18Z"/>
    <polygon points="328.36 224.27 328.36 222.18 454.79 222.18 455.57 222.97 454.79 224.27 328.36 224.27"/>
    <rect x="464.44" y="222.18" width="12.51" height="2.09"/>
    <path d="m250.67,170.56l.48,1.77-.74.84h-77.16c-.98,0-.98-2.61,0-2.61h77.42Z"/>
    <path d="m263.71,154.39v2.61c-11.4,0-22.76-.59-34.17-.55-1.49,0-2.78.57-4.12.57-14.07.02-28.14.22-42.17-.63-1.19-.56-1.11-1.23-.08-2h80.55Z"/>
    <path d="m146.92,509l-.23,1.59c-.43.5-.99.45-1.57.52-7.78.9-16.24-.54-23.99-.57-8.81-.04-17.56.48-26.36.54v-2.08s52.14,0,52.14,0Z"/>
    <path d="m161.52,483.96c.21.61-.23,2.09-.78,2.09h-52.4v-2.09h53.18Z"/>
    <polygon points="140.67 520.98 140.67 523.07 88.27 523.07 87.49 522.28 88.27 520.98 140.67 520.98"/>
    <path d="m154.22,496.47c.21.61-.23,2.09-.78,2.09h-51.88v-2.09h52.66Z"/>
    <path d="m133.37,533.5v2.09h-52.66c-.21-.61.23-2.09.78-2.09h51.88Z"/>
    <path d="m96.35,422.94c.07.03.13.04.2.07-.07,0-.13-.03-.2-.06h0Z"/>
    <path d="m462.35,332.21v2.09h-80.55c-.55,0-.99-1.48-.78-2.09h81.33Z"/>
    <path d="m407.08,350.98l.3-2.09c18.08-.43,36.13.69,54.21.55,7.67-.06,16.32-1.6,23.98-.57,1.14.15,1.63.4,2.31,1.33-.91,1.14-2.03,1.21-3.35,1.33-6.71.61-13.7-.49-20.34-.57-14.23-.17-28.68.09-42.75,0-4.79-.03-9.58.07-14.36.02Z"/>
    <rect x="394.57" y="340.56" width="80.29" height="2.09"/>
    <polygon points="500.41 359.85 421.16 359.85 421.16 357.76 500.15 357.76 500.92 358.55 500.41 359.85"/>
    <path d="m449.8,323.91l.04,1.52c-1.98.09-4.01-.13-5.99,0-13.86.96-29.22.5-43.26.54-11.04.03-22.15.28-33.13-.54l.31-1.57,82.03.05Z"/>
    <path d="m468.35,262.33c-2.39-.54-5.74-.95-8.31-1.06-17.59-.82-35.83.66-53.48.03-1.19,1.22,6.9,13.6,8.1,15.64h59.96c.31,0,.77-.84.8-1.31.22-2.49-6.06-10.41-7.06-13.29Zm-2.08,1.57c.51,0,2.5,3.29,2.34,4.16h-9.65l-2.87-4.16h10.18Zm-13.05,0l2.34,3.39v.77s-8.08,0-8.08,0l-2.34-4.16h8.08Zm-10.69,0c-.04,1.88,2.05,2.61,2.1,4.16h-8.08l-2.36-4.16h8.34Zm-10.95,0l1.57,4.16h-7.56l-2.87-4.16h8.85Zm-21.9,0h10.18l2.34,4.16h-10.18l-2.34-4.16Zm6.52,10.95l-2.87-4.18h10.95l1.56,4.18h-9.64Zm13.03,0c-.54,0-2.77-3.81-2.34-4.16,5.71-.32,8.02-2.21,10.42,4.16h-8.08Zm10.95,0l-2.34-4.69h8.34l2.08,4.69h-8.08Zm19.03-.52l-7.03.52c-1.59-.15-2.93-3.19-2.87-4.69h7.56c.7.2,2.74,3.81,2.34,4.16Zm11.74,0h-9.13l-1.56-3.64c4.4-.15,11.01-2.77,12,3.38.26,1.65-1.09.26-1.31.26Z"/>
    <path d="m391.82,263.5c-5.65,1.27-3,12.86,4.98,11.24,7.29-1.49,3.29-13.1-4.98-11.24Zm4.46,9.19c-3.51.95-7.86-6.19-2.88-7.13,4.06-.77,6.86,6.07,2.88,7.13Z"/>
    <path d="m354.8,263.48c-5.46,1.22-3.2,11.41,3.54,11.41,8.34.01,4.79-13.25-3.54-11.41Zm5.24,8.63c-2.46,2.49-7.73-2.68-5.13-5.9,3.57-2.04,7.63,3.35,5.13,5.9Z"/>
    <path d="m373.04,263.5c-5.43,1.59-2.64,12.06,5.11,11.37,7.35-.64,3.42-13.89-5.11-11.37Zm6.29,8.62c-2.39,1.72-5.95-.22-6.55-2.85-1.6-7.05,9.41-2.8,6.55,2.85Z"/>
    <path d="m190.36,485.88c-5.48-5.98,5.7-13.16,7.54-5.2,1.28,5.55-4.38,8.66-7.54,5.2Z"/>
    <path d="m571.84,172.64c.67,4.14-3.82,6.96-7.56,6.26-1.6-.3-1.67-2.03-1.04-2.09,1.33.07,2.51.12,3.77-.39,2.1-.85,2.58-4,4.82-3.78Z"/>
    <path d="m594.63,162.83c.96-.29,3.07-.11,2.76,1.2-.14.59-2.22,1.22-2.88,1.82-.73.67-1.95,3.38-3.11,3.14-2.19-.45,2.16-5.83,3.23-6.16Z"/>
    <path d="m181.71,550.81c7.64-1.66,7.76,11.61.54,10.23-5.44-1.04-4.86-9.29-.54-10.23Z"/>
    <path d="m571.66,158.64c3.39-.88,1.32,7.22-1.42,2.26-.09-.9.57-2.04,1.42-2.26Z"/>
    <path d="m556.76,162.17c-1.13-3.09,3.17-5.35,3.14-1.78-.02,1.91-1.53,2.52-3.14,1.78Z"/>
    <path class="cls-1" d="m478.35,557.65c2.96,2.72.55,8.92-3.73,8.2l-104.3-.02c-5.56.45-7-7.57-2.26-9.04l106.56-.37c1.15.01,2.89.47,3.72,1.24Z"/>
    <polygon class="cls-1" points="422.21 268.07 412.04 268.07 409.69 263.9 419.86 263.9 422.21 268.07"/>
    <path class="cls-1" d="m468.61,268.07h-9.65l-2.87-4.17h10.17c.51,0,2.51,3.29,2.35,4.17Z"/>
    <polygon class="cls-1" points="424.29 270.68 425.86 274.85 416.21 274.85 413.34 270.68 424.29 270.68"/>
    <path class="cls-1" d="m461.83,274.33l-1.56-3.65c4.4-.14,11.01-2.76,12,3.38.27,1.64-1.09.26-1.31.26h-9.12Z"/>
    <polygon class="cls-1" points="446.19 270.16 448.27 274.85 440.19 274.85 437.85 270.16 446.19 270.16"/>
    <path class="cls-1" d="m437.33,274.85h-8.08c-.54,0-2.76-3.81-2.34-4.17,5.7-.31,8.01-2.21,10.42,4.17Z"/>
    <path class="cls-1" d="m456.88,270.16c.71.2,2.73,3.82,2.34,4.17l-7.03.53c-1.6-.15-2.93-3.19-2.88-4.7h7.56Z"/>
    <path class="cls-1" d="m442.54,263.9c-.05,1.88,2.04,2.61,2.09,4.17h-8.08l-2.35-4.17h8.34Z"/>
    <polygon class="cls-1" points="431.59 263.9 433.15 268.07 425.59 268.07 422.73 263.9 431.59 263.9"/>
    <polygon class="cls-1" points="455.57 268.07 447.49 268.07 445.15 263.9 453.23 263.9 455.57 267.3 455.57 268.07"/>
    <path class="cls-1" d="m393.4,265.55c4.06-.78,6.85,6.08,2.88,7.14-3.51.94-7.86-6.19-2.88-7.14Z"/>
    <path class="cls-1" d="m360.03,272.11c-2.46,2.5-7.73-2.69-5.12-5.9,3.57-2.04,7.63,3.35,5.12,5.9Z"/>
    <path class="cls-1" d="m379.33,272.11c-2.38,1.72-5.95-.22-6.54-2.85-1.6-7.04,9.41-2.8,6.54,2.85Z"/>
  </g>
  <rect class="cls-2" x="386.21" y="389.38" width="77.94" height="22.22" rx="6.79" ry="6.79"/>
  <rect class="cls-2" x="361.26" y="555.3" width="121.58" height="12.73" rx="3.89" ry="3.89"/>
  <rect class="cls-2" x="361.26" y="501.07" width="121.58" height="12.73" rx="3.89" ry="3.89"/>
  <rect class="cls-3" x="95.31" y="626.65" width="416.86" height="3.51"/>
  <path class="cls-3" d="m132.6,637.72c0,4.16-2.1,7.83-5.31,9.99-1.94,1.31-4.27,2.08-6.77,2.08s-4.83-.77-6.76-2.08c-3.22-2.15-5.31-5.82-5.31-9.99,0-2.87.99-5.49,2.65-7.56.15-.19.29-.36.45-.52h.01c.77-.89,1.7-1.66,2.72-2.27.44-.26.9-.51,1.37-.71h9.73c.48.2.93.45,1.38.71,1.18.71,2.23,1.62,3.1,2.68h.01s.04.07.07.12c1.66,2.07,2.65,4.69,2.65,7.56Z"/>
  <path class="cls-3" d="m231.13,637.72c0,4.16-2.11,7.83-5.31,9.99-1.94,1.31-4.27,2.08-6.77,2.08s-4.83-.77-6.77-2.08c-.06-.03-.13-.09-.19-.13-3.1-2.18-5.13-5.78-5.13-9.86,0-2.87.99-5.49,2.65-7.56.04-.06.1-.12.15-.17,0-.01.01-.01.01-.01,1.19-1.43,2.69-2.56,4.41-3.32h9.73c.47.2.93.45,1.37.71,1.14.68,2.14,1.54,3,2.55h0s.01.01.01.01c.06.07.12.15.19.23,1.66,2.07,2.65,4.69,2.65,7.56Z"/>
  <path class="cls-3" d="m280.13,637.72c0,4.16-2.1,7.83-5.31,9.99-1.92,1.31-4.25,2.08-6.76,2.08s-4.83-.77-6.77-2.08c-3.2-2.15-5.31-5.82-5.31-9.99,0-2.87.99-5.49,2.65-7.56.06-.07.12-.15.17-.22h.01s.01-.03.01-.03c.86-1,1.86-1.86,2.98-2.55.45-.26.9-.51,1.38-.71h9.73c.47.2.93.45,1.37.71,1.12.67,2.11,1.53,2.96,2.52.07.09.16.17.23.28,1.66,2.07,2.65,4.69,2.65,7.56Z"/>
  <path class="cls-3" d="m353.59,637.72c0,4.16-2.11,7.83-5.31,9.99-1.94,1.31-4.27,2.08-6.77,2.08s-4.83-.77-6.76-2.08c-3.22-2.15-5.31-5.82-5.31-9.99,0-2.87.99-5.49,2.65-7.56.06-.07.1-.13.16-.19.86-1.03,1.88-1.91,3.03-2.61.44-.26.9-.51,1.37-.71h9.73c.48.2.93.45,1.38.71,1.14.7,2.17,1.57,3.03,2.61.06.06.1.12.16.19,1.66,2.07,2.65,4.69,2.65,7.56Z"/>
  <path class="cls-3" d="m388.04,637.72c0,4.16-2.1,7.83-5.31,9.99-1.92,1.31-4.25,2.08-6.76,2.08s-4.83-.77-6.77-2.08c-3.2-2.15-5.31-5.82-5.31-9.99,0-2.87.99-5.49,2.65-7.56.06-.07.1-.13.16-.19.86-1.03,1.89-1.91,3.04-2.61.44-.26.9-.51,1.37-.71h9.73c.47.2.93.45,1.37.71,1.22.73,2.3,1.69,3.19,2.8,1.66,2.07,2.65,4.69,2.65,7.56Z"/>
  <path class="cls-3" d="m491.74,637.72c0,4.16-2.11,7.83-5.31,9.99-1.94,1.31-4.27,2.08-6.77,2.08s-4.83-.77-6.77-2.08c-3.2-2.15-5.31-5.82-5.31-9.99,0-2.87.99-5.49,2.65-7.56.1-.13.2-.25.31-.36.83-.96,1.81-1.78,2.9-2.43.44-.26.9-.51,1.37-.71h9.73c.47.2.93.45,1.37.71,1.22.73,2.31,1.69,3.2,2.8,1.66,2.07,2.65,4.69,2.65,7.56Z"/>
  <rect x="319.15" y="373.54" width="193.25" height="1.44"/>
  <rect x="319.15" y="486.89" width="193.25" height="1.44"/>
  <rect x="319.15" y="541.13" width="193.25" height="1.44"/>
  <rect x="510.08" y="543.05" width="1.44" height="92.35"/>
  <path d="m104.14,217.49h100.75v3.29h-102.76v-1.28c0-1.11.9-2.01,2.01-2.01Z"/>
  <rect x="123.22" y="209.58" width="88.87" height="1.09"/>
  <rect x="131.81" y="208.1" width="26.06" height="1.48"/>
  <polygon points="94.07 227.43 91.46 228.07 90.97 297.41 94.07 297.41 94.07 227.43"/>
  <rect x="43.56" y="306.66" width="82.65" height="2.64"/>
  <rect x="189.15" y="523.07" width="2.69" height="50.91"/>
  <rect x="173.61" y="570.61" width="18.23" height="3.37"/>
  <rect x="161.06" y="422.44" width="27.46" height="2.1"/>
  <rect x="187.24" y="381.11" width="2.46" height="43.43"/>
  <rect x="98.98" y="369.44" width="2.32" height="11.57"/>
  <rect x="101" y="381.11" width="88.7" height="2.68"/>
  <rect x="91.63" y="382.19" width="1.85" height="10.19"/>
  <polygon points="343.54 290.71 343.54 294.83 257.68 294.83 260.92 290.71 343.54 290.71"/>
  <rect x="242.33" y="307.55" width="77.72" height="2.22"/>
  <polygon points="374.78 153.83 345.04 153.83 345.04 150.71 380.91 150.71 374.78 153.83"/>
  <rect x="344.43" y="133.76" width="1.75" height="36.02"/>
  <rect x="360.59" y="132.95" width="87.68" height="3.19"/>
  <rect x="344.9" y="135.58" width="16.72" height="1.85" transform="translate(-25.12 120.46) rotate(-18.7)"/>
  <path d="m490.83,275.55c-1.3.79-2.64,1.59-3.74,2.36l.99,2.24c.55-.38,1.12-.76,1.76-1.02.45-.19,1.28-.42,2.27-.64l-1.28-2.94Zm3.51,8.02c-1.43.44-2.8.87-3.51,1.25-.19.1-.39.2-.58.29l1.03,2.36c1.22-.6,2.62-1.28,3.97-1.81l-.92-2.1Zm-3.51-8.02c-1.3.79-2.64,1.59-3.74,2.36l.99,2.24c.55-.38,1.12-.76,1.76-1.02.45-.19,1.28-.42,2.27-.64l-1.28-2.94Zm3.51,8.02c-1.43.44-2.8.87-3.51,1.25-.19.1-.39.2-.58.29l1.03,2.36c1.22-.6,2.62-1.28,3.97-1.81l-.92-2.1Zm2.98,6.83c-.95.36-1.85.7-2.48,1.05-.23.12-.79.47-1.44.89l.87,1.99c1.27-.64,2.74-1.31,4.03-1.65l-.99-2.29Zm-6.49-14.85c-1.3.79-2.64,1.59-3.74,2.36l.99,2.24c.55-.38,1.12-.76,1.76-1.02.45-.19,1.28-.42,2.27-.64l-1.28-2.94Zm3.51,8.02c-1.43.44-2.8.87-3.51,1.25-.19.1-.39.2-.58.29l1.03,2.36c1.22-.6,2.62-1.28,3.97-1.81l-.92-2.1Zm2.98,6.83c-.95.36-1.85.7-2.48,1.05-.23.12-.79.47-1.44.89l.87,1.99c1.27-.64,2.74-1.31,4.03-1.65l-.99-2.29Zm-6.49-14.85c-1.3.79-2.64,1.59-3.74,2.36l.99,2.24c.55-.38,1.12-.76,1.76-1.02.45-.19,1.28-.42,2.27-.64l-1.28-2.94Zm3.51,8.02c-1.43.44-2.8.87-3.51,1.25-.19.1-.39.2-.58.29l1.03,2.36c1.22-.6,2.62-1.28,3.97-1.81l-.92-2.1Zm2.98,6.83c-.95.36-1.85.7-2.48,1.05-.23.12-.79.47-1.44.89l.87,1.99c1.27-.64,2.74-1.31,4.03-1.65l-.99-2.29Zm54.32-1.95h-.04c-.16.01-.31.03-.47.03h-.23c-.22,0-.44-.01-.66-.03-.35-.01-.68-.06-1.02-.1-.23-.03-.47-.07-.7-.1-.28-.04-.54-.09-.82-.13-.35-.06-.7-.12-1.06-.16l1.12,2.56c1.44.01,2.87.01,4.25-.03v-1.16l-.38-.87Zm-1.18,16.64v-.31h-7.61l7.61.31Zm-.44-9.42l.42.98v-.92c-.15-.01-.28-.04-.42-.06Zm-6.55-14.98l1.02,2.33c1.11-.03,2.23-.03,3.32-.01.5.01.98.03,1.46.04l-1.14-2.61-10.61-24.27-.19-.42-5.4-12.35-.44-1c-.32-.73-1.03-1.24-1.83-1.3-.06-.01-.12-.01-.17-.01h-55.17c-.73,0-1.43.38-1.82.99-.41.63-.47,1.4-.17,2.07l1.57,3.58,1.14,2.59h0s2.05,4.72,2.05,4.72l1.18,2.68,5.55,12.68,1.06,2.43c.84-.71,1.85-1.35,3.03-1.89.2-.09.47-.19.77-.31l-.96-2.21-10.05-22.96h50.41s.07.19.07.19h0s15.33,35.05,15.33,35.05Zm-48.63,10.76c-.23.12-.79.47-1.44.89l.87,1.99c1.27-.64,2.74-1.31,4.03-1.65l-.99-2.29c-.95.36-1.85.7-2.48,1.05Zm-.51-7.88c-1.43.44-2.8.87-3.51,1.25-.19.1-.39.2-.58.29l1.03,2.36c1.22-.6,2.62-1.28,3.97-1.81l-.92-2.1Zm-3.51-8.02c-1.3.79-2.64,1.59-3.74,2.36l.99,2.24c.55-.38,1.12-.76,1.76-1.02.45-.19,1.28-.42,2.27-.64l-1.28-2.94Zm60.82,12.9h-.04c-.16.01-.31.03-.47.03h-.23c-.22,0-.44-.01-.66-.03-.35-.01-.68-.06-1.02-.1-.23-.03-.47-.07-.7-.1-.28-.04-.54-.09-.82-.13-.35-.06-.7-.12-1.06-.16l1.12,2.56c1.44.01,2.87.01,4.25-.03v-1.16l-.38-.87Zm-1.18,16.64v-.31h-7.61l7.61.31Zm-.44-9.42l.42.98v-.92c-.15-.01-.28-.04-.42-.06Zm-7.12,12.74s-.04-.01-.06-.01c-.54-.1-1.06-.2-1.6-.29-.55-.09-1.11-.17-1.65-.23-.36-.04-.71-.09-1.08-.12-.36-.03-.71-.06-1.08-.07l-.03-2.9h-33.81l-2.77-6.32-.93-2.13c-1.09.9-2.52,1.79-3.61,2.62l3.89,8.88c.35.8,1.14,1.31,1.99,1.31h44.07c-.55-.13-1.11-.26-1.67-.39-.55-.13-1.12-.25-1.67-.35Zm-45.59-18.01c-.95.36-1.85.7-2.48,1.05-.23.12-.79.47-1.44.89l.87,1.99c1.27-.64,2.74-1.31,4.03-1.65l-.99-2.29Zm-2.98-6.83c-1.43.44-2.8.87-3.51,1.25-.19.1-.39.2-.58.29l1.03,2.36c1.22-.6,2.62-1.28,3.97-1.81l-.92-2.1Zm-3.51-8.02c-1.3.79-2.64,1.59-3.74,2.36l.99,2.24c.55-.38,1.12-.76,1.76-1.02.45-.19,1.28-.42,2.27-.64l-1.28-2.94Zm6.49,14.85c-.95.36-1.85.7-2.48,1.05-.23.12-.79.47-1.44.89l.87,1.99c1.27-.64,2.74-1.31,4.03-1.65l-.99-2.29Zm-2.98-6.83c-1.43.44-2.8.87-3.51,1.25-.19.1-.39.2-.58.29l1.03,2.36c1.22-.6,2.62-1.28,3.97-1.81l-.92-2.1Zm-3.51-8.02c-1.3.79-2.64,1.59-3.74,2.36l.99,2.24c.55-.38,1.12-.76,1.76-1.02.45-.19,1.28-.42,2.27-.64l-1.28-2.94Zm6.49,14.85c-.95.36-1.85.7-2.48,1.05-.23.12-.79.47-1.44.89l.87,1.99c1.27-.64,2.74-1.31,4.03-1.65l-.99-2.29Zm-2.98-6.83c-1.43.44-2.8.87-3.51,1.25-.19.1-.39.2-.58.29l1.03,2.36c1.22-.6,2.62-1.28,3.97-1.81l-.92-2.1Zm-3.51-8.02c-1.3.79-2.64,1.59-3.74,2.36l.99,2.24c.55-.38,1.12-.76,1.76-1.02.45-.19,1.28-.42,2.27-.64l-1.28-2.94Zm0,0c-1.3.79-2.64,1.59-3.74,2.36l.99,2.24c.55-.38,1.12-.76,1.76-1.02.45-.19,1.28-.42,2.27-.64l-1.28-2.94Zm0,0c-1.3.79-2.64,1.59-3.74,2.36l.99,2.24c.55-.38,1.12-.76,1.76-1.02.45-.19,1.28-.42,2.27-.64l-1.28-2.94Zm3.51,8.02c-1.43.44-2.8.87-3.51,1.25-.19.1-.39.2-.58.29l1.03,2.36c1.22-.6,2.62-1.28,3.97-1.81l-.92-2.1Zm2.98,6.83c-.95.36-1.85.7-2.48,1.05-.23.12-.79.47-1.44.89l.87,1.99c1.27-.64,2.74-1.31,4.03-1.65l-.99-2.29Zm52.71,5.27l.42.98v-.92c-.15-.01-.28-.04-.42-.06Zm-7.18,9.11l7.61.31v-.31h-7.61Zm8.79-16.34h-.04c-.16.01-.31.03-.47.03h-.23c-.22,0-.44-.01-.66-.03-.35-.01-.68-.06-1.02-.1-.23-.03-.47-.07-.7-.1-.28-.04-.54-.09-.82-.13-.35-.06-.7-.12-1.06-.16l1.12,2.56c1.44.01,2.87.01,4.25-.03v-1.16l-.38-.87Z"/>
  <rect x="47.17" y="647.7" width="648.24" height="2.63"/>
  <rect x="106.56" y="394.45" width="56.26" height="2.06"/>
  <rect x="103.4" y="400.76" width="56.26" height="2.06"/>
  <rect x="100.25" y="407.08" width="56.26" height="2.06"/>
  <rect x="97.09" y="413.39" width="56.26" height="2.06"/>
  <rect x="93.94" y="419.71" width="56.26" height="2.06"/>
  <rect x="90.78" y="426.02" width="56.26" height="2.06"/>
  <rect x="87.63" y="432.33" width="56.26" height="2.06"/>
  <rect x="84.47" y="438.65" width="56.26" height="2.06"/>
  <rect x="81.32" y="444.96" width="56.26" height="2.06"/>
  <rect x="78.16" y="451.28" width="56.26" height="2.06"/>
  <rect x="252.5" y="228.75" width="49.36" height="2.61"/>
  <rect x="254.38" y="235.49" width="49.36" height="2.61"/>
  <rect x="256.27" y="242.22" width="49.36" height="2.61"/>
  <rect x="258.15" y="248.96" width="49.36" height="2.61"/>
  <rect x="260.04" y="255.7" width="49.36" height="2.61"/>
  <rect x="261.92" y="262.44" width="49.36" height="2.61"/>
  <rect x="263.81" y="269.18" width="49.36" height="2.61"/>
  <rect x="265.69" y="275.92" width="49.36" height="2.61"/>
  <rect x="267.58" y="282.66" width="49.36" height="2.61"/>
  <ellipse class="cls-4" cx="314.44" cy="235.49" rx="7.18" ry="8.2" transform="translate(-52.5 375.77) rotate(-57.75)"/>
  <rect class="cls-4" x="171.22" y="169.59" width="81.92" height="4.49"/>
  <rect class="cls-4" x="182.08" y="153.48" width="81.92" height="4.49"/>
  <polygon class="cls-5" points="64.93 98.77 62.24 96.09 51.19 107.14 40.13 96.09 37.44 98.77 48.5 109.83 37.44 120.88 40.13 123.57 51.19 112.52 62.24 123.57 64.93 120.88 53.87 109.83 64.93 98.77"/>
  <polygon class="cls-5" points="759.91 232.13 754.38 226.6 731.64 249.34 708.91 226.6 703.37 232.13 726.11 254.87 703.37 277.6 708.91 283.14 731.64 260.4 754.38 283.14 759.91 277.6 737.17 254.87 759.91 232.13"/>
</svg>