<?xml version="1.0" encoding="UTF-8"?>
<svg id="Layer_1" data-name="Layer 1" xmlns="http://www.w3.org/2000/svg" xmlns:xlink="http://www.w3.org/1999/xlink" viewBox="0 0 770.86 746.41">
  <defs>
    <style>
      .cls-1, .cls-2, .cls-3 {
        fill: #fff;
      }

      .cls-4, .cls-5, .cls-2, .cls-6, .cls-7, .cls-8, .cls-3, .cls-9 {
        stroke: #000;
      }

      .cls-4, .cls-5, .cls-10, .cls-7, .cls-3, .cls-9 {
        stroke-miterlimit: 10;
      }

      .cls-4, .cls-10, .cls-6 {
        fill: none;
      }

      .cls-2, .cls-6, .cls-8 {
        stroke-linecap: round;
        stroke-linejoin: round;
      }

      .cls-10 {
        stroke: #66bb46;
        stroke-width: 3px;
      }

      .cls-11 {
        clip-path: url(#clippath-1);
      }

      .cls-7, .cls-8 {
        fill: #d1d1d1;
      }

      .cls-12 {
        clip-path: url(#clippath);
      }

      .cls-13, .cls-9 {
        fill: #66bb46;
      }
    </style>
    <clipPath id="clippath">
      <rect class="cls-5" x="299.37" y="352.96" width="228.26" height="107.13"/>
    </clipPath>
    <clipPath id="clippath-1">
      <polygon class="cls-3" points="538.4 606.62 334.95 606.62 323.57 449.22 527.03 449.22 538.4 606.62"/>
    </clipPath>
  </defs>
  <circle class="cls-13" cx="351.16" cy="293.69" r="158.58"/>
  <g>
    <rect x="299.37" y="352.96" width="228.26" height="107.13"/>
    <g class="cls-12">
      <rect class="cls-1" x="276.09" y="377.79" width="290.51" height="3.54"/>
      <rect class="cls-1" x="276.09" y="396.26" width="290.51" height="3.54"/>
      <rect class="cls-1" x="276.09" y="414.74" width="290.51" height="3.54"/>
      <rect class="cls-1" x="276.09" y="433.21" width="290.51" height="11.3"/>
    </g>
    <rect class="cls-4" x="299.37" y="352.96" width="228.26" height="107.13"/>
  </g>
  <rect x="148.12" y="652.58" width="6.58" height="11.39"/>
  <path d="m161.49,670.42c0-4.4-4.51-7.97-10.08-7.97s-10.08,3.57-10.08,7.97,4.51,4.77,10.08,4.77,10.08-.36,10.08-4.77Z"/>
  <rect x="230.62" y="652.58" width="6.58" height="11.39"/>
  <path d="m243.99,670.42c0-4.4-4.51-7.97-10.08-7.97s-10.08,3.57-10.08,7.97,4.51,4.77,10.08,4.77,10.08-.36,10.08-4.77Z"/>
  <rect x="286.63" y="652.58" width="6.58" height="11.39"/>
  <path d="m300,670.42c0-4.4-4.51-7.97-10.08-7.97s-10.08,3.57-10.08,7.97,4.51,4.77,10.08,4.77,10.08-.36,10.08-4.77Z"/>
  <rect x="462.59" y="652.58" width="6.58" height="11.39"/>
  <path d="m475.96,670.42c0-4.4-4.51-7.97-10.08-7.97s-10.08,3.57-10.08,7.97,4.51,4.77,10.08,4.77,10.08-.36,10.08-4.77Z"/>
  <rect x="566.6" y="652.58" width="6.58" height="11.39"/>
  <path d="m579.97,670.42c0-4.4-4.51-7.97-10.08-7.97s-10.08,3.57-10.08,7.97,4.51,4.77,10.08,4.77,10.08-.36,10.08-4.77Z"/>
  <rect class="cls-3" x="308.98" y="460.09" width="290.26" height="192.49"/>
  <path class="cls-3" d="m540.1,360.41c3.74-.32,6.47-3.7,6.47-7.45v-98.08c0-7.56-6.13-13.68-13.68-13.68h-52.5c-3.75,0-7.13,2.74-7.45,6.47-.37,4.21,2.95,7.75,7.08,7.75h45.83c3.59,0,6.5,2.91,6.5,6.5v91.4c0,4.14,3.53,7.45,7.75,7.08Z"/>
  <path class="cls-3" d="m528.61,248.11c0-13.8-7.66-25.16-17.51-26.71l-45.69-.2h-159.12v53.63h154.55c.74.11,1.5.19,2.26.19s1.52-.07,2.26-.19h45.73c9.86-1.56,17.51-12.92,17.51-26.72Z"/>
  <ellipse class="cls-3" cx="307.55" cy="248.11" rx="19.82" ry="26.91"/>
  <polygon class="cls-5" points="555.33 435.63 540.29 460.09 527.63 460.09 527.63 352.96 529.48 352.96 555.33 435.63"/>
  <polygon class="cls-3" points="619.99 435.63 599.24 460.09 540.29 460.09 555.33 435.63 529.48 352.96 594.56 352.96 619.99 435.63"/>
  <path class="cls-3" d="m273.28,349.7c-3.74-.32-6.47-3.7-6.47-7.45v-87.37c0-7.56,6.13-13.68,13.68-13.68h26.11c3.75,0,5.46,2.72,5.51,6.47.06,4.65-1,7.75-5.14,7.75h-19.43c-3.59,0-6.5,2.91-6.5,6.5v80.69c0,4.14-3.53,7.45-7.75,7.08Z"/>
  <polygon class="cls-3" points="517.15 352.78 313.69 352.78 302.32 274.77 505.77 274.77 517.15 352.78"/>
  <g>
    <polygon class="cls-1" points="538.4 606.62 334.95 606.62 323.57 449.22 527.03 449.22 538.4 606.62"/>
    <g class="cls-11">
      <polygon class="cls-13" points="415.94 504.64 353.52 504.64 347.79 433.38 410.21 433.38 415.94 504.64"/>
      <polygon class="cls-13" points="511.26 587.39 448.84 587.39 443.1 516.13 505.53 516.13 511.26 587.39"/>
      <ellipse class="cls-10" cx="468.14" cy="479.9" rx="23.67" ry="25.72" transform="translate(-202.26 485.5) rotate(-46.19)"/>
      <polygon class="cls-10" points="415.35 559.97 396.85 564.18 390.92 582.44 379.94 565.42 360.62 563.98 372.33 549.24 366.32 530.09 384.55 538 400.15 527.61 399.7 547.24 415.35 559.97"/>
    </g>
    <polygon class="cls-4" points="538.4 606.62 334.95 606.62 323.57 449.22 527.03 449.22 538.4 606.62"/>
  </g>
  <line class="cls-5" x1="555.33" y1="435.63" x2="619.99" y2="435.63"/>
  <rect class="cls-4" x="308.98" y="632.11" width="232.5" height="20.47"/>
  <rect class="cls-4" x="541.48" y="460.09" width="57.76" height="192.49"/>
  <polygon class="cls-9" points="599 394.25 549.86 394.25 540.1 360.49 589.23 360.49 599 394.25"/>
  <g>
    <ellipse class="cls-3" cx="559.53" cy="404.77" rx="5.6" ry="6.39" transform="translate(-118.36 536.6) rotate(-46.89)"/>
    <ellipse class="cls-3" cx="576.94" cy="404.77" rx="5.6" ry="6.39" transform="translate(-112.85 549.31) rotate(-46.89)"/>
    <ellipse class="cls-3" cx="594.35" cy="404.77" rx="5.6" ry="6.39" transform="translate(-107.34 562.02) rotate(-46.89)"/>
    <ellipse class="cls-3" cx="566.81" cy="422.58" rx="5.6" ry="6.39" transform="translate(-129.06 547.55) rotate(-46.89)"/>
    <ellipse class="cls-3" cx="584.23" cy="422.58" rx="5.6" ry="6.39" transform="translate(-123.54 560.26) rotate(-46.89)"/>
    <ellipse class="cls-3" cx="601.64" cy="422.58" rx="5.6" ry="6.39" transform="translate(-118.03 572.97) rotate(-46.89)"/>
  </g>
  <path class="cls-3" d="m320.5,411.75c0-20.97-9.49-73.39-37.71-73.39h-123.68c-6.6,0-11.96,5.39-11.96,12.04v12.17h-2.02c-9.01,0-16.32,7.36-16.32,16.44v273.57h180.18v-192.37l11.51-15.58v-32.88Z"/>
  <path class="cls-7" d="m243.95,442.88c-4.56,5.64-9.11,11.3-13.67,16.94v192.75h-101.48v-273.56c0-9.08,7.3-16.43,16.31-16.43h2.03v-12.18c0-6.64,5.35-12.03,11.94-12.03h51.87c1.12.44,3.29,1.58,5.4,2.86,20.18,12.27,23.53,42.5,26.31,70.85.73,7.32,1.46,17.89,1.27,30.8Z"/>
  <path class="cls-4" d="m155.8,383.4h27.46c12,0,21.72,9.72,21.72,21.72v24.52"/>
  <rect x="205.49" y="508.63" width="9.19" height="45.04" rx="2.27" ry="2.27"/>
  <line class="cls-6" x1="166.43" y1="620.47" x2="203.71" y2="620.47"/>
  <line class="cls-6" x1="166.43" y1="627.89" x2="203.71" y2="627.89"/>
  <line class="cls-6" x1="166.43" y1="635.32" x2="203.71" y2="635.32"/>
  <polygon class="cls-6" points="243.96 442.87 320.5 442.87 308.98 460.09 230.29 460.09 243.96 442.87"/>
  <line class="cls-8" x1="592.05" y1="110.44" x2="647.94" y2="110.44"/>
  <line class="cls-8" x1="652.45" y1="110.44" x2="666.24" y2="110.44"/>
  <line class="cls-8" x1="586.22" y1="122.3" x2="639.89" y2="122.3"/>
  <line class="cls-8" x1="138.43" y1="107.45" x2="195.87" y2="107.45"/>
  <line class="cls-8" x1="200.51" y1="107.45" x2="214.68" y2="107.45"/>
  <line class="cls-8" x1="132.44" y1="119.64" x2="187.6" y2="119.64"/>
  <rect class="cls-2" x="58.39" y="175.99" width="90.43" height="90.43"/>
  <circle class="cls-2" cx="705.39" cy="384.7" r="32.34"/>
  <circle class="cls-2" cx="673.96" cy="252.97" r="12.4"/>
  <circle class="cls-2" cx="546.57" cy="202.25" r="12.96"/>
  <circle class="cls-6" cx="374.91" cy="171.72" r="7.69"/>
  <circle class="cls-2" cx="449.48" cy="92.82" r="20.72"/>
  <circle class="cls-2" cx="52.1" cy="346.76" r="18.97"/>
</svg>