<?xml version="1.0" encoding="UTF-8"?>
<svg id="Layer_1" data-name="Layer 1" xmlns="http://www.w3.org/2000/svg" viewBox="0 0 1920 513.14">
  <defs>
    <style>
      .cls-1 {
        fill: #66bb46;
      }

      .cls-1, .cls-2 {
        fill-rule: evenodd;
      }
    </style>
  </defs>
  <path class="cls-2" d="m519.59,384.49c47.97,0,58.08-45.29,58.08-117.27v-21.31c0-71.93-10.12-117.26-58.08-117.26h-5.34c-47.97,0-58.08,45.33-58.08,117.26v21.31c0,71.97,10.12,117.27,58.08,117.27h5.34Zm-166.29-117.27v-21.31c0-143.91,51.71-204.65,163.62-204.65s163.62,60.75,163.62,204.65v21.31c0,143.9-51.69,204.66-163.62,204.66s-163.62-60.76-163.62-204.66"/>
  <rect x="727.45" y="48.72" width="101.27" height="415.71"/>
  <path class="cls-2" d="m1001.64,291.77h51.16l-25.57-126.86-25.59,126.86Zm94.86-244.1l99.15,415.71h-108.21l-17.03-84.19h-86.35l-16.53,84.19h-108.73l99.13-415.71h138.57Z"/>
  <path class="cls-2" d="m1370.46,233.15c19.72,0,43.17-7.47,43.17-46.9v-4.28c0-39.43-23.45-46.89-43.17-46.89h-46.37v98.07h46.37Zm-46.37,230.25h-101.25V47.69h143.36c70.33,0,149.76,15.99,149.76,131.1v10.66c0,67.67-27.2,100.73-63.95,117.24l63.95,156.71h-109.25l-54.36-142.84h-28.25v142.84Z"/>
  <polygon class="cls-2" points="1737.33 463.39 1636.07 463.39 1636.07 135.1 1542.8 135.1 1542.8 47.68 1830.61 47.68 1830.61 135.1 1737.33 135.1 1737.33 463.39"/>
  <path class="cls-1" d="m1871.05,412.68c0,29.16-23.64,52.79-52.77,52.79s-52.78-23.63-52.78-52.79,23.64-52.78,52.78-52.78,52.77,23.64,52.77,52.78"/>
  <polygon class="cls-2" points="243.49 464.42 142.24 464.42 142.24 136.13 48.95 136.13 48.95 48.72 336.77 48.72 336.77 136.13 243.49 136.13 243.49 464.42"/>
</svg>