<?xml version="1.0" encoding="UTF-8"?>
<svg id="Layer_1" data-name="Layer 1" xmlns="http://www.w3.org/2000/svg" viewBox="0 0 1920 262.19">
  <defs>
    <style>
      .cls-1 {
        fill: #37b34a;
      }

      .cls-2 {
        fill: #ec0c6e;
      }

      .cls-3 {
        fill: #bf1b5a;
      }

      .cls-4 {
        fill: #231f20;
      }
    </style>
  </defs>
  <g>
    <path class="cls-4" d="m24.94,37.71h132.4v14.65h-57.61v167.26h-17.18V52.36H24.94v-14.65Z"/>
    <path class="cls-4" d="m174.77,128.92c0-13.31,1.81-25.78,5.43-37.39,3.62-11.62,8.97-21.77,16.05-30.45,7.07-8.68,15.83-15.54,26.28-20.59,10.44-5.05,22.49-7.58,36.13-7.58s26.57,2.49,37.27,7.45c10.7,4.97,19.62,11.79,26.78,20.47,7.16,8.68,12.55,18.87,16.17,30.57,3.62,11.71,5.43,24.21,5.43,37.52s-1.81,25.48-5.43,37.01c-3.62,11.54-8.97,21.64-16.05,30.32-7.07,8.68-15.92,15.54-26.53,20.59-10.61,5.06-22.91,7.58-36.89,7.58s-26.28-2.52-36.89-7.58c-10.61-5.05-19.46-11.91-26.53-20.59-7.08-8.68-12.38-18.78-15.92-30.32-3.54-11.54-5.31-23.88-5.31-37.01Zm84.9,80.85c11.79,0,21.94-2.23,30.44-6.69,8.5-4.46,15.5-10.4,20.97-17.81,5.47-7.41,9.51-16,12.13-25.78,2.61-9.76,3.92-19.95,3.92-30.57,0-12.64-1.56-23.96-4.67-33.99-3.12-10.01-7.62-18.57-13.52-25.64-5.9-7.07-13.05-12.46-21.47-16.17-8.42-3.71-17.86-5.56-28.3-5.56-11.62,0-21.69,2.28-30.19,6.83-8.51,4.54-15.5,10.57-20.97,18.06-5.48,7.5-9.52,16.13-12.13,25.9-2.61,9.77-3.92,19.96-3.92,30.57s1.3,21.06,3.92,30.82c2.61,9.77,6.65,18.36,12.13,25.78,5.47,7.41,12.46,13.31,20.97,17.69,8.5,4.38,18.73,6.57,30.7,6.57Z"/>
    <path class="cls-4" d="m384.48,219.62V37.71h17.18v181.91h-17.18Z"/>
    <path class="cls-4" d="m431.98,219.62l71.5-181.91h19.46l69.73,181.91h-17.69l-20.97-57.1h-82.87l-21.48,57.1h-17.69Zm44.98-71.75h71.25l-35.62-95.51-35.62,95.51Z"/>
    <path class="cls-4" d="m634.11,137v82.62l-17.18-.25V37.71h71.25c20.04,0,35.37,3.75,45.99,11.24,10.61,7.5,15.92,19.67,15.92,36.51,0,11.46-2.32,20.55-6.95,27.29-4.64,6.74-12.17,12.47-22.62,17.19,5.39,1.85,9.6,4.54,12.64,8.08,3.03,3.53,5.31,7.58,6.82,12.12,1.52,4.55,2.49,9.35,2.91,14.41.42,5.05.71,9.94.88,14.65.17,6.91.46,12.64.88,17.18.42,4.55.92,8.26,1.52,11.12.59,2.87,1.3,5.1,2.15,6.7.84,1.6,1.85,2.82,3.03,3.66v1.52l-18.95.25c-1.86-3.03-3.16-7.24-3.92-12.64-.76-5.39-1.35-11.03-1.77-16.93-.42-5.9-.76-11.62-1.01-17.18-.25-5.56-.72-10.11-1.39-13.65-1.01-4.88-2.65-8.8-4.93-11.74-2.28-2.95-5.01-5.18-8.21-6.7-3.2-1.51-6.78-2.52-10.74-3.03-3.96-.51-8.05-.76-12.26-.76h-54.07Zm53.56-14.66c6.4,0,12.34-.67,17.82-2.02,5.47-1.35,10.23-3.49,14.28-6.45,4.04-2.94,7.24-6.69,9.6-11.24,2.36-4.55,3.54-10.02,3.54-16.43,0-6.73-1.22-12.29-3.66-16.67-2.45-4.38-5.73-7.83-9.85-10.36-4.13-2.53-8.84-4.29-14.15-5.3-5.31-1.01-10.83-1.52-16.55-1.52h-54.57v69.98h53.56Z"/>
    <path class="cls-4" d="m769.28,37.71h132.4v14.65h-57.61v167.26h-17.18V52.36h-57.61v-14.65Z"/>
    <path class="cls-4" d="m1101.88,37.78h38.62l-51.2,181.85h-36.27l-21.96-106.35-6.41-35.16-6.41,35.16-21.96,106.35h-35.28l-51.57-181.85h40.35l24.06,104.12,5.18,28.99,5.31-28.37,20.48-104.74h40.1l21.59,104.12,5.55,28.99,5.55-27.88,24.3-105.24Z"/>
    <path class="cls-4" d="m1160.48,37.78h37.75v181.85h-37.75V37.78Z"/>
    <path class="cls-4" d="m1311.98,219.62h-78.34V37.78h78.34c11.26.17,20.64,1.48,28.13,3.95,12.75,4.2,23.07,11.89,30.97,23.07,6.33,9.05,10.65,18.84,12.95,29.36,2.3,10.53,3.45,20.57,3.45,30.1,0,24.19-4.85,44.66-14.56,61.44-13.16,22.62-33.48,33.93-60.95,33.93Zm28.25-135.46c-5.84-9.87-17.4-14.8-34.67-14.8h-35.04v118.68h35.04c17.93,0,30.43-8.84,37.5-26.52,3.87-9.7,5.8-21.26,5.8-34.67,0-18.5-2.88-32.74-8.63-42.69Z"/>
    <path class="cls-4" d="m1542.68,140.17h-88.33v46.76h100.67v32.69h-137.8V37.78h133.36v32.2h-96.23v38.62h88.33v31.58Z"/>
  </g>
  <path class="cls-1" d="m1757.02,216.35c-14.14,8.19-30.52,12.93-48.11,12.93-53.23,0-96.31-43.09-96.31-96.31s43.09-96.22,96.31-96.22c17.59,0,33.97,4.75,48.11,12.93-28.75,16.56-48.11,47.64-48.11,83.29s19.36,66.81,48.11,83.38Z"/>
  <path class="cls-3" d="m1805.13,132.97c0,35.64-19.36,66.81-48.11,83.38-28.75-16.56-48.11-47.74-48.11-83.38s19.36-66.72,48.11-83.29c28.75,16.56,48.11,47.64,48.11,83.29Z"/>
  <path class="cls-2" d="m1901.35,132.97c0,53.23-43.09,96.31-96.22,96.31-17.59,0-33.97-4.75-48.11-12.93,28.75-16.56,48.11-47.74,48.11-83.38s-19.36-66.72-48.11-83.29c14.14-8.19,30.52-12.93,48.11-12.93,53.13,0,96.22,43.08,96.22,96.22Z"/>
</svg>