<?xml version="1.0" encoding="UTF-8"?>
<svg id="Layer_1" data-name="Layer 1" xmlns="http://www.w3.org/2000/svg" viewBox="0 0 770.86 746.41">
  <defs>
    <style>
      .cls-1 {
        fill: #fff;
      }

      .cls-2 {
        fill: #6ab948;
      }

      .cls-3 {
        fill: none;
      }

      .cls-4 {
        fill: #66bb46;
      }

      .cls-5 {
        fill: #231f20;
      }
    </style>
  </defs>
  <path class="cls-1" d="m412.53,219.77c4.06,2.43,63.85,13.39,65.58,11.85s-2.5-24.8-2.5-24.8l-2.93-34.91s14.18-.59,13.07-12.45c-1.11-11.86-7.64-12.55-7.64-12.55,0,0-30.98-25.48-32.03-25.37-1.04.1-50.65,5.1-51.42,5.87s-7.43,37.43-7.18,48.03c.25,10.61,14.87,40.92,17.94,42.49,3.08,1.57,7.09,1.84,7.09,1.84Z"/>
  <rect class="cls-1" x="307.57" y="371.58" width="89.57" height="40.17" transform="translate(704.71 783.33) rotate(180)"/>
  <g>
    <path class="cls-5" d="m476.09,200.46c-6.4,14.4-19.68,19.57-26.92,15.83-6.55-3.39-7.3-13.65-7.38-14.85-2.67.06-5.34.12-8.01.17,0,0-18.78,57.1-18.78,66.84s-10.25,129.72-10.25,129.72l-33.33,34.86-74.34,175.8,64.99,29.22,81.33-182.27,1.35-4.55c-5.59,39.91,3.16,68.27,8.84,82.42,9.05,22.54,22.37,39.12,37.81,58.32,13.51,16.81,26.14,29.59,35.25,38.2,18.2-17.18,36.4-34.35,54.6-51.53-10.66-8.09-24.28-20.18-37.11-37.3-10.43-13.92-17.42-27.26-22.11-38.07-.99-7.68-1.68-16.32-1.73-25.76-.07-12.59,1-23.85,2.5-33.45,2.42-2.18,5.16-5.11,7.64-8.94,6.16-9.5,6.28-17.44,6.43-22.5.66-.31,1.46-.38,2.28-.42,1.35-.07,2.37-.25,2.37-.25,0,0,10.25-43.39,7.82-109.66-1.66-45.06-14.13-74.09-40.76-91.26-11.71-7.55-23.86-9.85-32.49-10.57Z"/>
    <path class="cls-5" d="m303.94,611.91l.19-.4.39.18,51.53,23.18.4.17.39.18-.18.39-.4-.17-.18.39-.39-.18-51.54-23.17.18-.4-.39-.17Zm228.63,12.1l41.05-38.74.32-.29.31-.3.32.29c-.1.1-.21.2-.31.3l.32.29-.32.3-41.05,38.73-.31.29-.32-.29c-.1.1-.22.21-.32.3l-.31-.29.31-.3.32-.29Zm-161.53-191.14l.03-.07,33.28-34.82c.42-4.9,10.24-120.07,10.24-129.53s18.03-64.64,18.79-66.98l.1-.29,8.73-.19.03.42c.07,1.14.85,11.24,7.15,14.49,2.79,1.44,6.64,1.5,10.54.13,6.61-2.33,12.36-8.06,15.78-15.75l.13-.29.3.03c12.34,1.03,23.33,4.61,32.69,10.64,26.28,16.93,39.29,46.05,40.96,91.62,2.41,65.56-7.73,109.34-7.83,109.77l-.06.28-.29.05s-1.06.18-2.41.25c-.65.03-1.31.09-1.88.29v.03c-.16,5.18-.39,13-6.49,22.41-2.12,3.27-4.68,6.26-7.61,8.92-1.7,10.97-2.53,22.15-2.47,33.23.04,8.54.62,17.17,1.72,25.65,5.54,12.75,12.5,24.9,20.7,36.11.31.43.63.87.96,1.3.12.17.24.34.37.51.2.26.4.53.61.79,10.38,13.73,22.63,25.98,36.42,36.42l.41.31-4.95,4.66-.31.3-.32.29-1.47,1.39-.31.29-.32.3-41.05,38.73-.31.29-.32.3-1.47,1.38-.32.3-.31.29-3.51,3.31-.29.28-.29-.28c-12.55-11.85-24.42-24.72-35.29-38.25-15.45-19.22-28.8-35.83-37.88-58.42-9.34-23.29-12.61-50.02-9.51-77.6l-81.21,182.01-.18.4-3.19-1.44-.4-.17-.39-.18-1.84-.83-.4-.17-.39-.18-51.54-23.17-.39-.17-.4-.18-1.84-.83-.4-.17-.39-.18-3.82-1.71-.38-.17,74.5-176.19Zm-9.17,204.62l81.13-181.82,1.35-4.55.84.18c-4.09,29.21-1.05,57.64,8.82,82.19,9.02,22.48,22.33,39.04,37.75,58.22,10.76,13.38,22.5,26.12,34.91,37.87l3.18-2.99.31-.29.32-.3,1.47-1.38.31-.3.32-.29,41.05-38.74.32-.29.31-.3,1.48-1.38.31-.3.31-.29,4.25-4.01c-13.85-10.56-26.15-22.93-36.58-36.81-.07-.09-.14-.18-.21-.27-.26-.34-.51-.68-.76-1.03-.32-.42-.64-.87-.95-1.3-8.08-11.14-14.95-23.18-20.44-35.83l-.03-.12c-1.1-8.53-1.69-17.22-1.73-25.81-.06-11.19.78-22.46,2.5-33.53l.03-.16.11-.1c2.92-2.62,5.46-5.6,7.57-8.84,5.97-9.21,6.19-16.88,6.35-21.96l.02-.59.23-.11c.75-.35,1.62-.42,2.44-.47.9-.04,1.65-.14,2.04-.2.87-3.87,10.04-46.57,7.73-109.26-1.66-45.26-14.55-74.15-40.56-90.92-9.15-5.9-19.92-9.43-31.99-10.48-3.53,7.76-9.4,13.56-16.16,15.93-4.18,1.47-8.17,1.41-11.22-.17-6.19-3.2-7.37-12.14-7.58-14.79l-7.29.16c-1.44,4.41-18.65,57.21-18.65,66.41s-10.16,128.55-10.26,129.75v.16s-33.39,34.91-33.39,34.91l-74.15,175.33,3.43,1.55.4.17.4.18,1.84.83.4.17.39.18,51.53,23.18.4.17.39.18,1.84.83.4.17.4.18,2.39,1.07Zm170.38-13.19l.32-.29,41.05-38.74.32-.29.31-.3.32.29c-.1.1-.21.2-.31.3l.32.29-.32.3-41.05,38.73-.31.29-.32-.29c-.1.1-.22.21-.32.3l-.31-.29.31-.3Zm-228.31-12.39l.19-.4.39.18,51.53,23.18.4.17.39.18-.18.39-.4-.17-.18.39-.39-.18-51.54-23.17.18-.4-.39-.17Z"/>
  </g>
  <g>
    <path d="m185.24,150.79c6.48-4.2,16.44-6.61,23.46-10.28,4.3-6.32-.3-4.31-2.12-5.51-2.57-1.7,1.57-7.79,1.63-10.4.05-3.06-2.42-6.13-2.54-9.53-.15-4.31,2.74-8.07,1.82-12.56-3.34-1.22-21.8,2.82-22.5-.44-.71-3.37,20.4-12.31,21.47-15.73,1.32-4.26-3.24-7.4-3.36-11.98-.1-3.63,2.46-5.32,2.62-7.8.26-4.12-5.64-10.52.22-14.46,37.54-2.52,75.18-3.2,112.67-5.86,37.85.25,75.5,4.98,113.26,7.08,3.72,1.24,2.26,14.03.54,17.18,4.22.03,5.69.44,6.06,4.75.85,9.8-3.05,4.8-6.11,6.88-3.5,2.37,1.31,6.88,2,8.49.36.84.58,1.83.81,2.86-1,2.66-1.62,5.51-1.75,8.47,0,.15,0,.3,0,.45-4.09,4.45-6.63,10.41-6.91,16.85-.12,2.8.34,5.51,1.25,8.05-.94,1.49-1.74,3.09-2.37,4.77-.88.11-1.73.44-2.43.96-.01-.08-.02-.14-.04-.22-27.74.29-55.42-.22-83.07-.87.64,3.69-.67,6.21-1.73,9.52,22.49.74,45.49-.98,67.92,0,.25,0,.76.35,1.38.61.12.06.25.11.39.16.27.09.55.16.84.17.03,0,.06,0,.09,0h.09c-.54.78-1.03,1.61-1.44,2.48l-68.83-.83c-3.7.59-1.62,4.33-1.21,6.82l68.44-.68c-.13.83-.23,1.68-.28,2.55l-65.65,1.7c1.66,3.81-.14,6.65-.87,10.37l70.8-1.58c.28.65.57,1.28.92,1.88.17.29.35.54.55.76l-71.41,1.55,1.35,5.22,79.11-1.76v-4.37c.07,0,.13.01.2.02.06,2.9.11,5.79.13,8.69-.3-.59-.61-1.19-.9-1.78l-80.64,1.89c-1.14.72-2.57,6.31,2,6.84,9.31,1.09,19.33-.68,28.55-.94,15.5-.43,34.38.7,49.39-.79,1.05-.1,1.72-.37,2.13-.75.1.46.29.9.58,1.29,1,1.35,2.12,2.7,3.31,3.91.28.92.82,1.74,1.62,2.3.14.25.3.48.49.7.45,1.05,1.28,1.93,2.49,2.33.43.52,1,.94,1.69,1.19.69.53,1.6.87,2.72.87.05,0,.1,0,.15,0,.71.59,1.65.97,2.83.97.64,0,1.21-.11,1.71-.31.03.54.06,1.08.11,1.62h0c-.11.08-.21.16-.31.23-.29.24-.52.55-.71.9-.08.15-.15.3-.22.47-.03.1-.07.19-.1.29-.05.15-.1.31-.15.48-.03.12-.06.24-.09.37-.03.15-.06.3-.09.45,0,0,0,.02,0,.03-.03.15-.05.29-.07.45-.03.16-.05.31-.07.48-.03.2-.05.4-.08.6-.03.2-.05.42-.07.62-.03.21-.05.42-.08.62,0,.04,0,.09-.02.13-.02.16-.03.33-.06.49,1.32.19,2.32.18,3.08.02h0c.58,3.18,1.26,6.28,1.88,9.46.55,9.28-1.22,18.49-1.35,27.79-.14,10.37.63,20.75,1.29,31.09.07,1,.13,2,.2,3.01h0c-.05-.03-.11-.08-.16-.11-.09-.06-.17-.11-.26-.16l-97.04,9.59c-.58.67-1.66,5.81-.63,5.86l98.49-8.8s.03-.02.04-.03h0c.35,5.17.67,10.35.85,15.51-.03-.14-.05-.28-.09-.41-.02-.1-.04-.19-.07-.28-.04-.14-.08-.27-.13-.39-.04-.12-.09-.23-.14-.34h0c-4.74.17-9.48.47-14.21.84-14.22,1.1-28.42,2.84-42.62,4.06-3.05.57-4.01-2.69-.6-3.26l53.26-4.74c3.13-.44,1.21-4.86,1.68-7.38-21.63,1.2-43.38,3.01-64.93,5.59-3.41,2.03-27.56,12.23-28.38,13.58-.34.55-.72,8.63-.55,10.26l95.05-9.64c.09-.03.17-.07.25-.11.29-.16.53-.41.74-.73.17-.28.32-.61.45-.97.12-.36.22-.76.3-1.19.03-.21.07-.43.1-.65,0,0,0,.02,0,.03.09,5.66-.05,11.3-.6,16.92-.11.65-.23,1.29-.36,1.94.11-.95-.11-1.9-.8-2.64-.25-.26-.55-.5-.93-.7-.24-.13-.52-.24-.82-.34-.3-.1-.64-.16-1-.22-.47-.06-.99-.09-1.56-.07-19.59.65-42.41,4.91-62.29,6.97-7.6.8-15.29,1.37-22.92,1.75.54.67,1.54,1.89,2.67,3.17.1.1.19.21.29.32.19.21.39.42.59.64,1.68,1.79,3.47,3.43,4.46,3.44l78.91-8.46c.1-.02.19-.04.29-.07.09-.03.18-.05.27-.09h.02c.09-.03.17-.08.26-.11.27-.12.51-.27.74-.45.31-.23.59-.52.83-.83.12-.15.23-.3.33-.47,0,0,.02-.03.03-.04.04-.08.09-.16.12-.23.1-.17.17-.35.24-.54.04-.09.07-.16.09-.25-.32,1.57-.7,3.13-1.16,4.67-1.35.33-2.72.63-4.05.91-.33.07-.67.14-.99.2-.88.17-1.75.34-2.59.48-1.31.24-2.54.44-3.65.61-1.13.18-2.13.32-2.97.44l-63.49,6.17c4.12,5.23,11.35,6.52,17.73,6.03,1.01-.08,2.23-.21,3.63-.39.35-.03.71-.09,1.07-.13,1.46-.2,3.08-.44,4.84-.72.38-.05.77-.12,1.17-.18.97-.16,1.97-.32,3.02-.5.54-.09,1.08-.18,1.64-.29.15-.03.3-.05.47-.08.52-.09,1.05-.18,1.57-.28.03,0,.08-.02.12-.03,1.9-.34,3.88-.7,5.9-1.09.4-.08.8-.16,1.19-.23,1.33-.26,2.68-.52,4.04-.8.78-.16,1.55-.31,2.33-.48,1.43-.29,2.87-.59,4.31-.9,1.08-.22,2.15-.46,3.23-.69.71-.16,1.43-.31,2.14-.48,1.42-.32,2.82-.64,4.2-.96.69-.16,1.38-.32,2.06-.48,2.28-.55,4.48-1.09,6.58-1.63.62-.16,1.24-.32,1.84-.48.4-.1.79-.21,1.17-.31.8-.22,1.56-.43,2.3-.64-.14.28-.29.55-.44.82-.37.63-.8,1.24-1.17,1.87-.84,1.04-1.67,2.07-2.53,3.09-1.19,1.41-2.41,2.79-3.7,4.11-.12.07-.23.13-.31.18-4.75,2.62-9.16,4.9-13.24,8.69-.99.93-1.89,1.95-2.82,2.93-1.32.5-2.64,1.02-3.96,1.53-3.04,1.19-6.06,2.21-9.21,2.87-.46.08-.91.16-1.36.26-.35.06-.7.12-1.06.17.25-.03.5-.07.75-.1-4.05.89-7.67,2.55-10.7,4.86l-2.64-15.96c-.46.04-.91.07-1.36.1-.74-1-1.9-1.7-3.51-1.7-4.52-.02-9.12-.08-13.46-1.49-3.56-1.16-6.13-3.95-9.49-5.6-3.97-1.95-6.78-5-9.5-8.39-2.58-3.22-5.62-4.03-9.59-4.39-1.9-.17-4.01,1.55-4.41,3.36-.8,3.57.22,7.05,1.93,10.23,1.62,3.03,4.85,4.62,6.3,7.56.76,1.52,1.84,3.7,1.11,5.31-.8,1.76-3.17,2.43-4.86,2.89-.69.19-1.66.44-2.72.66-1.36.07-2.69.1-3.88.12-.61-.4-1.32-.68-2.18-.77-.43-.07-.87-.1-1.32-.12-7.89-1.06-24.81-8.95-28.27,1.82-1.32,4.13,1.37,6.85,5.33,8.72-1.18.43-2.23,1.13-3.11,2.13-.87.28-1.62.89-2.15,1.98-2.18,4.41,2.41,7.49,6.54,9.4-.93,1.32-1.36,2.82-1.07,4.32-2.35,1.44-1.89,5.86,1.07,8.31,1.05.87,3.5,1.96,6.39,3-.64,1.17-.66,2.63.4,4.1.34.47.71.89,1.1,1.29-.03.03-.04.05-.06.08-1.71.25-2.92,1.59-3.38,3.18-.07-.88-.11-1.56-.19-1.64-.23-.23-5.44-.81-6.47-.89-18.39-1.32-36.94-1.77-55.36-2.61-5.97-.27-12.36-1.56-18.61-.86-.11,1.26.09,5.8,1.44,6.1l79.89,4.28c-.04-.08-.09-.16-.12-.27.31.45.72.85,1.23,1.17-.1.86.03,1.73.46,2.53-2.45-.35-4.86-.65-7.2-.82-8.8-.64-17.98-.33-26.8-.88-15.27-.96-30.6-2.34-45.86-3.48-2.43.16-2.29,2.34-2.16,4.35l115.07,6.92c0-1.08-.13-1.9-.37-2.53.81-.1,1.64-.22,2.45-.36.74,3.18.55,3.41,5.27,2.89l94.76-12.96c-.1-.48-.18-.92-.23-1.35,4.31-.62,8.62-1.29,12.91-2.01.39-.03.78-.05,1.16-.08v44.96h-30.28c-.21-2.41-1.88-3.82-4.32-3.45v3.45h-60.57l2.6-6.91c-7.45.64-16.47,3.62-23.8,3.51-36.92-.51-75.75-7.06-112.9-7.85-6.58,1-3.75-5.52-4.37-9.9-.34-2.39-1.74-3.56-1.76-6.97-.02-3.85,1.92-6.54,1.87-10.37-.02-1.24-1.49-9.55-1.88-9.87-.84-.67-5.64,1.04-8.58-3.1-3.31-4.64-.22-7.29-.98-10.2-.35-1.33-2.63-2.44-3.16-4.71-.95-4.13,1.65-7.21,1.42-8.34-.28-1.38-3.36-3.02-3.34-7.05,0-2.61,2.37-5.8,2.3-6.91-.06-1-2.9-3.68-3.14-6.14-.29-2.86,2.06-5.59,1.58-7.53-.27-1.1-2.1-2.13-2.67-3.43-1.24-2.79-.9-6.94,1.07-9.3,3.19-3.8,10.43-1.73,8.45-8.88-.42-1.5-2.23-2.5-2.38-4.58-.16-2.38,1.91-5.2,1.79-8.62-.11-3.62-2.54-6.12-2.71-9.54-.19-3.73,1.53-6.6.68-11-1.14-5.89-4.08-3.23-5.08-4.61-3.59-5.03,1.02-10.94,1.03-14.63,0-2.84-2.76-5.74-2.73-9.53.04-4.87,4.95-9.59-.35-15.13h-19.03c-.3,0-1.49-1.32-1.29-2.15.27-1.17,18.28-10.46,20.76-12.1,3.96-6.65-3.99-7.36-4.38-13-.23-3.32,1.58-5.36,1.64-7.74.05-2.08-1.25-4.21-.72-6.94.43-2.19,2.24-2.21,2.64-6.01.8-7.67-3.26-10.04-3.46-14.85-.12-2.9,2.43-5.98,2.43-8.57,0-3.24-3.98-7.48-2.47-11.68-.77-.8-19.31-.5-22.11-.82-1.3-.15-2.19-.1-2.99-1.35-.29-1.38,1.14-1.78,1.98-2.33Zm145.97-21.45c-.15-3.94-.28-7.73,1.72-11.25l-121.99,2.59c.55,4.13-.58,7.42-1.72,11.25,40.6-.96,81.26-2.21,121.99-2.59Zm-66.17,4.3l-52.36.89c1.42,2.79-.51,8.04,3.02,8.64l68.78-1.74-19.44-7.8Zm41.46,13.87l25.58-15.15-57.1,1.31,31.53,13.84Zm29.04-26.83l74.4.87c-.68-2.6-1.8-4.92-2.37-7.59-.87-4.06,1.4-4.66-4.21-5.28-17.95-1.98-40.28-.29-58.77-.94-3.44-.12-7.07-1.59-10.77-.89,1.86,4.96,3.56,8.39,1.73,13.83Zm71.39-14.69c2.74-.54,2.34-3.98,3.88-6.07l-73.15-2.66c-2.6-1.12-5.51,6.21-4.71,6.97l73.98,1.75Zm-198.44,10.73c.02.06.04.13.08.19.08.17.18.34.31.49.17.19.39.35.67.48.07.03.15.06.23.09l123.16-3.34c-1.01-6.13-4.72-11.12-.87-17.3l-87.39,2.59v-2.59l89.12-2.6c.15-2.02-.07-7.79-2.28-8.54l-121.44,4.21c1.99,7.17,1.15,13.52,0,20.76,10.44-1.55,21.06-.59,31.61-.83,1.93-.04,16.02-2.97,15.1,1.25-.19.87-2.03,1.48-2.99,1.35l-45.47.83c-.03.98-.16,2.09.14,2.95Zm125.32-40.15l-124.6,5.18c-.66,8.7,2.09,5.31,7.32,5.16,38.36-1.13,76.7-1.89,114.96-4.44,2.01-.67,2.48-4.05,2.32-5.9Zm-127.62,13.85l-14.28,9.5h16.44c.37-1.41-.68-9.5-2.15-9.5Zm123.25-41.5l-122.82,6.01v5.2c41.32-1.19,82.4-3.95,123.74-5.64l-.92-5.57Zm1.77,8.62l-122.85,6.06c1.91,5.62-6.39,11.66.42,14.7l120.7-4.33-1.44-5.23-46.54,2.68-9.13-.04v-2.59l55.69-2.72c1.52-.49,3.56-8.13,3.14-8.53Zm97.35-1.75l-96.48-6.9c1.03,6.53,1.86,7.84,8.32,8.53l91.17,5.3c.54-.54-.66-7.34-3.02-6.93Zm-96.48,10.39c28.98.5,57.93,2.54,86.99,3.43,4.95.16,11.92,4.08,10.78-4.29l-95.9-5.04c-.42.26-2.36,5.44-1.87,5.91Zm103.82,12.98c.4-3.63-.16-5.42-3.95-6l-100.74-4.38c.14.24.24.5.33.77.09.27.16.54.23.83.06.28.12.56.17.84.29,1.38.62,2.63,2.28,2.75l101.68,5.18Zm-98.2,4.33l91.28,3.47v-5.2l-92.57-5.17c-.29.29-1.59,7.7,1.29,6.9Zm86.73,8.87c3.45-.21,10.45,3.72,5.71-1.82-31.48-1.93-63.06-3.34-94.6-4.45l2.22,8.7c13.24.37,26.54.31,39.77.78,9.99.35,24.17,2.73,33.76,1.83,4.56-.43,7.73-4.72,13.13-5.04Zm-4.97,37.84l-6.93-5.6c-16.17-1.05-32.64-.16-48.91-.42-8.67-.13-18.03-1.99-26.82-.94-.8.1-1.44.31-1.9.6-.16.1-.29.2-.42.31-.99.92-.87,2.3-.07,3.43.15.19.29.37.47.54.09.09.17.16.27.25.29.24.61.45.96.61.23.11.48.2.74.28.26.07.53.11.8.14l81.8.8Zm-82.19,3.48c-.71-.68-10.32,4.4-11.53,5.32-.98.74-1.77.91-1.44,2.46,7.64.18,12.52,1.71,12.97-7.78Zm85.65,49.75c-3.08-1.88-16.11.38-20.29.46-10.12.2-20.27.61-30.28.87-4.48.12-30.15-.73-31.62.84-.03.03-.03.11,0,.25,0,.1.03.22.07.35.05.24.14.55.22.9.04.16.09.33.13.51.04.17.09.35.12.54.13.59.25,1.23.3,1.86,0,.03,0,.05,0,.08.1,1.06.03,2.09-.42,2.8-.11.18-.24.34-.41.48l87.38-3.46c-1.4-1.13-4.27-5.91-5.19-6.47Zm10.39,16.86l-55.37,1.73,2.16-2.59,53.49-1.7c1.72-1.58,2.08-4.06-.72-4.35l-94.57,3.62c-.44.29-2.79,6.08-2.8,7.17,0,1.62,3.13,9.78,4.08,10l95.44-5.66c-2.6-2.03-1.59-5.32-1.7-8.22Zm-172.22,25.9c-1.06,1.64-32.72,9.28-36.94,11.97l-7.16.21c-.06,1.79.44,6.18,2.28,6.8,13.23.44,26.48-.17,39.72.08,23.62.45,53.04,3.75,76.14,1.81,5.4-.45,4.31-2.69,2.46-7.02l-79.54-.78-12.51-.9v-2.59l90.85,1.72c-2.56-7.11,2.22-12.89,2.6-19.89l-122.87-.87v6.06c13.01,1.1,28.38-1.47,41.1,0,1.94.22,5.3,1.19,3.86,3.41Zm79.65,31.21l95.17-7.37c-.85-1.76-.9-5.62-3.01-5.68l-91.74,5.26c-4.27.8-.72,4.93-.42,7.79Zm64.45-28.55c7.99-.51,18.22.11,25.9-.95,4.2-.58,3.96-3.07,3.94-6.84l-95.04,5.3c-.76.48-1.38,6.42-.99,6.81,22.06-.95,44.15-2.91,66.2-4.33Zm24.18-16.47c-24.12,1.26-48.49,3.07-72.6,4.39-6.99.38-17.51-3.39-15.18,6.9l94.59-5.17c4.32-6.83-1.44-6.4-6.82-6.12Zm5.13,18.14l-94.64,5.25c.73,3.94,2.52,6.97,1.72,11.25,24.97-1.33,49.91-3.37,74.85-5.19,3.44-.25,6.93.22,10.37-.02,11.49-.81,12.72,0,7.7-11.29Zm-93.74,29.5c-.29.27-.95,6.6-1.76,7.75,21.23-.61,42.43-3.38,63.59-5.18,5.33-.45,10.98-.55,16.58-.8,1.25-.05,2.48-.11,3.72-.18,2.47-.15,4.91-.34,7.29-.61.6-.07,1.19-.15,1.77-.22,4.22-.59,4.21-4.02,4.8-7.7l-96,6.95Zm94.28,10.36v-6.93l-96.91,7.79.96,6.83c32.03-.84,63.93-5.79,95.95-7.68Zm-69.22,18.59l-62.29.44,32.44,14.64,29.86-15.08Zm-21.09,27.24c.07.22.16.44.28.66.03.06.07.13.11.2.07.13.16.26.26.38t0,0c.34.45.74.88,1.19,1.27.26.22.53.42.8.61.81.53,1.69.86,2.39.8,28.89-4.17,58.5-4.81,87.34-9.2,3.88-.6,3.28-1.29,3.11-5.1l-95.18,8.66c-.45.45-.52,1.06-.32,1.7Zm-3.3.72c.88-1.36,1.16-10.03,2.77-12.36-2.8-1.32-5.09,2.2-8.24,2.2-2.9,0-5.86-2.96-8.85-3.31-34.29-2.43-68.82-2.1-103.18-3.66,2.02,6.4-3.17,10.77,1.69,16.9,6.13-.02,12.67,1.06,18.6,1.3,15,.59,30.05.33,45.07.8,11.55.35,34.65,3.64,44.91,1.73.48-.1,7.01-3.24,7.23-3.59Zm-6.35,14.03c-.49-1.93-.16-6.71-.41-6.95-.35-.35-8.39-.8-9.92-.9-30.54-1.83-61.26-1.59-91.79-2.52-2.03-.07-4.25-1.16-6-.96-4.48.52-4.04,12.85-1.19,14.63.9.56,7.4-.86,9.8-.73,3.84.2,7.93,1.68,11.32,3.41,31.26,1.38,62.47,2.96,93.82,3.5-1.12-3.41-4.7-5.78-5.64-9.49Zm-32.42,15.99c6.92-5.58,26.78,1.51,36.67.32,4.49-.54,8.87-2.84,1.87-3.39-18.6-1.48-37.64-1.92-56.24-2.6-12.25-.44-24.56-.49-36.81-.82.29.83.39,1.59.39,2.28,0,4.25-3.97,6.1,4.44,7.16,5.33.67,13.18.67,18.92.97,8.92.47,17.96-.08,26.87.85,2.53-.35,1.85-3.13,3.88-4.77Zm.85,12.1c0-.28-3.22-4.18-3.45-4.32-1.91-1.17-12.68-.25-16.04-.41-1.84-.09-3.49-.8-5.17-.89-8.76-.45-17.63-.12-26.38-.87v6.07c10.23.47,20.51.46,30.76.82,2.04.08,3.94.87,5.98.93,2.07.07,14.35.59,14.3-1.33Zm-4.31,3.89c-.57-.57-13.55.14-16.05.03-7.94-.33-16.21-1.51-24.15-1.8-9.45-.35-12.48-.89-6.85,8.58l48.77,1.83c-2.61-1.49-1.36-8.28-1.72-8.64Zm-16.05,11.28c-5.23-.29-31.29-3.13-33.95-1.56-.56.34-3.3,4.08-5.36,4.55l2.33,1.98c19.16.93,38.18,1.94,57.32,2.74-.09-2.61.61-4.74,2.63-6.45-7.5-2.14-15.31-.84-22.96-1.26Zm31.61,18.13l-7.21-3.59-5.36-4.16-56.56-2.52c-.29.26-1.44,5.81-3.56,6.81l72.68,3.46Zm136.31,8.63l-95.95,13.14c-1.86.5-.13,6.2-1.42,8.52l98.89-14.69c1.78-.43,2.73-7.99-1.52-6.97Zm-99.1,32.05c33.19-4.52,66.27-10.24,99.49-14.72v-7.77l-99.5,14.7c-.3.29.22,6.44,0,7.79Zm-118.05-13.65c.14.48.21.97.24,1.48.02.2.03.41.03.61.07,2.15-.15,4.27,2.26,4.64l112.91,6.92-.86-7.79-115.07-6.91c.23.32.38.67.48,1.05Zm-1.41-4.89c.35.23,7.01,1.12,8.29,1.23,33.53,2.89,69.28,4.98,102.93,6.07,3.37.11,7.86,3,8-3.19.03-1.18-.36-2.07-1.06-2.75-.23-.22-.48-.42-.76-.6-.19-.12-.39-.22-.6-.33-.22-.1-.43-.19-.67-.28-4.33-1.59-12.04-.45-15.29-.66-29.9-1.94-60.03-4.82-89.95-6.08-1.72-.07-10.11-.23-10.73.16-.82.52-1.65,5.43-.18,6.43Zm-9.89-28.17c3.09,6.49,27.42.48,18.03-8.56-3.15,1.71-16.23,1-17.66,2.01-1.32.93-1.07,5.09-.37,6.55Zm25.37-16.21c.52-1.79-.25-5.68-2.15-6.2-.89-.24-14.8,3.21-18.07,3.38-3.72.2-7.37-2.53-8.7,1.7-4.06,12.93,27.18,7.13,28.91,1.12Zm-25.42-6.26c5.38.7,26.09-.7,27.17-7.59.31-2.05-2.03-5.56-3.94-6.13-2.74-.8-10.76,2.01-14.54,2.42-3.16.34-8.57-.7-11.09.16-3.29,1.1-4.08,10.3,2.41,11.14Zm-2.11-38.54c-8.05-.91-6.83,13.45,1.73,9.93-.35-3.51-2.6-6.13-1.73-9.93Zm-3.03,22.06c2.3,4.81,24.32,1.78,27.02-1.09,1.43-1.52,1.38-5.27.29-6.99-2.53-3.96-33.6-5.08-27.31,8.08Zm6.9-50.17l93.88,2.57c.1-1.22-1.92-1.41-2.89-1.84-5.22-2.35-18.68-8.64-23.57-9.32-9.95-1.38-27.05-.68-37.96-.98-10.22-.28-20.44.1-30.64-.71-1.54,2.79-3,9.47,1.17,10.28Zm-.72-12.95c14.93.64,29.96.28,44.89.79,19.8.67,39.8,2.01,59.62,2.66,5.88.2,14.6,2.15,12.59-6.09l-119.4-3.45,2.29,6.09Zm-5.33-8.7l117.9,2.21-2.1-6.57-117.96-2.56c.2,2.5-1.14,6.49,2.16,6.92Zm-2.66-20.73c.29,1.98,1.94,4.13,2.68,6.01.15.37.22.78.28,1.2.03.28.06.56.09.85,0,.14.02.29.03.42.03.42.09.81.18,1.18.05.18.11.35.19.51.29.58.81.98,1.81,1.05l114.07,2.63c4.4-6.38,2.5-11.33,1.44-18.2l-119.31-2.52c-.26.23-1.6,5.87-1.45,6.87Zm-15.94-19.07h22.93l26.39-9.52h-35.04c-.86,0-12.5,8.15-14.28,9.52Zm12.12-38.93c-.54.51,1.23,6.05,2.15,6.05h38.93c1.28,0,1.28,2.6,0,2.6h-39.8c-1.17,0-3.93,6.61-.74,7.67,3.72,1.23,19.59-.07,25,.09,2.04.06,3.94.89,5.98.93,30.98.7,62.07-.58,93.04-.04-1.13-.86-2.27-6.05-2.6-6.05h-43.26v-2.6h41.1c.65-.21,4.75-10.27.85-9.56l-120.67.92Zm4.03-13.13c6.19,1.47,49.57-2.58,51.34-.72.12.12.16,3.45,0,3.45h-51.91c-.4,0-.8,7.49.55,7.67,40.78.15,81.48-1.38,122.31-.74,0-1.44.49-7.8-1.31-7.8h-53.21c-.35-.74.74-2.6,1.3-2.6h50.61v-7.79s-92.58.87-92.58.87v-2.59l93.01-.87c3.7-.52,1.71-4.71-.86-5.19-5.26-.99-18.14-.14-24.27-.03-26.35.47-53.19.68-79.52,1.8-4.83.21-12.23-.84-16.49-.04-5.16.97-2.47,12.34,1.02,14.58Zm-1.74-17.99l120.14-.89c.59-.42,1.07-.83,1.48-1.27.2-.22.38-.43.54-.66.24-.34.44-.67.6-1.02.06-.11.1-.23.15-.35.17-.47.28-.94.34-1.43.25-2.33-.79-4.85-1.83-7.44-1.14-2.85-2.29-5.78-1.71-8.62-4.61.55-10.74-.77-15.11.04-3,.55-10.17,6.5-12.29,6.71-2.23.22-10.77-5.44-14.55-5.9l-78.28.93c-.32.3-.98,7.29-1.77,8.61,8.5-.16,17.04.2,25.56.03,5.75-.1,12.03-1.63,18.17-.93,3.4.38,4.42,2.4.82,3.5l-45.41.87,3.16,7.82Zm-20.04-13.89c3.05,0,12.79.63,14.71,0,1.55-.5,2.9-8.68,1.72-8.66l-17.72,6.94c-.25.33,1.13,1.72,1.29,1.72Z"/>
    <path class="cls-1" d="m426.7,325.62c3.37-.46,9.32-1.4,14.92-2.81-.7,1.01-1.25,2.06-1.59,3.18-17.69,5.04-48.92,11.05-59.09,11.84-6.38.49-13.61-.8-17.73-6.03l63.48-6.18Z"/>
    <path class="cls-1" d="m333.91,350.04c.14.09.28.17.4.28,1.1.02,2.34-.16,3.49-.4-1.36.07-2.69.1-3.88.12Z"/>
    <path class="cls-1" d="m302.21,363.8c.54-1.09,1.28-1.7,2.15-1.98.87-1,1.93-1.7,3.11-2.13-3.96-1.87-6.65-4.59-5.33-8.72,3.47-10.76,20.38-2.88,28.27-1.82.44.02.88.05,1.32.12.86.09,1.57.37,2.18.77.14.09.28.17.4.28,1.1.02,2.34-.16,3.49-.4,1.06-.22,2.02-.47,2.72-.66,1.7-.46,4.07-1.13,4.86-2.89.74-1.61-.35-3.79-1.11-5.31-1.45-2.94-4.68-4.53-6.3-7.56-1.7-3.18-2.73-6.65-1.93-10.23.41-1.81,2.51-3.53,4.41-3.36,3.97.35,7.01,1.17,9.59,4.39,2.72,3.39,5.53,6.45,9.5,8.39,3.36,1.64,5.94,4.44,9.49,5.6,4.34,1.41,8.94,1.47,13.46,1.49,1.61,0,2.78.7,3.51,1.7.45-.03.9-.05,1.36-.1l2.64,15.96,6.07,36.7c-.92.21-1.98.45-3.14.73-1.01-1.12-2.51-1.82-4.36-1.52-5.36.89-10.66,2.08-16.03,2.94-3.88.62-7.86,1.24-11.64,2.4-1.45-2.85-6-4.09-8.07-.48-1.12,1.97-8.47,1.94-10.66,1.97-3.62.05-7.23-.39-10.84-.61-.32-.02-.7-.02-1.13,0-.12-.06-.25-.11-.38-.17,1.09,0,2.2-.11,3.35-.36,1.92-.42,4.23-1.77,6.24-1.42,5.76.98,8.22-7.83,2.43-8.82-3.95-.67-6.77.55-10.56,1.29-1.58.3-6.81-.22-7.86-1.69-2.35-3.27-6.86-2.1-8.29.51-2.89-1.04-5.35-2.13-6.39-3-2.97-2.46-3.42-6.87-1.07-8.31-.29-1.5.15-3,1.07-4.32-4.14-1.9-8.72-4.98-6.54-9.4Z"/>
    <path class="cls-1" d="m210.08,90.4c1.99,7.17,1.15,13.53,0,20.76,10.44-1.55,21.06-.59,31.61-.82,1.93-.04,16.03-2.97,15.1,1.25-.19.88-2.03,1.48-2.98,1.35l-45.47.83c-.04,1.61-.39,3.61,1.42,4.2l123.17-3.34c-1.02-6.12-4.73-11.12-.86-17.29l-87.39,2.58v-2.59s89.12-2.6,89.12-2.6c.15-2.02-.07-7.79-2.29-8.54l-121.44,4.21Z"/>
    <path class="cls-1" d="m257.23,222.77c1.93.22,5.3,1.18,3.86,3.41-1.05,1.63-32.73,9.27-36.94,11.96l-7.15.21c-.07,1.8.43,6.18,2.28,6.8,13.23.44,26.49-.17,39.72.08,23.63.44,53.04,3.75,76.14,1.81,5.4-.45,4.3-2.69,2.45-7.02l-79.53-.78-12.51-.9v-2.59s90.85,1.72,90.85,1.72c-2.56-7.11,2.22-12.89,2.6-19.89l-122.86-.87v6.06c13.02,1.1,28.38-1.48,41.1,0Z"/>
    <path class="cls-1" d="m335.53,182.97v-7.79s-92.58.87-92.58.87v-2.59l93.01-.87c3.71-.52,1.71-4.71-.86-5.19-5.26-.99-18.14-.14-24.27-.03-26.35.46-53.2.68-79.53,1.8-4.82.21-12.22-.85-16.49-.05-5.16.97-2.47,12.34,1.02,14.58,6.2,1.47,49.57-2.58,51.34-.72.12.13.17,3.46,0,3.46h-51.91c-.4,0-.8,7.49.55,7.66,40.78.15,81.47-1.37,122.31-.74,0-1.44.49-7.79-1.3-7.79h-53.21c-.36-.74.73-2.6,1.3-2.6h50.61Z"/>
    <path class="cls-1" d="m213.57,145.81c-.32.31-.97,7.3-1.76,8.61,8.5-.15,17.05.21,25.56.04,5.75-.11,12.03-1.63,18.17-.94,3.4.38,4.42,2.4.82,3.5l-45.41.87,3.16,7.82,120.14-.89c7.99-5.6-1.94-13.48-.44-20.78-4.61.56-10.73-.77-15.11.04-3,.56-10.17,6.5-12.28,6.71-2.24.22-10.77-5.44-14.56-5.9l-78.28.93Z"/>
    <path class="cls-1" d="m217.08,247.95c-.26.23-1.6,5.86-1.45,6.87.29,1.98,1.94,4.12,2.68,6.01.78,1.99-.3,5.02,2.58,5.21l114.07,2.63c4.39-6.37,2.49-11.33,1.43-18.2l-119.31-2.51Z"/>
    <path class="cls-1" d="m223.92,299.78c2.03,6.4-3.17,10.77,1.69,16.9,6.12-.02,12.66,1.07,18.6,1.3,15,.59,30.05.33,45.06.79,11.56.36,34.65,3.64,44.92,1.73.48-.09,7.01-3.25,7.23-3.58.88-1.36,1.16-10.04,2.77-12.37-2.8-1.31-5.09,2.2-8.23,2.2-2.9,0-5.86-2.96-8.85-3.31-34.29-2.43-68.82-2.1-103.18-3.66Z"/>
    <path class="cls-1" d="m331.64,205.47c.64-.21,4.75-10.27.84-9.56l-120.67.91c-.53.51,1.23,6.05,2.16,6.05h38.93c1.28,0,1.28,2.6,0,2.6h-39.8c-1.17,0-3.93,6.61-.74,7.66,3.72,1.23,19.59-.07,25,.09,2.05.06,3.94.89,5.99.94,30.98.7,62.07-.59,93.04-.04-1.13-.86-2.27-6.05-2.6-6.05h-43.26v-2.6h41.1Z"/>
    <path class="cls-1" d="m225.78,334.25c.9.56,7.4-.86,9.8-.73,3.84.2,7.93,1.68,11.32,3.41,31.26,1.37,62.47,2.96,93.83,3.5-1.12-3.4-4.7-5.77-5.64-9.49-.49-1.93-.16-6.71-.4-6.95-.35-.35-8.4-.81-9.92-.9-30.54-1.82-61.25-1.59-91.78-2.52-2.04-.06-4.25-1.16-6-.95-4.48.51-4.05,12.84-1.19,14.63Z"/>
    <path class="cls-1" d="m208.35,63.58c1.91,5.61-6.39,11.66.43,14.71l120.7-4.33-1.44-5.23-46.54,2.68-9.13-.04v-2.59s55.69-2.72,55.69-2.72c1.53-.49,3.57-8.13,3.14-8.53l-122.85,6.06Z"/>
    <path class="cls-1" d="m346.91,301.64c-.34.56-.72,8.63-.56,10.26l95.05-9.64c2.31-.76,2.31-7.27,1.31-9.31-18.96.72-37.9,3.27-56.84,4.9-3.06.57-4.01-2.69-.6-3.26l53.27-4.74c3.13-.44,1.21-4.86,1.68-7.38-21.63,1.2-43.38,3.01-64.93,5.59-3.41,2.03-27.56,12.24-28.38,13.58Z"/>
    <path class="cls-1" d="m338.29,196.98c-.44.28-2.78,6.08-2.8,7.17-.02,1.62,3.13,9.77,4.07,10l95.44-5.66c-2.61-2.04-1.6-5.33-1.71-8.23l-55.37,1.73,2.16-2.59,53.49-1.7c1.72-1.59,2.08-4.06-.72-4.36l-94.57,3.62Z"/>
    <path class="cls-1" d="m210.94,120.68c.56,4.13-.58,7.43-1.72,11.25,40.6-.96,81.26-2.21,121.99-2.59-.15-3.93-.28-7.73,1.73-11.24l-122,2.58Z"/>
    <path class="cls-1" d="m339.86,235.76c.73,3.94,2.52,6.98,1.72,11.25,24.97-1.33,49.92-3.37,74.85-5.19,3.44-.25,6.93.23,10.36-.02,11.48-.81,12.71,0,7.7-11.29l-94.64,5.25Z"/>
    <path class="cls-1" d="m333.8,106.84c1.86,4.96,3.55,8.39,1.73,13.83l74.4.87c-.68-2.59-1.8-4.92-2.37-7.58-.87-4.06,1.4-4.66-4.21-5.28-17.96-1.98-40.29-.28-58.77-.94-3.44-.12-7.07-1.6-10.78-.9Z"/>
    <path class="cls-1" d="m232.7,408.05c-.83.52-1.65,5.43-.18,6.42.35.23,7,1.12,8.28,1.23,33.54,2.89,69.29,4.98,102.94,6.07,3.37.11,7.86,3,8-3.19.15-6.79-13.71-4.31-18.36-4.61-29.91-1.94-60.03-4.82-89.95-6.08-1.72-.07-10.1-.23-10.72.16Z"/>
    <path class="cls-1" d="m233.44,418.32c1.78,2.57-.64,7.21,3.03,7.78l112.91,6.92-.86-7.79-115.08-6.91Z"/>
    <path class="cls-1" d="m223.18,286.92c-1.54,2.79-3.01,9.46,1.16,10.27l93.88,2.57c.11-1.22-1.92-1.41-2.89-1.85-5.22-2.35-18.68-8.64-23.57-9.31-9.94-1.37-27.05-.68-37.96-.98-10.21-.28-20.44.09-30.63-.71Z"/>
    <path class="cls-1" d="m216.13,268.63c.2,2.5-1.14,6.49,2.17,6.93l117.9,2.2-2.1-6.56-117.97-2.56Z"/>
    <path class="cls-1" d="m209.21,81.74c-.66,8.69,2.09,5.31,7.32,5.16,38.36-1.13,76.7-1.89,114.96-4.44,2-.67,2.48-4.05,2.31-5.9l-124.59,5.18Z"/>
    <path class="cls-1" d="m405.52,152.73c-.02.46-.04.93-.04,1.4,0,1.73.79,2.94,1.9,3.65-.06,1.56.57,3.14,1.88,4.03.16.48.34.94.53,1.4l-70.81,1.58c.73-3.72,2.53-6.57.86-10.37l65.66-1.69Z"/>
    <path class="cls-1" d="m351.96,425.23c-.3.29.22,6.44,0,7.79,33.19-4.53,66.27-10.25,99.49-14.72v-7.78s-99.49,14.7-99.49,14.7Z"/>
    <path class="cls-1" d="m353.7,422.63l98.89-14.69c1.79-.43,2.73-7.99-1.52-6.98l-95.95,13.15c-1.86.5-.13,6.2-1.42,8.52Z"/>
    <path class="cls-1" d="m340.75,260.01c-.29.27-.95,6.6-1.76,7.75,21.23-.6,42.43-3.38,63.6-5.18,9.47-.8,19.96-.51,29.36-1.82,4.22-.59,4.21-4.03,4.8-7.7l-96,6.95Z"/>
    <path class="cls-1" d="m338.12,271.22l.96,6.83c32.03-.84,63.93-5.79,95.95-7.69v-6.93s-96.91,7.79-96.91,7.79Z"/>
    <path class="cls-1" d="m339.85,131.92c27.65.66,55.33,1.17,83.07.87.51,2.36-.03,3.2-1.12,3.61-.95-.96-2.36-1.38-4.13-.71-3.89,1.47-6.83,3.77-8.85,6.69-.06,0-.11,0-.17,0-1.15-.07-2.22-.93-2.61-.95-22.43-.98-45.44.73-67.92,0,1.06-3.3,2.36-5.82,1.73-9.52Z"/>
    <path class="cls-1" d="m332.07,48.87c1.03,6.54,1.86,7.84,8.33,8.54l91.17,5.3c.54-.54-.65-7.34-3.02-6.93l-96.48-6.91Z"/>
    <path class="cls-1" d="m335.53,86.08l2.23,8.7c13.23.37,26.54.32,39.77.78,9.99.35,24.17,2.73,33.76,1.82,4.56-.43,7.74-4.71,13.13-5.03,3.45-.21,10.45,3.72,5.71-1.81-31.48-1.94-63.06-3.34-94.6-4.45Z"/>
    <path class="cls-1" d="m221.33,278.15l2.3,6.09c14.93.64,29.96.28,44.89.79,19.81.67,39.8,2.01,59.63,2.67,5.88.19,14.59,2.14,12.59-6.1l-119.4-3.45Z"/>
    <path class="cls-1" d="m206.61,54.92v5.2c41.32-1.19,82.41-3.95,123.74-5.64l-.92-5.57-122.82,6.01Z"/>
    <path class="cls-1" d="m340.72,185.58c-.27.29,2.11,6.01,0,7.77l87.38-3.46c-1.41-1.13-4.27-5.91-5.19-6.47-3.08-1.87-16.11.38-20.29.46-10.12.19-20.27.61-30.28.87-4.47.11-30.15-.73-31.62.84Z"/>
    <path class="cls-1" d="m351.97,322.28c1.45,1.76,6.14,7.54,8.01,7.57l78.92-8.46c3.9-.73,5.78-8.07-1.72-7.82-19.59.65-42.41,4.9-62.29,6.97-7.59.79-15.3,1.37-22.92,1.75Z"/>
    <path class="cls-1" d="m340.73,257.39l95.17-7.37c-.85-1.76-.9-5.62-3.01-5.67l-91.74,5.25c-4.27.81-.72,4.93-.43,7.79Z"/>
    <path class="cls-1" d="m248.15,340.45c2.03,5.9-4.95,8.21,4.83,9.44,5.33.67,13.18.67,18.93.97,8.91.47,17.95-.08,26.87.84,2.53-.35,1.85-3.14,3.88-4.77,6.92-5.58,26.78,1.52,36.67.33,4.49-.54,8.87-2.84,1.87-3.4-18.6-1.48-37.64-1.92-56.24-2.59-12.25-.44-24.56-.49-36.81-.82Z"/>
    <path class="cls-1" d="m344.39,281.82c-.57.67-1.66,5.81-.63,5.85l98.48-8.8c2.74-.86,1.19-5.67-.81-6.64l-97.05,9.58Z"/>
    <path class="cls-1" d="m339.98,226.36c-.76.48-1.38,6.42-.99,6.8,22.06-.95,44.15-2.9,66.2-4.32,7.99-.51,18.22.11,25.9-.96,4.2-.58,3.96-3.07,3.94-6.84l-95.05,5.31Z"/>
    <path class="cls-1" d="m341.59,223.64l94.59-5.16c4.32-6.84-1.44-6.41-6.82-6.12-24.12,1.27-48.49,3.08-72.6,4.39-6.99.38-17.51-3.39-15.18,6.89Z"/>
    <path class="cls-1" d="m339.12,175.31c-1.14.71-2.57,6.31,2,6.84,9.31,1.09,19.34-.68,28.56-.94,15.5-.43,34.38.7,49.39-.79,4.59-.46,2.18-3.91.69-7l-80.64,1.89Z"/>
    <path class="cls-1" d="m331.2,68.78c1.1,1.93.36,4.99,3.02,5.19l101.67,5.18c.4-3.63-.17-5.42-3.96-6l-100.74-4.38Z"/>
    <path class="cls-1" d="m336.41,76.57c-.28.29-1.59,7.7,1.29,6.91l91.28,3.47v-5.2s-92.57-5.17-92.57-5.17Z"/>
    <path class="cls-1" d="m232.57,391.49c6.24-.71,12.64.58,18.61.86,18.42.84,36.97,1.29,55.35,2.61,1.03.07,6.24.66,6.47.89.08.08.13.76.19,1.63-.4,1.37-.25,2.92.58,4.12.04.1.08.19.12.26l-79.89-4.28c-1.36-.3-1.55-4.83-1.44-6.09Z"/>
    <path class="cls-1" d="m345.04,314.49c-1.77,1.74,2.37,5.81,4.73,5.64,28.89-4.18,58.5-4.81,87.34-9.21,3.87-.59,3.27-1.29,3.11-5.09l-95.18,8.66Z"/>
    <path class="cls-1" d="m333.94,60.26c-.42.26-2.36,5.44-1.87,5.9,28.97.51,57.94,2.54,86.99,3.43,4.96.15,11.93,4.08,10.78-4.29l-95.9-5.04Z"/>
    <path class="cls-1" d="m212.67,134.53c1.42,2.79-.5,8.04,3.02,8.65l68.78-1.74-19.44-7.8-52.36.89Z"/>
    <path class="cls-1" d="m332.94,104.24l73.98,1.75c2.74-.53,2.34-3.98,3.88-6.06l-73.16-2.65c-2.6-1.13-5.51,6.21-4.71,6.97Z"/>
    <path class="cls-1" d="m235.59,400.11c15.27,1.13,30.6,2.52,45.87,3.48,8.82.55,18,.24,26.8.88,2.34.17,4.75.47,7.2.82.36.67.91,1.29,1.72,1.77,2.78,1.69,6.02,1.59,9.21,1.49,1.33.22,2.69.34,4.12.12.13-.02.23-.06.35-.08,4.16.24,8.33.77,12.51.6,1.44-.06,3.08-.15,4.77-.35.25.63.38,1.46.37,2.54l-115.07-6.92c-.13-2.01-.27-4.19,2.16-4.35Z"/>
    <path class="cls-1" d="m419.45,130.19l-6.93-5.6c-16.17-1.05-32.63-.16-48.9-.41-8.67-.13-18.04-1.99-26.83-.94-5.13.61-2.99,5.84.86,6.15l81.81.81Z"/>
    <path class="cls-1" d="m245.64,382.07c-.29.26-1.44,5.81-3.56,6.81l72.67,3.46-7.21-3.6-5.36-4.16-56.56-2.52Z"/>
    <path class="cls-1" d="m338.56,144.04l68.83.84c-.76,1.63-1.3,3.4-1.6,5.3l-68.43.68c-.41-2.49-2.49-6.23,1.21-6.82Z"/>
    <polygon class="cls-1" points="274.97 133.67 306.5 147.51 332.08 132.36 274.97 133.67"/>
    <polygon class="cls-2" points="303.52 289.4 335.96 304.04 365.82 288.96 303.52 289.4"/>
    <path class="cls-1" d="m249.2,372.66c-.56.33-3.3,4.07-5.36,4.55l2.33,1.98c19.15.93,38.18,1.93,57.32,2.74-.09-2.61.6-4.74,2.63-6.46-7.5-2.14-15.31-.84-22.96-1.26-5.22-.29-31.29-3.14-33.95-1.56Z"/>
    <path class="cls-1" d="m300.92,371.58c-2.62-1.49-1.36-8.28-1.73-8.65-.57-.57-13.55.14-16.05.04-7.95-.33-16.21-1.51-24.15-1.8-9.44-.34-12.47-.89-6.85,8.58l48.77,1.83Z"/>
    <path class="cls-1" d="m411.26,165.86c1.9,2.21,5.02,1.65,6.75-.15l2.31-.05v5.2l-79.11,1.76-1.35-5.21,71.41-1.55Z"/>
    <path class="cls-1" d="m245.79,350.12c-2.74-.81-10.76,2.01-14.53,2.42-3.16.34-8.56-.69-11.09.16-3.28,1.1-4.07,10.31,2.41,11.15,5.38.7,26.09-.71,27.16-7.59.32-2.05-2.03-5.56-3.94-6.13Z"/>
    <path class="cls-1" d="m244.45,346.28c1.43-1.52,1.39-5.27.29-6.99-2.53-3.97-33.6-5.08-27.31,8.08,2.3,4.81,24.33,1.78,27.02-1.09Z"/>
    <path class="cls-1" d="m252.47,352.55v6.07c10.23.47,20.52.46,30.75.83,2.05.07,3.94.87,5.99.94s14.34.59,14.3-1.33c0-.28-3.21-4.18-3.45-4.32-1.92-1.16-12.68-.24-16.04-.4-1.84-.09-3.49-.81-5.16-.89-8.76-.45-17.63-.12-26.38-.88Z"/>
    <path class="cls-2" d="m199.69,235.75h22.93l26.39-9.52h-35.04c-.86,0-12.51,8.15-14.28,9.52Z"/>
    <path class="cls-1" d="m245.85,363.9c-.89-.25-14.8,3.21-18.07,3.38-3.71.2-7.36-2.54-8.69,1.69-4.06,12.94,27.18,7.13,28.91,1.13.52-1.79-.25-5.67-2.15-6.2Z"/>
    <path class="cls-1" d="m240.66,377.74c-3.15,1.71-16.23,1.01-17.66,2.01-1.33.93-1.07,5.09-.38,6.55,3.09,6.49,27.42.48,18.03-8.56Z"/>
    <path class="cls-1" d="m423.78,159.18c.56-4.1,0-10.29,0-14.71,0-.03.01-.14.03-.29.62,4.6,2.75,8.83,5.81,12.27-1.72,2.64-4.62,5.14-6.71,4.02-.44-.31.83-1.05.86-1.29Z"/>
    <path class="cls-1" d="m208.78,151.83c1.55-.5,2.89-8.68,1.72-8.66l-17.72,6.94c-.25.32,1.13,1.72,1.3,1.72,3.04,0,12.78.63,14.71,0Z"/>
    <path class="cls-2" d="m208.35,99.92c.36-1.41-.68-9.5-2.16-9.5l-14.28,9.5h16.44Z"/>
    <path class="cls-1" d="m324.29,141.44c7.64.18,12.52,1.72,12.97-7.78-.71-.68-10.32,4.4-11.54,5.33-.98.74-1.77.9-1.43,2.45Z"/>
    <path class="cls-1" d="m222.19,335.24c-.35-3.52-2.59-6.13-1.73-9.94-8.05-.9-6.83,13.45,1.73,9.94Z"/>
    <path class="cls-1" d="m418.61,160.48c-1.06-1.82-1.43-4.8-1.15-7.79h3.72s-.87,8.65-.87,8.65c-.54-.22-1.09-.47-1.64-.74-.02-.04-.04-.08-.06-.12Z"/>
    <path class="cls-1" d="m420.31,144.88c.29,0,.58.02.88.02v5.2h-3.31c.48-2.07,1.29-3.95,2.43-5.22Z"/>
    <path class="cls-1" d="m436.76,201.14c5.95.87,5.45-2.06,5.18-6.92-4.89-.97-4.67,3.27-5.18,6.92Z"/>
    <path d="m443.23,164.81c-1.61-.34-2.54,2.86-3.89,3.88-2.05,1.54-5.15,1.29-6.89,3.47,2.91,5.32,16.21-6.19,10.78-7.35Z"/>
  </g>
  <g>
    <rect class="cls-5" x="565.68" y="592.18" width="39.41" height="2.89" transform="translate(611.07 1426.94) rotate(-137.17)"/>
    <path class="cls-5" d="m574.25,585.26c.1-.1.21-.2.31-.3l.32.3,6.63,6.14.32.29.32.29-.3.31-.32-.3-.31.31-.32-.29-6.64-6.16.32-.3-.32-.29Zm-2.35-6.71l4.45,4.13.32.29.32.29,24.45,22.67-.62.67-.29.31-.29.32-1.34,1.44-17.35-16.08-.32-.29-.32-.29-6.64-6.16-.32-.3-.32-.29-4.27-3.95,2.55-2.75Zm26.94,28.92l.76-.82.29-.32.29-.32.03-.03-1.15-1.06-14.8-13.73-.99-.93-.32-.29-6.58-6.1-.32-.29-.31-.29-3.78-3.5-1.38,1.48,3.68,3.41.32.29.32.3,6.63,6.14.32.29.32.29,16.69,15.48Z"/>
  </g>
  <g>
    <rect class="cls-5" x="525.13" y="631.11" width="27.79" height="2.89" transform="translate(504.24 1462.88) rotate(-137.17)"/>
    <path class="cls-5" d="m529.79,621.43l2.78,2.58.32.29.31.29,7.94,7.35.32.29.31.29,9.03,8.38-1.11,1.19-1.44,1.56-2.3-2.15-5.08-4.69-.37-.34-.02-.02-.37-.36-9.65-8.94-.31-.29-.32-.29-2.59-2.41,2.55-2.75Zm10.88,14.03l.37.34,6.36,5.9.8.74.49-.54.88-.94-8.15-7.55-.37-.36-.37-.36-8.12-7.5-.32-.29-.31-.31-2.1-1.95-1.37,1.48,2.01,1.85.32.29.31.29,9.19,8.52.37.36.02.02Zm-8.11-10.87l.32.29.31-.29,7.94,7.35-.31.31.31.29c-.02.17-.05.34-.08.51l-.37-.36-8.12-7.5-.32-.29c.11-.11.22-.2.32-.31Z"/>
  </g>
  <g>
    <rect class="cls-5" x="340.35" y="641.74" width="27.79" height="2.89" transform="translate(-378.39 692.42) rotate(-65)"/>
    <path class="cls-5" d="m350.49,646.81l5.2-11.16.39.18.18-.39.4.17-.18.39-5.21,11.17-.18.4c-.13-.06-.27-.12-.4-.18l.19-.4-.39-.18Zm-.37.79l.18-.39.19-.4,5.2-11.16.36-.78,2.55-5.47,3.4,1.58-2.53,5.42-.18.39-.19.39-5.23,11.2-3.99,8.57-.39-.18-.4-.18-2.61-1.22,3.63-7.78Zm-.64,8.21l3.25-6.99.19-.39.18-.4,5.22-11.2.18-.39.18-.39,2.17-4.65-1.83-.85-2.18,4.67-.18.39-.18.39-5.21,11.17-.18.4-.18.39-3.26,6.99,1.83.86h0Z"/>
  </g>
  <g>
    <rect class="cls-5" x="284.97" y="617.9" width="27.79" height="2.89" transform="translate(-388.76 627.75) rotate(-64.94)"/>
    <path class="cls-5" d="m298.48,622.57l4.88-10.44.18-.4.19-.39.4.17-.19.4.39.17-.18.4-4.89,10.45-.39-.18-.18.39c-.13-.06-.26-.12-.39-.18l.18-.39Zm-3.3.22l.29-.6.28-.6,4.98-10.65.18-.4.18-.39,2.15-4.59,3.4,1.58-2.12,4.54-.19.39-.18.4-4.89,10.45-.18.39-.18.39-4.4,9.4-3.4-1.59,4.08-8.74Zm3.11.17l.18-.39,4.88-10.44.18-.4.19-.39,1.76-3.76-1.83-.86-1.77,3.79-.18.4-.19.39-4.87,10.42-.18.39-.18.39-4.03,8.62,1.83.86,4.03-8.62.18-.39Z"/>
  </g>
  <g>
    <path class="cls-5" d="m541.14,632.55c-2.44,14.68-4.87,29.35-7.31,44.03-11.04,1.65-18.99,7.62-19.87,14.48-.18,1.42-.15,3.54,1.03,6.22h35.2c14.02-13.44,28.05-26.88,42.07-40.33l.79-15.94,8.19,6.66,20-20.67-37.97-36.74c-14.04,14.1-28.09,28.2-42.13,42.3Z"/>
    <path class="cls-5" d="m513.54,691c.91-7.15,8.89-13.08,19.92-14.81l2.19-13.22.57-3.46.93-5.53.59-3.52.88-5.31.59-3.57.91-5.48.08-.51.09-.51.4-2.39.03-.23.03-.14.39-.39,39.76-39.93.62-.62,1.76-1.76,1.2,1.16,14.59,14.13,1.13,1.08.31.31.31.29,21.06,20.38-20.58,21.26-7.84-6.36-.76,15.25-42.18,40.44-.14.12h-35.66l-.06-.12-.05-.14c-.97-2.19-1.33-4.37-1.05-6.44Zm36.47,5.84l41.82-40.08.83-16.63,8.54,6.95,19.42-20.07-20.41-19.76-.31-.29-.31-.29-16.32-15.79-1.13,1.13-.31.32-.31.29-39.77,39.93-.22.22-.03.14v.02l-.09.51-.39,2.39-.08.51-.09.51-.77,4.69-.59,3.54-.9,5.4-.59,3.49-.93,5.6-.57,3.44-2.32,13.96-.32.05c-10.61,1.59-18.63,7.4-19.5,14.11-.23,1.84.06,3.77.88,5.73h34.74Zm-9.19-64.58l.31-.31,39.76-39.93.32.29.31-.31.32.31-.31.29-39.77,39.93-.22.22-.03.14v.02l-.09.51-.37-.36c.03-.17.06-.34.08-.51l-.31-.29Z"/>
    <polygon class="cls-1" points="533.2 624.6 541.13 631.95 580.9 592.02 574.25 585.86 533.2 624.6"/>
  </g>
  <g>
    <path class="cls-5" d="m353.3,648.61l-22.76,48.8c-8.63-4.03-17.27-8.05-25.9-12.08,1.11-3.52,2.23-7.04,3.34-10.55-5.08,1.67-10.16,3.34-15.24,5.01-6.48-3.02-12.95-6.04-19.43-9.06-18.78-9.89-37.56-19.77-56.33-29.66.99-1.77,2.74-4.44,5.64-6.79,10.29-8.35,23.78-3.67,40.37-4.27,7.89-.28,19.28-1.86,33.08-8.08,19.08,8.9,38.15,17.79,57.23,26.69Z"/>
    <path class="cls-5" d="m298.3,622.96c.13.06.26.12.39.18l.18-.39.39.18,51.23,23.88.39.18-.19.4c.13.06.27.12.4.18l-.18.39-.4-.18-.39-.18-51.22-23.89-.78-.36.18-.39Zm-81.69,17.9c1.52-2.73,3.45-5.06,5.75-6.92,7.35-5.96,16.27-5.41,26.62-4.76,4.46.28,9.07.57,14.01.39.25,0,.49-.02.74-.03,1.24-.05,2.47-.14,3.71-.25,1.87-.17,3.74-.42,5.62-.73,1.19-.2,2.37-.42,3.56-.67,1.72-.35,3.45-.77,5.18-1.25,1.14-.3,2.28-.65,3.43-1.01,3.5-1.11,7.02-2.45,10.52-4.02.05-.03.1-.04.16-.07l.17-.08.18.09.39.18,1.83.86.39.18.39.18,51.23,23.88.78.36,1.83.86.39.18.39.18-3.99,8.57-18.94,40.61-.19.42-.89-.42-25.75-12.01,3.2-10.11-14.6,4.8-19.61-9.15-56.72-29.87.22-.38Zm92.05,33.24l-3.48,11,25.16,11.74,18.77-40.24.18-.4.18-.39,3.26-6.99-1.83-.86-.4-.18-.39-.18-51.22-23.89-.78-.36-1.83-.86-.21-.1c-.1.04-.19.09-.29.12-.2.1-.41.18-.61.27-3.17,1.38-6.35,2.59-9.53,3.6-1.13.36-2.28.7-3.42,1.01-1.76.49-3.5.93-5.25,1.28-1.18.26-2.35.48-3.53.68-1.89.32-3.79.57-5.68.74-1.22.13-2.44.22-3.66.28-.37.03-.74.03-1.11.05-4.98.18-9.61-.11-14.09-.39-10.17-.64-18.95-1.19-26.03,4.57-2.09,1.7-3.88,3.82-5.31,6.28l55.92,29.44,19.28,8.98,15.88-5.22Z"/>
    <polygon class="cls-1" points="299.26 622.93 350.49 646.81 355.69 635.65 304.15 612.48 299.26 622.93"/>
  </g>
  <path class="cls-5" d="m340.57,367.69l.33-2.57c-12.38-1.6-29.34-4.02-33.69-6.48-1.49-.85-3.03-1.81-4.12-3.13-1.08-1.3-1.58-2.86-1.33-4.18.4-2.12,2.63-3.5,4.53-3.89,1.83-.37,3.67-.13,5.63.13.53.07,1.06.14,1.6.2l24.09,2.69s2.01.35,5.2,0c2.18-.24,3.21-.65,3.81-1.53,1.1-1.63.11-3.73-.9-5.58-1.38-2.53-2.6-3.9-3.78-5.23-.77-.86-1.56-1.75-2.42-3-1.38-1.99-2.93-4.24-3.15-7.3-.08-1.12-.19-4.89,1.79-6.11.65-.4,1.87-.8,5.01.4,6.03,2.3,9.71,6.91,11.69,9.38.25.31.47.58.66.81,5.6,6.69,16.5,9.54,32.41,8.46l-.18-2.59c-15.03,1.02-25.21-1.51-30.24-7.53-.18-.22-.39-.47-.62-.77-1.98-2.48-6.11-7.64-12.79-10.19-3.2-1.22-5.52-1.28-7.3-.18-3.13,1.94-3.15,6.59-3.01,8.5.27,3.77,2.12,6.44,3.61,8.59.95,1.38,1.8,2.33,2.62,3.25,1.13,1.27,2.2,2.47,3.44,4.74,1.29,2.36,1.06,2.84,1.02,2.88h0s-.34.23-1.94.4c-2.78.31-4.53.01-4.55,0l-24.17-2.71c-.52-.06-1.04-.13-1.55-.2-2.08-.28-4.23-.56-6.49-.1-2.82.57-5.94,2.64-6.56,5.96-.39,2.1.29,4.4,1.89,6.32,1.36,1.64,3.13,2.76,4.84,3.73,3.71,2.1,14.07,4.13,34.63,6.79Z"/>
  <path class="cls-5" d="m337,382.57c1.33,0,2.66-.03,3.99-.08l-.11-2.59c-6.95.29-13.86-.2-20.54-1.45-6.38-1.2-17.05-3.2-19.88-9.22-.26-.56-.95-2.03-.53-3.59.75-2.73,5.65-4.32,6.92-4.6l-.55-2.54c-.31.07-7.57,1.7-8.87,6.45-.68,2.47.35,4.66.68,5.37,3.39,7.22,14.44,9.29,21.75,10.66,5.59,1.05,11.34,1.58,17.14,1.58Z"/>
  <path class="cls-5" d="m334.77,395.63c2.44,0,4.52-.07,5.96-.13l-.12-2.59c-14.33.64-32.16-.93-35.23-7.46-.41-.88-1.52-3.22-.6-5.18.71-1.53,3.15-1.85,7.24-.94.44.1.6.13.84.14v-1.3s.11-1.29.11-1.29c-.08-.01-.21-.04-.39-.08-2.03-.45-8.19-1.81-10.15,2.38-1.43,3.06.1,6.31.61,7.38,3.69,7.85,21.18,9.08,31.74,9.08Z"/>
  <path class="cls-5" d="m332.23,408.66c17.26,0,43.13-5.72,65.18-11.61l-.67-2.51c-44.04,11.76-73.16,14.68-79.89,8.02-.76-.75-3.08-3.04-2.66-4.88.75-3.28,10.13-2.59,13.67-2.32,1.13.08,1.95.15,2.48.13l-.09-2.59c-.39.02-1.23-.05-2.2-.12-5.29-.39-15.14-1.12-16.39,4.33-.74,3.24,2.24,6.19,3.36,7.3,3.05,3.02,9.2,4.25,17.21,4.25Z"/>
  <path class="cls-5" d="m217.42,338.47c1.53,0,3.05-.5,4.27-1.42.73-.56,1.68-1.51,2-2.9.3-1.29-.03-2.52-.29-3.51l-1.34-4.99c-.06-.23-.11-.51-.17-.81-.2-1.05-.44-2.36-1.2-3.19-1.3-1.41-3.29-.79-4.36-.45-1.12.35-3.53,1.25-4.14,2.64-1.97,2.2-2.81,5.31-2.18,8.19.67,3.13,3.06,5.65,5.93,6.28.48.1.97.16,1.46.16Zm1.14-15.1c.15,0,.21.03.23.05.25.27.45,1.33.55,1.9.07.38.14.72.21,1l1.34,4.99c.2.74.43,1.59.27,2.24-.12.5-.49,1.01-1.05,1.43-1.02.77-2.37,1.07-3.62.8-1.87-.41-3.49-2.17-3.95-4.29-.46-2.13.22-4.51,1.73-6.08l.36-.38v-.19c.48-.37,1.78-.95,2.47-1.17.8-.25,1.22-.32,1.44-.32Z"/>
  <path class="cls-5" d="m223.04,353.41c1.83,0,3.54-.34,5.21-.67,1.18-.23,2.41-.48,3.64-.59l.93-.08c3.54-.3,7.94-.68,10.75-2.87,2.23-1.74,3.11-3.54,3.13-6.42.03-2.88-1.72-5.71-4.55-7.4-2.09-1.25-4.65-1.89-8.05-2.03-5.78-.23-11.59.97-16.8,3.46-1.49.71-3.13,1.66-4.06,3.3-.88,1.55-.9,3.33-.91,4.75-.02,1.91-.05,5.87,2.92,7.41,1.46.76,3.39.87,5.1.97.47.03.92.05,1.32.1.47.05.93.07,1.38.07Zm9.65-17.5c.43,0,.87,0,1.3.03,2.95.12,5.12.65,6.83,1.66,2.01,1.2,3.3,3.22,3.29,5.15-.02,2.08-.54,3.15-2.14,4.4-2.2,1.72-6.17,2.05-9.37,2.33l-.94.08c-1.37.12-2.66.38-3.91.63-1.99.39-3.87.77-5.83.57h0c-.43-.04-.92-.07-1.42-.1-1.38-.08-3.09-.19-4.06-.69-1.37-.71-1.54-2.86-1.52-5.08.01-1.18.02-2.53.57-3.49.58-1.02,1.8-1.7,2.93-2.24,4.44-2.12,9.36-3.23,14.28-3.23Z"/>
  <path class="cls-5" d="m228.64,392.66c1.45,0,3.03-.15,4.73-.46h0c2.4-.44,5.76-1.53,8.14-4.29,1.39-1.62,2.28-3.67,2.52-5.79.23-2.05-.37-3.76-1.62-4.69-1.28-.94-2.87-.85-3.93-.79l-12.65.73c-1.68.1-3.98.23-5.75,1.55-2.46,1.83-3.17,5.59-1.63,8.56,1.79,3.44,5.28,5.19,10.21,5.19Zm10.78-13.47c.59,0,1.1.07,1.44.32.58.42.68,1.48.59,2.32-.17,1.61-.85,3.16-1.9,4.38-1.88,2.18-4.64,3.07-6.63,3.43h0c-4.34.78-9.97.84-12.17-3.38-.96-1.84-.57-4.21.87-5.28,1.15-.86,2.93-.96,4.35-1.04l12.66-.73c.27-.02.54-.03.8-.03Z"/>
  <path class="cls-5" d="m227.39,379.53c4.92,0,8.86-.48,12.38-1.51,3.97-1.17,7.97-2.64,10.32-5.53,1.35-1.65,1.97-3.61,1.72-5.38-.42-2.91-3.03-4.85-5.43-5.48-2.32-.61-4.61-.35-7.14.03-3.45.52-6.86,1.1-10.16,1.65l-7.85,1.33c-1.64.28-3.88.66-5.45,2.21-1.81,1.79-2.21,4.9-.95,7.39,1.04,2.04,3.02,3.63,5.59,4.47,2.27.74,4.63.81,6.66.82.11,0,.22,0,.33,0Zm15.99-15.67c.81,0,1.59.08,2.34.28,1.53.4,3.28,1.62,3.53,3.34.15,1.06-.27,2.28-1.16,3.37h0c-1.91,2.34-5.48,3.63-9.04,4.68-3.34.98-7.15,1.43-11.96,1.41-1.83,0-3.95-.07-5.86-.7-1.89-.62-3.37-1.77-4.09-3.18-.75-1.48-.55-3.36.46-4.37.91-.9,2.37-1.21,4.06-1.49l7.85-1.33c3.29-.56,6.69-1.13,10.11-1.65,1.33-.2,2.58-.36,3.76-.36Z"/>
  <path class="cls-5" d="m223.54,367.13c1.57,0,3.12-.2,4.6-.41,3.89-.57,7.8-1.31,11.64-2.22,1.94-.46,3.89-.97,5.8-1.51.27-.08.55-.14.84-.21,1.22-.3,2.6-.63,3.65-1.56,1.56-1.38,2.5-3.61,2.33-5.56h0c-.18-1.95-1.26-3.81-2.98-5.11-1.41-1.07-3.18-1.74-5.27-1.99-2.4-.29-4.75.01-7.02.3l-14.48,1.87c-1.85.24-3.96.51-5.78,1.66-1.76,1.11-3.04,2.99-3.44,5.03-.39,2.04.1,4.26,1.33,5.94,1.39,1.91,3.69,3.19,6.46,3.61.78.12,1.56.17,2.33.17Zm26.26-11.24c.1,1.13-.51,2.55-1.45,3.38-.57.5-1.57.75-2.54.98-.32.08-.64.15-.93.24-1.87.53-3.78,1.03-5.68,1.48-3.77.89-7.61,1.62-11.42,2.18-2.02.29-4.16.56-6.16.25-2.06-.31-3.79-1.25-4.76-2.58-.81-1.11-1.14-2.58-.88-3.92.26-1.35,1.11-2.59,2.27-3.32,1.34-.84,3.14-1.07,4.73-1.28l14.48-1.87c2.11-.27,4.3-.55,6.38-.3,1.6.19,2.99.71,4.02,1.48,1.12.85,1.85,2.07,1.96,3.27h0Z"/>
  <path class="cls-5" d="m641.83,525.72h28.65c.72,0,1.3-.58,1.3-1.3s-.58-1.3-1.3-1.3h-28.65c-.72,0-1.3.58-1.3,1.3s.58,1.3,1.3,1.3Z"/>
  <path class="cls-5" d="m543.58,525.72h85.75c.72,0,1.3-.58,1.3-1.3s-.58-1.3-1.3-1.3h-85.75c-.72,0-1.3.58-1.3,1.3s.58,1.3,1.3,1.3Z"/>
  <path class="cls-5" d="m555.88,541.88h44.94c.72,0,1.3-.58,1.3-1.3s-.58-1.3-1.3-1.3h-44.94c-.72,0-1.3.58-1.3,1.3s.58,1.3,1.3,1.3Z"/>
  <path class="cls-5" d="m707.77,663.97h28.65c.72,0,1.3-.58,1.3-1.3s-.58-1.3-1.3-1.3h-28.65c-.72,0-1.3.58-1.3,1.3s.58,1.3,1.3,1.3Z"/>
  <path class="cls-5" d="m609.53,663.97h85.75c.72,0,1.3-.58,1.3-1.3s-.58-1.3-1.3-1.3h-85.75c-.72,0-1.3.58-1.3,1.3s.58,1.3,1.3,1.3Z"/>
  <g>
    <path class="cls-5" d="m149.43,697.58c-.72,0-1.3.58-1.3,1.3s.58,1.3,1.3,1.3"/>
    <path class="cls-5" d="m671.14,700.18c.72,0,1.3-.58,1.3-1.3s-.58-1.3-1.3-1.3"/>
  </g>
  <path class="cls-5" d="m621.83,647.81h44.94c.72,0,1.3-.58,1.3-1.3s-.58-1.3-1.3-1.3h-44.94c-.72,0-1.3.58-1.3,1.3s.58,1.3,1.3,1.3Z"/>
  <path class="cls-5" d="m680.79,700.18h44.94c.72,0,1.3-.58,1.3-1.3s-.58-1.3-1.3-1.3h-44.94c-.72,0-1.3.58-1.3,1.3s.58,1.3,1.3,1.3Z"/>
  <path class="cls-5" d="m118.48,700.18h20.46c.72,0,1.3-.58,1.3-1.3s-.58-1.3-1.3-1.3h-20.46c-.72,0-1.3.58-1.3,1.3s.58,1.3,1.3,1.3Z"/>
  <path class="cls-5" d="m71.95,700.18h30.74c.72,0,1.3-.58,1.3-1.3s-.58-1.3-1.3-1.3h-30.74c-.72,0-1.3.58-1.3,1.3s.58,1.3,1.3,1.3Z"/>
  <path class="cls-5" d="m487.82,525.72h46.91c.72,0,1.3-.58,1.3-1.3s-.58-1.3-1.3-1.3h-46.91c-.72,0-1.3.58-1.3,1.3s.58,1.3,1.3,1.3Z"/>
  <path class="cls-5" d="m523.97,541.88h21.53c.72,0,1.3-.58,1.3-1.3s-.58-1.3-1.3-1.3h-21.53c-.72,0-1.3.58-1.3,1.3s.58,1.3,1.3,1.3Z"/>
  <path class="cls-5" d="m231.74,465.06v93.1h-93.09v-93.1h93.09Zm-90.49,90.5h87.9v-87.9h-87.9v87.9Z"/>
  <rect class="cls-1" x="141.25" y="467.66" width="87.9" height="87.9"/>
  <circle class="cls-4" cx="595.75" cy="150.02" r="53.83"/>
  <g>
    <rect class="cls-1" x="583.57" y="147.97" width="92.67" height="92.67" transform="translate(1259.81 388.61) rotate(180)"/>
    <path class="cls-5" d="m582.27,241.94h95.27v-95.27h-95.27v95.27Zm92.67-2.6h-90.08v-90.08h90.08v90.08Z"/>
  </g>
  <circle class="cls-4" cx="122.54" cy="457.62" r="89.4"/>
  <path class="cls-5" d="m414.38,97.21c.91-.62,5.3-3.46,10.96-2.88,6,.61,6.78,4.38,12.5,5.77,7.12,1.73,10.38-3.02,16.92-2.88,4.86.1,11.51,2.88,19.37,14.7.36,0,.8.03,1.29.07l1.52-9.76,3.97,1.67c-.78.42-2.92,6.17-3.69,8.31.03,0,.05,0,.08.01,1.83-2.98,8.67-5.05,8.67-5.05l.9,3.27c-2.69.12-4.77,1.6-5.96,2.68,2.19.77,4.47,2.03,6.34,4.11,4.34,4.82,3.79,11.04,3.08,19.23-.51,5.77-1.17,13.38-5.19,14.8-3.39,1.21-5.73-3.22-10.96-2.5-5.28.73-7.1,5.82-9.23,5.1-3.42-1.16,2.26-13.99-2.88-20.1-6.91-8.21-24.98,5.71-42.42-3.55-1.6-.85-11.97-6.36-12.96-16.44-.57-5.86,2.09-12.74,7.69-16.53Z"/>
  <path d="m128.32,211.46c-10.34,0-18.75,8.41-18.75,18.75s8.41,18.74,18.75,18.74,18.75-8.41,18.75-18.74-8.41-18.75-18.75-18.75Zm0,34.03c-8.43,0-15.29-6.85-15.29-15.28s6.86-15.29,15.29-15.29,15.28,6.86,15.28,15.29-6.85,15.28-15.28,15.28Z"/>
  <path class="cls-1" d="m143.6,230.21c0,8.43-6.85,15.28-15.28,15.28s-15.29-6.85-15.29-15.28,6.86-15.29,15.29-15.29,15.28,6.86,15.28,15.29Z"/>
  <path class="cls-5" d="m475.64,205.28s.05,0,.08,0c.72-.04,1.26-.66,1.22-1.37l-1.84-30.9c4.89-.8,9.12-4.05,10.94-8.6,1.99-4.94.97-10.95-2.41-14.29-.23-.22-1.48-1.2-8.04-4.38-.64-.31-1.42-.04-1.73.6-.31.64-.04,1.42.6,1.73,6.26,3.03,7.36,3.91,7.4,3.94,2.57,2.54,3.35,7.47,1.77,11.42-1.62,4.02-5.56,6.8-10,7.13l-1,.03c-.71.02-1.26.61-1.25,1.32.01.65.5,1.19,1.13,1.27l1.84,30.87c.04.69.61,1.22,1.29,1.22Z"/>
  <path class="cls-5" d="m470.47,163.06c.33,0,.66-.13.92-.38l6.81-6.81c.51-.51.51-1.33,0-1.84s-1.33-.51-1.84,0l-6.81,6.81c-.51.51-.51,1.33,0,1.84.25.25.59.38.92.38Z"/>
  <path class="cls-5" d="m449.27,164.48c7.41,0,13.44-6.03,13.44-13.44s-6.03-13.44-13.44-13.44-13.44,6.03-13.44,13.44,6.03,13.44,13.44,13.44Zm0-24.29c5.98,0,10.85,4.87,10.85,10.85s-4.87,10.85-10.85,10.85-10.85-4.87-10.85-10.85,4.87-10.85,10.85-10.85Z"/>
  <path class="cls-5" d="m420.04,164.48c7.41,0,13.44-6.03,13.44-13.44s-6.03-13.44-13.44-13.44-13.44,6.03-13.44,13.44,6.03,13.44,13.44,13.44Zm0-24.29c5.98,0,10.85,4.87,10.85,10.85s-4.87,10.85-10.85,10.85-10.85-4.87-10.85-10.85,4.87-10.85,10.85-10.85Z"/>
  <path class="cls-5" d="m431.38,147.96c.33,0,.66-.13.92-.38,2.04-2.04,4.55-.13,4.83.09.56.45,1.37.36,1.82-.19.45-.56.37-1.37-.18-1.82-1.56-1.28-5.31-2.9-8.3.09-.51.51-.51,1.33,0,1.84.25.25.59.38.92.38Z"/>
  <circle class="cls-5" cx="444.94" cy="150.71" r="2.39"/>
  <circle class="cls-5" cx="426.99" cy="150.71" r="2.39"/>
  <path class="cls-5" d="m432.19,174.89c.11,0,.23-.01.35-.03,3.56-.72,8.45-2.52,11.51-6.99l.03-.04c.41-.47.55-1.16.3-1.78-.35-.89-1.36-1.32-2.25-.96-.51.2-.74.55-.93.82-2.41,3.51-6.41,4.96-9.35,5.56-.94.19-1.54,1.1-1.35,2.04.17.82.89,1.39,1.69,1.39Z"/>
  <path class="cls-5" d="m432.63,166.48c1.41,0,2.59-.42,2.8-.5.67-.25,1.01-1,.76-1.67-.25-.67-1-1.01-1.67-.76h0c-.63.23-2.49.66-3.52-.13-.97-.75-1.03-2.51-.91-3.85.07-.71-.46-1.35-1.18-1.41-.69-.06-1.34.46-1.41,1.18-.26,2.91.38,4.98,1.93,6.16,1,.76,2.16.99,3.2.99Z"/>
  <path class="cls-5" d="m434.67,194.26c.11,0,.23,0,.34,0,19.61-.52,24.13-2.6,24.58-2.84.64-.33.88-1.12.55-1.75-.33-.63-1.1-.88-1.73-.56-.12.05-4.65,2.05-23.46,2.56-2.7.04-4.92-.93-6.76-3.05-11.1-12.85-3.09-59.66-3.01-60.13.12-.71-.35-1.38-1.06-1.5-.7-.13-1.38.35-1.5,1.06-.34,1.97-8.29,48.5,3.6,62.28,2.26,2.62,5.1,3.95,8.45,3.95Z"/>
  <path class="cls-5" d="m441.87,193.48v10.26s18.48,1.15,18.33-13.29l-18.33,3.02Z"/>
  <g>
    <polygon class="cls-1" points="449.5 398.81 350.16 411.9 349.26 407.35 395.79 397.4 395.92 399.71 449.5 388.56 449.5 398.81"/>
    <path class="cls-5" d="m349.81,412.38l.4-.05,99.71-13.14v-11.17l-.52.11-53.09,11.05-.13-2.31-47.44,10.15,1.06,5.36Zm99.25-13.95l-98.56,12.99-.74-3.73,45.62-9.76.13,2.3,53.55-11.15v9.34Z"/>
  </g>
  <path class="cls-1" d="m447.83,391.91c.05,0,.1,0,.16,0,15.07-1.8,28.63-6.67,40.29-14.45,26.32-17.57,36.08-45.6,41.91-62.36,3.55-10.21,6.1-20.84,7.56-31.59.1-.71-.4-1.36-1.11-1.46-.71-.1-1.36.4-1.46,1.11-1.44,10.58-3.94,21.04-7.44,31.09-5.72,16.44-15.3,43.97-40.9,61.05-11.32,7.56-24.5,12.28-39.16,14.03-.71.09-1.22.73-1.13,1.44.08.66.64,1.14,1.29,1.14Z"/>
  <path class="cls-1" d="m429.95,328.07c.08,0,.16,0,.24-.02.84-.16,1.73-.31,2.64-.47,8.78-1.52,20.79-3.6,24.66-12.91,8.8-21.19,17.66-54,18.37-59.23.1-.71-.4-1.36-1.11-1.46-.71-.1-1.36.4-1.46,1.11-.7,5.15-9.47,37.57-18.2,58.58-3.32,7.99-14.07,9.85-22.71,11.34-.92.16-1.82.31-2.67.47-.7.13-1.17.81-1.04,1.51.12.63.66,1.06,1.27,1.06Z"/>
  <path class="cls-5" d="m387.07,339.53l8.85,60.18,53.58-11.15,8.14-3.93s-11.15-46.89-11.15-47.66-6.13-8.64-6.13-8.64l-53.29,11.2Z"/>
  <path class="cls-1" d="m281.8,626.63c.07.13.15.26.23.4.08.12.15.24.22.37,1.82,3.2,3.8,7.83,3.8,12.77,0,.96.78,1.73,1.73,1.73s1.73-.77,1.73-1.73c0-5.34-1.94-10.24-3.84-13.78-.07-.13-.14-.26-.21-.38-.08-.14-.15-.27-.23-.39-1.14.36-2.28.71-3.43,1.01Z"/>
  <path class="cls-1" d="m273.05,628.56c.08.13.15.27.22.41.06.13.13.26.19.4,1.46,2.99,2.77,6.8,2.77,10.81,0,.96.77,1.73,1.73,1.73s1.73-.77,1.73-1.73c0-4.27-1.24-8.25-2.7-11.49-.06-.13-.12-.26-.18-.39-.07-.14-.13-.28-.19-.41-1.19.26-2.38.48-3.56.67Z"/>
  <path class="cls-1" d="m263.72,629.54c.07.14.14.29.21.43.06.14.12.28.18.42,1.26,2.82,2.29,6.22,2.29,9.79,0,.96.77,1.73,1.73,1.73s1.73-.77,1.73-1.73c0-3.66-.91-7.11-2.09-10.06-.05-.14-.1-.28-.16-.41-.06-.14-.11-.28-.17-.42-1.24.11-2.47.2-3.71.25Z"/>
  <path class="cls-3" d="m433.24,117.44c.78-1.8.14-3.9-.8-5.62-.94-1.72-2.17-3.31-2.7-5.2-.53-1.89-.08-4.26,1.66-5.17,1.58,1.24,4.12,1.02,5.47-.47,1.35-1.49,1.32-4.03-.07-5.49-1.46-1.53-4.04-1.85-5.06-3.7-1.05-1.91.16-4.19.8-6.27.98-3.17.54-6.76-1.17-9.61l-101.46-6.67-124.01,5.96s-4.23,3.46,0,8.65v6.15s-4.52,6.25.77,11.54v8.46s4.81,11.92.19,23.65c0,0-1.73,5.58,1.73,8.65,0,0-3.65,13.46.96,13.27l2.69,10.38-2.69,12.11,3.27,11.34s-6.92,6.54.19,17.88l-.19,8.27s-7.69,3.85-1.35,10.57c0,0-5,6.92,2.11,11.15v8.46l-20.96,12.88h21.73l1.73,9.85s-7.5,11.1.19,19.76c0,0-5.2,6.92,1.24,11.15l3.75,8.65s-3.85,7.69.58,12.88l1.37,19.23,6.99,75.43,1.34,13.03s-4.19,5.79,0,9.98c0,0-.66,10.38.88,11.54s117.54,7.5,117.54,7.5"/>
  <path class="cls-1" d="m538.62,645.16c.11-.02.23-.03.36-.05.03,0,.06,0,.09-.02.14-.02.29-.03.45-.05,3.61-.39,8.37-.34,12.71,1.47.88.37,1.9-.05,2.27-.93.37-.9-.05-1.9-.94-2.27-1.28-.52-2.58-.93-3.86-1.22-.17-.05-.32-.08-.48-.09-.17-.05-.34-.08-.51-.11-.43-.09-.86-.15-1.3-.2-.25-.05-.49-.08-.74-.11-.25-.03-.48-.06-.71-.08-2.08-.19-4.08-.15-5.85,0-.15.02-.31.02-.45.03-.11.02-.2.02-.29.03-.06,0-.11,0-.15.02l-.59,3.57Z"/>
  <path class="cls-1" d="m537.15,653.99c.08-.02.17-.02.26-.02.06,0,.11,0,.17-.02.14,0,.29,0,.45-.02,3.2-.14,6.95.19,10.42,1.64.88.37,1.88-.05,2.25-.94.37-.88-.05-1.88-.93-2.25-3.77-1.56-7.72-2.01-11.16-1.93-.15-.02-.29,0-.45,0h-.03c-.14,0-.28.02-.4.02l-.59,3.52Z"/>
  <path class="cls-1" d="m535.65,662.98h.43c.15,0,.29.02.45.02,2.64.09,5.47.54,8.14,1.65.88.37,1.9-.05,2.27-.93.36-.88-.05-1.9-.94-2.27-2.96-1.24-6.04-1.76-8.89-1.9-.15-.02-.29-.02-.45-.02-.14-.02-.29-.02-.43-.02l-.57,3.46Z"/>
</svg>