<?xml version="1.0" encoding="UTF-8"?>
<svg id="Layer_1" data-name="Layer 1" xmlns="http://www.w3.org/2000/svg" viewBox="0 0 770.86 746.41">
  <defs>
    <style>
      .cls-1 {
        fill: #fff;
      }

      .cls-2 {
        fill: #66bb46;
      }
    </style>
  </defs>
  <g>
    <g>
      <path class="cls-2" d="m318.13,286.67c0,83.64-67.8,151.45-151.45,151.45-83.64,0-151.45-67.8-151.45-151.45s67.8-151.45,151.45-151.45,151.45,67.8,151.45,151.45Z"/>
      <g>
        <g>
          <rect class="cls-1" x="86.67" y="212.3" width="439.51" height="355.75"/>
          <rect class="cls-2" x="86.67" y="212.3" width="439.51" height="29.94"/>
          <path d="m526.18,569.38H86.67c-.61,0-1.11-.5-1.11-1.11V212.52c0-.61.5-1.11,1.11-1.11h439.51c.61,0,1.11.5,1.11,1.11v355.75c0,.61-.5,1.11-1.11,1.11Zm-438.4-2.22h437.29V213.63H87.78v353.53Z"/>
          <path d="m524.44,243.36H86.67c-.61,0-1.11-.5-1.11-1.11s.5-1.11,1.11-1.11h437.77c.61,0,1.11.5,1.11,1.11s-.5,1.11-1.11,1.11Z"/>
        </g>
        <g>
          <path d="m104.39,223.89c0,2.32-1.88,4.21-4.21,4.21s-4.21-1.88-4.21-4.21,1.88-4.21,4.21-4.21,4.21,1.88,4.21,4.21Z"/>
          <circle class="cls-1" cx="131.28" cy="223.89" r="4.21" transform="translate(-110.75 317.61) rotate(-80.78)"/>
          <path class="cls-2" d="m119.94,223.89c0,2.32-1.88,4.21-4.21,4.21s-4.21-1.88-4.21-4.21,1.88-4.21,4.21-4.21,4.21,1.88,4.21,4.21Z"/>
        </g>
      </g>
      <circle class="cls-2" cx="44.94" cy="461.52" r="29.39"/>
      <circle class="cls-2" cx="396.34" cy="157.62" r="29.39"/>
      <g>
        <g>
          <path d="m151.17,309.94h-31.99c-.61,0-1.11-.5-1.11-1.11v-31.99c0-.61.5-1.11,1.11-1.11h31.99c.61,0,1.11.5,1.11,1.11v31.99c0,.61-.5,1.11-1.11,1.11Zm-30.88-2.22h29.77v-29.77h-29.77v29.77Z"/>
          <rect class="cls-2" x="134.28" y="291.68" width="31.99" height="31.99"/>
          <rect class="cls-2" x="134.28" y="291.68" width="16.89" height="17.16"/>
        </g>
        <path d="m145.15,388.58l21.13,21.13-12.48,12.48-21.13-21.13-8.37,8.37-2.57-17.17-2.57-17.17,17.17,2.57,17.17,2.57-8.36,8.37Z"/>
        <g>
          <path class="cls-2" d="m160.35,486.44c0,9.73-7.89,17.62-17.62,17.62s-17.62-7.89-17.62-17.62,17.62-33.61,17.62-33.61c0,0,17.62,23.88,17.62,33.61Z"/>
          <path class="cls-1" d="m149.87,486.44c0,3.95-3.2,7.14-7.14,7.14s-7.14-3.2-7.14-7.14,3.2-7.14,7.14-7.14,7.14,3.2,7.14,7.14Z"/>
          <rect class="cls-2" x="125.92" y="507.75" width="33.61" height="12.67"/>
        </g>
      </g>
      <g>
        <path d="m60.34,303.53c-.28,0-.57-.11-.78-.33l-15.4-15.4c-.43-.43-.43-1.14,0-1.57.43-.43,1.14-.43,1.57,0l15.4,15.4c.43.43.43,1.14,0,1.57-.22.22-.5.33-.79.33Z"/>
        <path d="m44.94,303.53c-.28,0-.57-.11-.79-.33-.43-.43-.43-1.14,0-1.57l15.4-15.4c.43-.43,1.14-.43,1.57,0,.43.43.43,1.14,0,1.57l-15.4,15.4c-.22.22-.5.33-.79.33Z"/>
      </g>
      <path d="m183.45,190.37c-8.23,0-14.93-6.7-14.93-14.93s6.69-14.93,14.93-14.93,14.93,6.7,14.93,14.93-6.7,14.93-14.93,14.93Zm0-27.63c-7.01,0-12.71,5.7-12.71,12.71s5.7,12.71,12.71,12.71,12.71-5.7,12.71-12.71-5.7-12.71-12.71-12.71Z"/>
    </g>
    <path class="cls-1" d="m500.69,509.81c-10.82-28.98-20.13-49.4-28.93-58.03l-123.38.28-8.65,48.98-58.02.37c-8.04.05-15.7,1.99-22.51,5.44-15.91,8.06-26.12,24.2-27.25,41.99l-2.17,34.26h185.83l.72-14.85h43.84c30.2,0,51.08-30.15,40.51-58.45Z"/>
    <path d="m229.79,584.21c-.68-.04-1.15-.57-1.11-1.18l2.17-34.26c1.16-18.36,11.83-34.8,27.85-42.91,7.08-3.59,15.04-5.51,23-5.56l57.09-.36,8.49-48.07c.09-.53.55-.92,1.09-.92l123.39-.28c.29,0,.57.11.78.32,8.16,8,16.89,25.47,29.19,58.43,5.17,13.85,3.31,28.75-5.12,40.88-8.41,12.11-21.69,19.06-36.44,19.06h-42.78l-.67,13.79c-.03.61-.54,1.08-1.16,1.05-.61-.03-1.08-.55-1.05-1.16l.72-14.85c.03-.59.52-1.06,1.11-1.06h43.84c14.01,0,26.63-6.6,34.61-18.11,8-11.53,9.77-25.68,4.86-38.84-11.86-31.76-20.62-49.49-28.35-57.31l-122,.28-8.49,48.07c-.09.53-.55.91-1.08.92l-58.02.37c-7.73.05-15.14,1.84-22.01,5.32-15.32,7.76-25.53,23.5-26.64,41.07l-2.16,34.26c-.04.59-.53,1.04-1.11,1.04Z"/>
    <path d="m416.34,569.36c-.69-.04-1.15-.57-1.11-1.18l1.05-15.78c.04-.61.59-1.07,1.18-1.03.61.04,1.08.57,1.04,1.18l-1.05,15.78c-.04.59-.53,1.04-1.11,1.04Z"/>
    <path d="m307.92,584.21c-.64-.01-1.12-.52-1.11-1.13l.66-31.28c.59-28.04,23.71-50.6,51.67-50.6.22,0,.44,0,.67,0l51.9.66c.61,0,1.1.51,1.1,1.12,0,.61-.5,1.1-1.11,1.1-.01,0-51.91-.66-51.91-.66-.21,0-.43,0-.64,0-26.77,0-48.89,21.59-49.46,48.43l-.66,31.28c-.01.6-.51,1.09-1.11,1.09Z"/>
    <path d="m593.67,170.56c-3.8-10.26-11.32-18.56-20.71-24.07-9.65-5.67-20.93-8.17-32.06-8.21-5.66-.02-11.3.64-16.83,1.85-5.46,1.2-10.78,3.09-15.53,6.07-7.69,4.83-13.08,12.43-17.56,20.32-4.19,7.4-8.06,19.48-16.37,23.11-5.86,2.56-12.26.68-18.2-.55-6.18-1.28-12.48-2.04-18.8-1.99-12.65.09-24.66,3.76-35.67,10.06-9.95,5.7-11.01,9.65-11.01,9.65,0,0-13.91,1.83-21.1,10.65-4.87,5.96-8.02,15.25-4.95,22.72,3.2,7.79,10.01,14.38,17.47,18.13,5.42,2.72,11.48,4.11,17.54,4.11.95,0,11.45-.02,11.44.19-.18,2.84.51,5.78,1.55,8.39,1.6,4.02,9.04,14.06,22.67,14.06,10.31,0,22.37-4.38,29.07-8.59,6.77-4.26,13.1-9.99,21.57-10.03,6.93-.03,12.8,2.86,19.1,5.31,6.63,2.57,13.42,4.79,20.44,6.01,11.82,2.06,24.13.89,34.79-4.84,9.61-5.16,18.13-13.2,23.17-22.93,2.39-4.62,3.9-9.66,4.13-14.87.16-3.64-.31-7.28-1-10.85-.59-3.06-1.41-6.15-2.5-9.15,4.09-4.1,7.41-8.94,9.42-14.38,3.58-9.68,3.48-20.5-.1-30.18Z"/>
    <path d="m603.49,425.71c-9.85-25.04-30.41-52.39-51.08-78.15-1.97-2.45-6.42-7.19-12-12.93-27.76-28.53-65.8-44.73-105.6-44.93l-52.44-.27c-30.91-.16-60.39,13.01-80.9,36.14l-21.74,24.51-52.73,12.6s-29.84,83.29-5.4,112.81c24,28.98,89.96,16.99,119.49-20.53v7.19h121.01l6.79,8.21s35.57,24.53,69.34,28.68c56.12,6.89,83.93-25.88,65.25-73.33Z"/>
    <path class="cls-1" d="m434.81,289.7l-52.44-.27c-7.49-.04-14.89.71-22.1,2.19,5.85,6.77,24.99,25.27,58.96,24.32,21.94-.61,39.69-11.49,51.56-21.62-11.66-2.98-23.73-4.56-35.97-4.62Z"/>
    <path d="m552.69,501.08c-4.65,0-9.52-.31-14.58-.93-33.66-4.13-69.48-28.62-69.84-28.86-.08-.06-.16-.13-.23-.21l-6.46-7.81h-120.49c-.61,0-1.11-.5-1.11-1.11v-4.09c-17.53,20.49-47.6,34.32-75.94,34.66-18.89.26-34.27-5.64-43.29-16.53-24.57-29.67,3.98-110.47,5.2-113.89.13-.35.42-.62.79-.71l52.39-12.52,21.5-24.25c20.72-23.36,50.45-36.65,81.73-36.51l52.44.27c39.81.2,78.59,16.7,106.39,45.27,6.19,6.36,10.26,10.74,12.08,13.01,20.77,25.89,41.36,53.31,51.24,78.44,8.77,22.3,7.65,42.27-3.17,56.24-9.91,12.79-26.9,19.53-48.67,19.53Zm-83.04-31.54c2.34,1.59,36.61,24.46,68.73,28.4,27.95,3.44,49.69-2.87,61.22-17.76,10.32-13.32,11.34-32.53,2.86-54.07-9.78-24.85-30.25-52.11-50.91-77.86-1.77-2.21-5.79-6.54-11.94-12.85-27.39-28.14-65.59-44.4-104.81-44.6l-52.44-.27c-.18,0-.36,0-.54,0-30.39,0-59.35,13.02-79.52,35.77l-21.74,24.51c-.15.17-.35.29-.57.34l-52.14,12.46c-2.54,7.35-28.11,83.72-5.39,111.16,8.58,10.37,23.38,15.98,41.56,15.73,28.8-.35,59.42-14.92,76.2-36.23.29-.37.79-.52,1.24-.36.45.15.75.58.75,1.05v6.08h119.9c.33,0,.64.15.86.4l6.69,8.09Z"/>
    <path class="cls-1" d="m468.9,417.56c-.61,0-1.11-.5-1.11-1.11v-83.05c0-.61.49-1.11,1.11-1.11s1.11.5,1.11,1.11v83.05c0,.61-.49,1.11-1.11,1.11Z"/>
    <path d="m375.67,241c1.38,18.56,17.54,32.5,36.1,31.12,18.56-1.38,32.5-17.54,31.12-36.1-1.38-18.56-17.54-32.5-36.1-31.12-18.56,1.38-32.5,17.54-31.12,36.1Z"/>
    <path class="cls-1" d="m435.57,299.87v-14.81c-21.39-2.24-15.46-41.3-15.46-41.3-17.74,1.47-19.89-17.97-21.59-25.25-.26-1.11-1.21-1.94-2.34-1.99-10.31-.47-18.17,7.4-18.72,14.67-1.9,24.74-7.57,49.4,18.9,49.6v19.08h39.22Z"/>
    <path d="m396.34,295.52c-.61,0-1.11-.5-1.11-1.11v-12.54c-6.94-.23-11.98-2.19-15.38-5.95-6.95-7.7-5.64-21.7-4.25-36.53.26-2.74.52-5.52.73-8.3.6-7.83,8.88-16.19,19.88-15.69,1.61.07,3,1.24,3.37,2.85.16.69.33,1.49.51,2.38,1.68,8.13,4.78,23.27,19.91,22.02.35-.03.67.1.9.35.23.25.34.59.29.92-.04.24-3.49,23.81,4.95,34.71,2.41,3.12,5.62,4.91,9.54,5.32.57.06.99.54.99,1.1v8.09c0,.61-.5,1.11-1.11,1.11s-1.11-.5-1.11-1.11v-7.11c-4.09-.66-7.48-2.69-10.07-6.04-7.9-10.22-6.2-29.72-5.56-35.05-15.83.42-19.25-15.9-20.9-23.86-.18-.86-.34-1.64-.5-2.32-.15-.64-.69-1.11-1.31-1.13-9.78-.44-17.04,6.84-17.57,13.64-.21,2.79-.48,5.58-.73,8.34-1.35,14.33-2.62,27.86,3.69,34.83,3.14,3.47,8,5.19,14.85,5.24.61,0,1.1.5,1.1,1.11v13.62c0,.61-.5,1.11-1.11,1.11Z"/>
    <path d="m396.34,281.89c-.61,0-1.11-.5-1.11-1.11s.5-1.11,1.11-1.11c7.51,0,12.92-.59,12.97-.6.6-.06,1.16.37,1.23.98.07.61-.37,1.16-.98,1.23-.06,0-5.58.61-13.22.61Z"/>
    <path d="m396.33,292.85s5.69,1.31,10.28-1.59c4.92-3.11,2.83-11.08,2.83-11.08l-13.1.6v12.07Z"/>
    <path d="m340.31,455.24c-.35,0-.69-.16-.9-.46-.36-.5-.24-1.19.25-1.55l25.14-18.1c.5-.36,1.19-.25,1.55.25.36.5.24,1.19-.25,1.55l-25.14,18.1c-.2.14-.42.21-.65.21Z"/>
    <g>
      <path class="cls-1" d="m428.46,246.02c.41,5.51-3.73,10.31-9.24,10.72-5.51.41-10.31-3.73-10.72-9.24-.41-5.51,3.73-10.31,9.24-10.72,5.51-.41,10.31,3.73,10.72,9.24Z"/>
      <path d="m416.78,249.79c-.2,0-.4-.05-.58-.16-.52-.32-.69-1-.37-1.53l3.28-5.39c.32-.52,1-.69,1.53-.37.52.32.69,1,.37,1.53l-3.28,5.39c-.21.34-.58.53-.95.53Z"/>
    </g>
    <g>
      <g>
        <path class="cls-1" d="m363.43,491.92c.07-.97.03-1.97-.16-2.99l-13.61-73.93c-1.04-5.64-5.95-9.73-11.69-9.73h-124.42c-7.42,0-13.03,6.73-11.69,14.04l13.61,73.93c1.04,5.64,5.95,9.73,11.69,9.73h202.61c3.05,0,5.52-2.47,5.52-5.52s-2.47-5.52-5.52-5.52h-66.34Z"/>
        <path d="m429.77,504.08h-202.61c-6.27,0-11.64-4.47-12.78-10.64l-13.61-73.93c-.7-3.81.32-7.69,2.79-10.67,2.48-2.97,6.11-4.68,9.98-4.68h124.42c6.27,0,11.64,4.47,12.78,10.64l13.61,73.93c.13.68.2,1.37.21,2.08h65.2c3.66,0,6.64,2.98,6.64,6.63s-2.98,6.63-6.64,6.63Zm-216.22-97.69c-3.21,0-6.23,1.41-8.28,3.88-2.05,2.47-2.9,5.69-2.32,8.85l13.61,73.93c.94,5.11,5.4,8.82,10.6,8.82h202.61c2.43,0,4.42-1.98,4.42-4.42s-1.98-4.42-4.42-4.42h-66.34c-.31,0-.6-.13-.81-.35-.21-.23-.32-.53-.3-.84.06-.93.02-1.84-.14-2.71l-13.61-73.93c-.94-5.11-5.4-8.82-10.59-8.82h-124.42Z"/>
        <path class="cls-2" d="m297.2,454.13c0,8.08-6.55,14.63-14.63,14.63s-14.63-6.55-14.63-14.63,6.55-14.63,14.63-14.63,14.63,6.55,14.63,14.63Z"/>
      </g>
      <path d="m363.43,493.03h-148.49c-.61,0-1.11-.5-1.11-1.11s.5-1.11,1.11-1.11h148.49c.61,0,1.11.5,1.11,1.11s-.5,1.11-1.11,1.11Z"/>
    </g>
    <circle cx="383.46" cy="243.84" r="2.25"/>
    <path d="m403.84,243.84c0,1.24-1.01,2.25-2.25,2.25s-2.25-1.01-2.25-2.25,1.01-2.25,2.25-2.25,2.25,1.01,2.25,2.25Z"/>
    <path d="m386.07,262.91c-.55,0-1.03-.41-1.1-.97-.08-.61.35-1.16.96-1.24,2.79-.36,3.95-3.56,3.97-3.6.2-.58.83-.88,1.41-.68.58.2.88.83.68,1.41-.06.18-1.61,4.54-5.78,5.07-.05,0-.1,0-.14,0Z"/>
    <g>
      <g>
        <path class="cls-2" d="m401.95,259.66c-7.12,0-12.9-5.79-12.9-12.91s5.79-12.91,12.9-12.91,12.91,5.79,12.91,12.91-5.79,12.91-12.91,12.91Zm0-23.59c-5.89,0-10.69,4.79-10.69,10.69s4.79,10.69,10.69,10.69,10.69-4.79,10.69-10.69-4.79-10.69-10.69-10.69Z"/>
        <path class="cls-2" d="m375.06,259.66c-7.12,0-12.9-5.79-12.9-12.91s5.79-12.91,12.9-12.91,12.91,5.79,12.91,12.91-5.79,12.91-12.91,12.91Zm0-23.59c-5.89,0-10.68,4.79-10.68,10.69s4.79,10.69,10.68,10.69,10.69-4.79,10.69-10.69-4.79-10.69-10.69-10.69Z"/>
      </g>
      <path class="cls-2" d="m401.95,236.07h-26.9c-.61,0-1.11-.5-1.11-1.11s.5-1.11,1.11-1.11h26.9c.61,0,1.11.5,1.11,1.11s-.5,1.11-1.11,1.11Z"/>
    </g>
    <path d="m385.54,257.73c-.06,0-.12,0-.19-.02-.6-.1-1.01-.67-.91-1.28l2.51-14.9c.1-.6.66-1.01,1.28-.91.6.1,1.01.67.91,1.28l-2.51,14.9c-.09.54-.56.93-1.09.93Z"/>
    <g>
      <path class="cls-1" d="m304.76,212.37c5.07-5.8,8.12-13.28,8.12-21.45,0-18.39-15.45-33.3-34.5-33.3s-34.5,14.91-34.5,33.3,15.45,33.3,34.5,33.3c.04,0,.09,0,.13,0-.4,1.48-.61,3.02-.61,4.62,0,10.04,8.44,18.19,18.84,18.19s18.84-8.14,18.84-18.19c0-7.28-4.43-13.55-10.83-16.46Z"/>
      <path d="m296.74,248.13c-11,0-19.95-8.66-19.95-19.3,0-1.19.11-2.37.34-3.53-19.12-.7-34.35-15.85-34.35-34.38s15.98-34.41,35.61-34.41,35.61,15.44,35.61,34.41c0,7.64-2.65,15.07-7.48,21.09,6.23,3.39,10.18,9.85,10.18,16.83,0,10.64-8.95,19.3-19.95,19.3Zm-18.36-89.4c-18.41,0-33.39,14.44-33.39,32.19s14.98,32.19,33.39,32.19c.35,0,.74.16.95.43.21.28.35.63.25.96-.38,1.41-.58,2.86-.58,4.33,0,9.42,7.96,17.08,17.73,17.08s17.73-7.66,17.73-17.08c0-6.58-3.99-12.64-10.18-15.45-.32-.15-.55-.43-.63-.78-.07-.34.02-.7.25-.96,5.06-5.79,7.85-13.15,7.85-20.72,0-17.75-14.98-32.19-33.39-32.19Z"/>
      <ellipse class="cls-1" cx="333.73" cy="184.64" rx="8.07" ry="7.78"/>
      <path d="m333.74,193.54c-5.06,0-9.18-3.99-9.18-8.89s4.12-8.9,9.18-8.9,9.18,3.99,9.18,8.9-4.12,8.89-9.18,8.89Zm0-15.57c-3.84,0-6.96,2.99-6.96,6.67s3.12,6.67,6.96,6.67,6.96-2.99,6.96-6.67-3.12-6.67-6.96-6.67Z"/>
    </g>
    <path class="cls-2" d="m333.32,285.25c-3.69,0-7.09,1.23-9.83,3.3l1.09-8.54c.53-4.18-2.72-7.89-6.94-7.89h-49.14c-4.22,0-7.48,3.7-6.94,7.89l7.3,57.11c.45,3.49,3.42,6.11,6.94,6.11h34.55c3.52,0,6.5-2.62,6.94-6.11l3.25-25.48c2.98,3.77,7.59,6.19,12.77,6.19,9,0,16.29-7.29,16.29-16.29s-7.29-16.29-16.29-16.29Zm0,23.12c-3.77,0-6.83-3.06-6.83-6.83s3.06-6.83,6.83-6.83,6.83,3.06,6.83,6.83-3.06,6.83-6.83,6.83Z"/>
    <path d="m310.35,344.34h-34.55c-4.07,0-7.53-3.04-8.04-7.08l-7.3-57.11c-.3-2.31.42-4.64,1.96-6.39,1.54-1.75,3.76-2.75,6.09-2.75h49.14c2.33,0,4.55,1,6.09,2.75,1.54,1.75,2.25,4.08,1.96,6.39l-.79,6.16c2.56-1.43,5.43-2.17,8.42-2.17,9.59,0,17.4,7.81,17.4,17.4s-7.8,17.4-17.4,17.4c-4.51,0-8.76-1.72-11.98-4.78l-2.95,23.1c-.52,4.04-3.97,7.08-8.04,7.08Zm-41.84-71.11c-1.69,0-3.3.73-4.42,2-1.12,1.27-1.64,2.96-1.42,4.64l7.29,57.11c.37,2.93,2.89,5.14,5.84,5.14h34.55c2.96,0,5.47-2.21,5.84-5.14l3.25-25.48c.06-.44.37-.81.8-.93.43-.12.89.03,1.17.38,2.9,3.67,7.24,5.77,11.9,5.77,8.37,0,15.18-6.81,15.18-15.18s-6.81-15.18-15.18-15.18c-3.34,0-6.5,1.06-9.16,3.07-.36.27-.84.3-1.23.08-.39-.22-.6-.66-.54-1.1l1.09-8.54c.21-1.68-.3-3.37-1.42-4.64-1.12-1.27-2.73-2-4.42-2h-49.14Zm64.82,36.25c-4.38,0-7.95-3.56-7.95-7.94s3.56-7.94,7.95-7.94,7.94,3.56,7.94,7.94-3.56,7.94-7.94,7.94Zm0-13.67c-3.16,0-5.73,2.57-5.73,5.72s2.57,5.72,5.73,5.72,5.72-2.57,5.72-5.72-2.57-5.72-5.72-5.72Z"/>
    <path class="cls-1" d="m300.82,308.66c-.85-7.93-10.48-8.22-16.9-7.5,12.9-2.71,16.33-7.32,15.44-12.8-1.01-6.22-5.36-10-16.36-8.35-4.8.72-9.66,1.72-13.62,2.62,3.81-2.04,8.34-4.54,12.45-6.97,9.46-5.6,15.83-14.87,12.35-19.81-3.48-4.94-10.42-5.29-19.19-1.35-8.77,3.94-28.49,12.27-36.95,21.38-8.46,9.11-7.84,30.29-8.29,41.77-.25,6.49-1.29,31.39-2.17,51.91-.68,15.82,12.11,28.93,27.94,28.64,17.26-.32,29.95-16.3,26.35-33.18l-2.13-10.01c7.27-6.67,5.73-12.62,3.39-16.28,9.86-2,16.36-4.97,14.73-13.45-.7-3.62-4.46-4.91-8.98-5.09,7.24-1.76,12.66-4.84,11.94-11.52Z"/>
    <path d="m254.99,399.31c-7.76,0-14.99-3.05-20.43-8.62-5.56-5.7-8.44-13.22-8.1-21.18.9-20.85,1.92-45.48,2.17-51.91.05-1.4.09-2.95.14-4.6.29-11.78.74-29.59,8.45-37.89,7.96-8.57,25.61-16.43,35.09-20.65l2.22-.99c9.47-4.26,16.78-3.65,20.56,1.72,1.1,1.56,1.43,3.56.95,5.79-1.11,5.17-6.59,11.45-13.64,15.62-1.79,1.06-3.76,2.19-5.89,3.38,2.22-.42,4.33-.79,6.33-1.09,10.42-1.56,16.36,1.55,17.62,9.27.85,5.23-1.98,9.14-8.64,11.83,2.61.33,5.1,1.1,6.97,2.6,1.82,1.46,2.88,3.46,3.14,5.94.67,6.28-3.51,9.48-8.13,11.29,2.94.93,4.67,2.68,5.16,5.23,1.78,9.27-5.52,12.53-14.11,14.43,1.78,3.59,2.79,9.47-3.88,15.89l2,9.4c1.78,8.37-.24,17.02-5.57,23.72-5.32,6.7-13.29,10.64-21.85,10.8-.18,0-.37,0-.55,0Zm30.61-146.41c-2.88,0-6.3.86-10.16,2.6l-2.23.99c-9.34,4.16-26.71,11.89-34.37,20.13-7.14,7.68-7.57,24.98-7.86,36.43-.04,1.66-.08,3.22-.14,4.63-.25,6.43-1.27,31.06-2.17,51.91-.32,7.34,2.34,14.28,7.47,19.54,5.13,5.26,11.98,8.09,19.35,7.94,7.89-.15,15.24-3.78,20.15-9.96,4.91-6.18,6.78-14.16,5.13-21.88l-2.13-10.01c-.08-.38.05-.78.34-1.05,5.32-4.88,6.4-9.88,3.2-14.87-.2-.31-.23-.69-.09-1.03.14-.34.44-.58.8-.65,11.37-2.3,15.12-5.6,13.86-12.15-.5-2.59-3.17-4-7.93-4.19-.55-.02-1.01-.45-1.06-1-.05-.55.3-1.06.84-1.19,8.23-2.01,11.65-5.19,11.1-10.33-.2-1.9-.96-3.35-2.33-4.44-3.22-2.58-9.03-2.55-13.35-2.08-.61.07-1.13-.34-1.22-.93-.09-.58.29-1.14.87-1.26,14.25-2.99,15.14-8.02,14.57-11.54-.66-4.06-2.95-9.25-15.1-7.43-4.05.61-8.61,1.48-13.54,2.6-.53.13-1.09-.17-1.28-.69-.19-.52.03-1.1.52-1.37,4.75-2.55,8.93-4.88,12.41-6.95,6.55-3.88,11.62-9.57,12.6-14.17.35-1.63.15-2.98-.6-4.04-1.68-2.38-4.3-3.57-7.67-3.57Z"/>
    <path d="m259.91,347.07c-.61,0-1.11-.5-1.11-1.11,0-1.98,1.48-3.65,3.44-3.88l21.44-4.6c.58-.13,1.19.25,1.32.85.13.6-.25,1.19-.85,1.32l-21.54,4.62c-.95.12-1.59.84-1.59,1.7,0,.61-.5,1.11-1.11,1.11Z"/>
    <path d="m255.54,327.3c-.49,0-.94-.32-1.07-.82-.16-.59.18-1.2.78-1.37,6.84-1.89,32.38-5.87,33.46-6.04.61-.09,1.17.32,1.27.93.09.61-.32,1.17-.93,1.27-.26.04-26.49,4.13-33.21,5.98-.1.03-.2.04-.29.04Z"/>
    <path d="m248.23,291.82c-.46,0-.89-.29-1.05-.75-.2-.58.1-1.21.68-1.41,5.36-1.86,20.95-8.01,21.1-8.08.57-.23,1.21.05,1.44.62.22.57-.05,1.22-.63,1.44-.16.06-15.79,6.23-21.19,8.11-.12.04-.24.06-.37.06Z"/>
    <path d="m252.58,310.36c-.42,0-.83-.24-1.01-.65-.25-.56,0-1.22.56-1.47,9-4.06,30.68-8.01,31.6-8.17.6-.11,1.18.29,1.29.89.11.6-.29,1.18-.89,1.29-.22.04-22.33,4.07-31.08,8.01-.15.07-.3.1-.46.1Z"/>
    <path class="cls-1" d="m499.23,423s-24.73-3.29-32.3-6.55c-34.47-14.85-56.12-20.52-77.66-11.78-27.58,11.2-36.09,31.94-27.58,39.22,8.51,7.28,21.54-13.83,27.91-17.02,1.9-.95,3.88-1.82,5.71-2.58-3.03,2.92-6.96,8.21-11.8,17.66-4.89,9.54-13,33.52-3.46,37.03,3.82,1.4,7.14.48,9.74-1.14.65,2.86,2.8,5.71,6.7,6.57,4.53,1,8.16-1.43,10.74-4.29.23,3.81,2.68,7.72,7.85,7.57,9.85-.29,19.48-24.05,21.18-26.65,0,0,9.69,14.59,32.63,9.33l14.5,5.77c15.45,6.16,32.82-2.53,37.17-18.58,4.2-15.52-5.58-31.37-21.34-34.56Z"/>
    <path d="m389.8,478.95c-.67-.03-1.14-.55-1.11-1.17,1.65-32.8,22.03-52.67,22.24-52.87.44-.42,1.15-.41,1.57.03.42.44.41,1.15-.03,1.57-.2.19-19.96,19.49-21.56,51.38-.03.59-.52,1.05-1.11,1.05Z"/>
    <path d="m407.23,481.23s-.08,0-.11,0c-.61-.06-1.06-.6-.99-1.21,3.15-31.64,21.15-49.7,21.33-49.87.43-.43,1.14-.43,1.57.01.43.44.43,1.14-.01,1.57-.18.17-17.61,17.7-20.68,48.51-.06.57-.54,1-1.1,1Z"/>
    <path d="m395.31,425.4c-.26,0-.53-.09-.74-.28-.46-.41-.5-1.11-.09-1.57l3.65-4.08c.41-.46,1.11-.49,1.57-.09.46.41.5,1.11.09,1.57l-3.65,4.08c-.22.24-.52.37-.83.37Z"/>
    <path class="cls-1" d="m581.04,426.82c-.15,0-.29-.03-.44-.09-53.88-23.02-92.46-4.75-92.85-4.56-.55.27-1.21.04-1.48-.51-.27-.55-.04-1.22.51-1.48.39-.19,39.83-18.93,94.69,4.51.56.24.83.89.59,1.46-.18.42-.59.67-1.02.67Z"/>
    <path d="m414.79,488.81c-4.64,0-7.35-2.93-8.3-6.39-3.17,2.8-6.67,3.86-10.24,3.07-3.37-.74-5.94-2.95-7.12-6.02-3.08,1.53-6.26,1.72-9.46.54-1.95-.72-3.38-2.18-4.23-4.36-3.42-8.75,3.29-26.83,7.08-34.22,3-5.85,5.88-10.57,8.6-14.08-.35.17-.7.34-1.03.5-1.85.92-4.54,3.74-7.39,6.72-6.74,7.04-15.12,15.8-21.73,10.14-2.89-2.47-4.07-6.35-3.33-10.92,1.4-8.64,10.42-21.74,31.21-30.18,22.14-8.99,44.68-2.8,78.52,11.79,7.34,3.16,31.76,6.44,32.01,6.47,8,1.62,14.7,6.29,18.95,13.18,4.25,6.88,5.42,14.97,3.31,22.78-2.15,7.96-7.62,14.64-14.99,18.32-7.37,3.69-15.99,4.05-23.66,1l-14.18-5.65c-18.88,4.2-29.14-4.89-32.35-8.49-.22.44-.47.95-.74,1.5-3.82,7.79-11.78,24.01-20.6,24.26-.11,0-.22,0-.33,0Zm-7.55-9.8c.12,0,.25.02.37.06.42.15.71.53.74.98.19,3.1,2,6.65,6.71,6.53,7.48-.22,15.61-16.79,18.67-23.02.77-1.58,1.28-2.62,1.61-3.12.2-.31.55-.5.92-.5.38,0,.72.18.93.49.38.57,9.6,13.88,31.46,8.86.22-.05.45-.03.66.05l14.5,5.78c7.07,2.81,15.03,2.48,21.84-.92,6.81-3.4,11.86-9.57,13.85-16.92,1.95-7.21.87-14.68-3.05-21.03-3.92-6.34-10.09-10.66-17.39-12.15-1.46-.2-25.01-3.38-32.55-6.63-33.28-14.34-55.38-20.47-76.8-11.77-19.94,8.1-28.55,20.4-29.86,28.48-.61,3.77.3,6.92,2.58,8.87,5.01,4.29,12.6-3.63,18.68-9.99,3.12-3.26,5.82-6.08,8.01-7.18,1.72-.86,3.67-1.74,5.79-2.61.49-.2,1.06-.03,1.35.42.29.45.22,1.04-.16,1.41-3.5,3.37-7.4,9.21-11.58,17.36-3.89,7.58-9.93,24.87-6.99,32.39.62,1.58,1.57,2.59,2.92,3.08,2.96,1.09,5.91.74,8.77-1.04.3-.19.68-.22,1.01-.08.33.14.58.43.66.78.66,2.93,2.85,5.07,5.85,5.73,3.39.75,6.64-.58,9.68-3.95.21-.24.52-.37.82-.37Z"/>
    <rect class="cls-1" x="36.1" y="126.04" width="76.47" height="58.29"/>
    <rect class="cls-2" x="86.9" y="126.04" width="25.66" height="25.66"/>
    <path d="m112.56,185.45H36.1c-.61,0-1.11-.5-1.11-1.11v-58.29c0-.61.5-1.11,1.11-1.11h76.47c.61,0,1.11.5,1.11,1.11v58.29c0,.61-.5,1.11-1.11,1.11Zm-75.36-2.22h74.25v-56.07H37.2v56.07Z"/>
    <path d="m445.99,287.18c-5.92,0-10.32-.96-10.67-1.03-.6-.13-.98-.73-.84-1.32.13-.6.72-.97,1.33-.84.15.03,15.48,3.35,27.32-2.61,2.76-1.39,5.15-3.15,7.67-5.01,8.56-6.31,17.43-12.84,41.43-5.2.58.19.91.81.72,1.39-.19.58-.81.91-1.4.72-22.93-7.3-31.33-1.11-39.44,4.87-2.49,1.83-5.06,3.73-7.99,5.2-6.01,3.02-12.71,3.83-18.14,3.83Z"/>
    <path d="m458.93,193.54c-.66-.01-1.14-.52-1.13-1.13.01-.61.51-1.09,1.11-1.09.02,0,.05,0,.12,0,1.41,0,15.02-.38,19.96-14.82,6.03-17.6,15.67-34.91,45.18-42.38,27.48-6.96,51.7,3.56,64.79,28.14.29.54.08,1.21-.46,1.5-.54.29-1.21.08-1.5-.46-12.58-23.61-35.87-33.72-62.28-27.03-28.49,7.21-37.8,23.94-43.63,40.95-5.5,16.05-21.2,16.32-22.16,16.32Z"/>
  </g>
  <rect class="cls-2" x="192.63" y="583.1" width="562.99" height="38.37"/>
</svg>